G04 #@! TF.GenerationSoftware,KiCad,Pcbnew,(5.1.9)-1*
G04 #@! TF.CreationDate,2021-04-06T09:28:58+02:00*
G04 #@! TF.ProjectId,dsp-amplifier-x4,6473702d-616d-4706-9c69-666965722d78,rev?*
G04 #@! TF.SameCoordinates,Original*
G04 #@! TF.FileFunction,Legend,Bot*
G04 #@! TF.FilePolarity,Positive*
%FSLAX46Y46*%
G04 Gerber Fmt 4.6, Leading zero omitted, Abs format (unit mm)*
G04 Created by KiCad (PCBNEW (5.1.9)-1) date 2021-04-06 09:28:58*
%MOMM*%
%LPD*%
G01*
G04 APERTURE LIST*
%ADD10C,0.500000*%
%ADD11C,0.300000*%
%ADD12C,0.120000*%
%ADD13C,0.150000*%
G04 APERTURE END LIST*
D10*
X71750000Y-63750000D02*
G75*
G03*
X71750000Y-63750000I-250000J0D01*
G01*
X106250000Y-148250000D02*
G75*
G03*
X106250000Y-148250000I-250000J0D01*
G01*
X117250000Y-133750000D02*
G75*
G03*
X117250000Y-133750000I-250000J0D01*
G01*
D11*
X115142857Y-134428571D02*
X115642857Y-133714285D01*
X116000000Y-134428571D02*
X116000000Y-132928571D01*
X115428571Y-132928571D01*
X115285714Y-133000000D01*
X115214285Y-133071428D01*
X115142857Y-133214285D01*
X115142857Y-133428571D01*
X115214285Y-133571428D01*
X115285714Y-133642857D01*
X115428571Y-133714285D01*
X116000000Y-133714285D01*
X114500000Y-134428571D02*
X114500000Y-132928571D01*
X113928571Y-132928571D01*
X113785714Y-133000000D01*
X113714285Y-133071428D01*
X113642857Y-133214285D01*
X113642857Y-133428571D01*
X113714285Y-133571428D01*
X113785714Y-133642857D01*
X113928571Y-133714285D01*
X114500000Y-133714285D01*
X113000000Y-134428571D02*
X113000000Y-133428571D01*
X113000000Y-132928571D02*
X113071428Y-133000000D01*
X113000000Y-133071428D01*
X112928571Y-133000000D01*
X113000000Y-132928571D01*
X113000000Y-133071428D01*
X118642857Y-147428571D02*
X118642857Y-148642857D01*
X118571428Y-148785714D01*
X118500000Y-148857142D01*
X118357142Y-148928571D01*
X118071428Y-148928571D01*
X117928571Y-148857142D01*
X117857142Y-148785714D01*
X117785714Y-148642857D01*
X117785714Y-147428571D01*
X117142857Y-148857142D02*
X116928571Y-148928571D01*
X116571428Y-148928571D01*
X116428571Y-148857142D01*
X116357142Y-148785714D01*
X116285714Y-148642857D01*
X116285714Y-148500000D01*
X116357142Y-148357142D01*
X116428571Y-148285714D01*
X116571428Y-148214285D01*
X116857142Y-148142857D01*
X117000000Y-148071428D01*
X117071428Y-148000000D01*
X117142857Y-147857142D01*
X117142857Y-147714285D01*
X117071428Y-147571428D01*
X117000000Y-147500000D01*
X116857142Y-147428571D01*
X116500000Y-147428571D01*
X116285714Y-147500000D01*
X115142857Y-148142857D02*
X114928571Y-148214285D01*
X114857142Y-148285714D01*
X114785714Y-148428571D01*
X114785714Y-148642857D01*
X114857142Y-148785714D01*
X114928571Y-148857142D01*
X115071428Y-148928571D01*
X115642857Y-148928571D01*
X115642857Y-147428571D01*
X115142857Y-147428571D01*
X115000000Y-147500000D01*
X114928571Y-147571428D01*
X114857142Y-147714285D01*
X114857142Y-147857142D01*
X114928571Y-148000000D01*
X115000000Y-148071428D01*
X115142857Y-148142857D01*
X115642857Y-148142857D01*
X114142857Y-148928571D02*
X114142857Y-147928571D01*
X114142857Y-147428571D02*
X114214285Y-147500000D01*
X114142857Y-147571428D01*
X114071428Y-147500000D01*
X114142857Y-147428571D01*
X114142857Y-147571428D01*
X111857142Y-149500000D02*
X111928571Y-149428571D01*
X112071428Y-149214285D01*
X112142857Y-149071428D01*
X112214285Y-148857142D01*
X112285714Y-148500000D01*
X112285714Y-148214285D01*
X112214285Y-147857142D01*
X112142857Y-147642857D01*
X112071428Y-147500000D01*
X111928571Y-147285714D01*
X111857142Y-147214285D01*
X111357142Y-148857142D02*
X111142857Y-148928571D01*
X110785714Y-148928571D01*
X110642857Y-148857142D01*
X110571428Y-148785714D01*
X110500000Y-148642857D01*
X110500000Y-148500000D01*
X110571428Y-148357142D01*
X110642857Y-148285714D01*
X110785714Y-148214285D01*
X111071428Y-148142857D01*
X111214285Y-148071428D01*
X111285714Y-148000000D01*
X111357142Y-147857142D01*
X111357142Y-147714285D01*
X111285714Y-147571428D01*
X111214285Y-147500000D01*
X111071428Y-147428571D01*
X110714285Y-147428571D01*
X110500000Y-147500000D01*
X109857142Y-148928571D02*
X109857142Y-147428571D01*
X109285714Y-147428571D01*
X109142857Y-147500000D01*
X109071428Y-147571428D01*
X109000000Y-147714285D01*
X109000000Y-147928571D01*
X109071428Y-148071428D01*
X109142857Y-148142857D01*
X109285714Y-148214285D01*
X109857142Y-148214285D01*
X108357142Y-148928571D02*
X108357142Y-147428571D01*
X107785714Y-149500000D02*
X107714285Y-149428571D01*
X107571428Y-149214285D01*
X107500000Y-149071428D01*
X107428571Y-148857142D01*
X107357142Y-148500000D01*
X107357142Y-148214285D01*
X107428571Y-147857142D01*
X107500000Y-147642857D01*
X107571428Y-147500000D01*
X107714285Y-147285714D01*
X107785714Y-147214285D01*
X72392857Y-63857142D02*
X72892857Y-63857142D01*
X73107142Y-63071428D02*
X72392857Y-63071428D01*
X72392857Y-64571428D01*
X73107142Y-64571428D01*
X73607142Y-64571428D02*
X74607142Y-63071428D01*
X74607142Y-64571428D02*
X73607142Y-63071428D01*
X74964285Y-64571428D02*
X75821428Y-64571428D01*
X75392857Y-63071428D02*
X75392857Y-64571428D01*
X166142857Y-135976190D02*
X166142857Y-137500000D01*
X166904761Y-139976190D02*
X164904761Y-139976190D01*
X164904761Y-140452380D01*
X165000000Y-140738095D01*
X165190476Y-140928571D01*
X165380952Y-141023809D01*
X165761904Y-141119047D01*
X166047619Y-141119047D01*
X166428571Y-141023809D01*
X166619047Y-140928571D01*
X166809523Y-140738095D01*
X166904761Y-140452380D01*
X166904761Y-139976190D01*
X166142857Y-143500000D02*
X166142857Y-145023809D01*
X166904761Y-144261904D02*
X165380952Y-144261904D01*
X166142857Y-118726190D02*
X166142857Y-120250000D01*
X166904761Y-119488095D02*
X165380952Y-119488095D01*
X166714285Y-123869047D02*
X166809523Y-123773809D01*
X166904761Y-123488095D01*
X166904761Y-123297619D01*
X166809523Y-123011904D01*
X166619047Y-122821428D01*
X166428571Y-122726190D01*
X166047619Y-122630952D01*
X165761904Y-122630952D01*
X165380952Y-122726190D01*
X165190476Y-122821428D01*
X165000000Y-123011904D01*
X164904761Y-123297619D01*
X164904761Y-123488095D01*
X165000000Y-123773809D01*
X165095238Y-123869047D01*
X166142857Y-126250000D02*
X166142857Y-127773809D01*
X166142857Y-101476190D02*
X166142857Y-103000000D01*
X165857142Y-106142857D02*
X165952380Y-106428571D01*
X166047619Y-106523809D01*
X166238095Y-106619047D01*
X166523809Y-106619047D01*
X166714285Y-106523809D01*
X166809523Y-106428571D01*
X166904761Y-106238095D01*
X166904761Y-105476190D01*
X164904761Y-105476190D01*
X164904761Y-106142857D01*
X165000000Y-106333333D01*
X165095238Y-106428571D01*
X165285714Y-106523809D01*
X165476190Y-106523809D01*
X165666666Y-106428571D01*
X165761904Y-106333333D01*
X165857142Y-106142857D01*
X165857142Y-105476190D01*
X166142857Y-109000000D02*
X166142857Y-110523809D01*
X166904761Y-109761904D02*
X165380952Y-109761904D01*
X165892857Y-84619047D02*
X165892857Y-86142857D01*
X166654761Y-85380952D02*
X165130952Y-85380952D01*
X166083333Y-88523809D02*
X166083333Y-89476190D01*
X166654761Y-88333333D02*
X164654761Y-89000000D01*
X166654761Y-89666666D01*
X165892857Y-91857142D02*
X165892857Y-93380952D01*
D12*
X59730000Y-137750000D02*
X59730000Y-88750000D01*
X118210000Y-136480000D02*
X118210000Y-135150000D01*
X118210000Y-135150000D02*
X116880000Y-135150000D01*
X118210000Y-137750000D02*
X115610000Y-137750000D01*
X115610000Y-137750000D02*
X115610000Y-135150000D01*
X115610000Y-135150000D02*
X67290000Y-135150000D01*
X67290000Y-140350000D02*
X67290000Y-135150000D01*
X118210000Y-140350000D02*
X67290000Y-140350000D01*
X118210000Y-140350000D02*
X118210000Y-137750000D01*
X232050000Y-119380000D02*
X241850000Y-119380000D01*
X232050000Y-134620000D02*
X241850000Y-134620000D01*
X232050000Y-119380000D02*
X232050000Y-134620000D01*
X241850000Y-119380000D02*
X241850000Y-134620000D01*
X177200000Y-113620000D02*
X167400000Y-113620000D01*
X177200000Y-98380000D02*
X167400000Y-98380000D01*
X177200000Y-113620000D02*
X177200000Y-98380000D01*
X167400000Y-113620000D02*
X167400000Y-98380000D01*
X177200000Y-96680000D02*
X167400000Y-96680000D01*
X177200000Y-81440000D02*
X167400000Y-81440000D01*
X177200000Y-96680000D02*
X177200000Y-81440000D01*
X167400000Y-96680000D02*
X167400000Y-81440000D01*
X177200000Y-148120000D02*
X167400000Y-148120000D01*
X177200000Y-132880000D02*
X167400000Y-132880000D01*
X177200000Y-148120000D02*
X177200000Y-132880000D01*
X167400000Y-148120000D02*
X167400000Y-132880000D01*
X177200000Y-131120000D02*
X167400000Y-131120000D01*
X177200000Y-115880000D02*
X167400000Y-115880000D01*
X177200000Y-131120000D02*
X177200000Y-115880000D01*
X167400000Y-131120000D02*
X167400000Y-115880000D01*
X232200000Y-144300000D02*
X232200000Y-141800000D01*
X231700000Y-148500000D02*
X179300000Y-148500000D01*
X179300000Y-61100000D02*
X231700000Y-61100000D01*
X179300000Y-148500000D02*
X179300000Y-61100000D01*
X231700000Y-61100000D02*
X231700000Y-148500000D01*
X153889491Y-109395000D02*
X153889491Y-110995000D01*
X154689491Y-110195000D02*
X153089491Y-110195000D01*
X137919000Y-113985000D02*
X137919000Y-115515000D01*
X137959000Y-113652000D02*
X137959000Y-115848000D01*
X137999000Y-113399000D02*
X137999000Y-116101000D01*
X138039000Y-113186000D02*
X138039000Y-116314000D01*
X138079000Y-112998000D02*
X138079000Y-116502000D01*
X138119000Y-112830000D02*
X138119000Y-116670000D01*
X138159000Y-112676000D02*
X138159000Y-116824000D01*
X138199000Y-112532000D02*
X138199000Y-116968000D01*
X138239000Y-112399000D02*
X138239000Y-117101000D01*
X138279000Y-112272000D02*
X138279000Y-117228000D01*
X138319000Y-112153000D02*
X138319000Y-117347000D01*
X138359000Y-112039000D02*
X138359000Y-117461000D01*
X138399000Y-111930000D02*
X138399000Y-117570000D01*
X138439000Y-111826000D02*
X138439000Y-117674000D01*
X138479000Y-111726000D02*
X138479000Y-117774000D01*
X138519000Y-111630000D02*
X138519000Y-117870000D01*
X138559000Y-111537000D02*
X138559000Y-117963000D01*
X138599000Y-111447000D02*
X138599000Y-118053000D01*
X138639000Y-111360000D02*
X138639000Y-118140000D01*
X138679000Y-111275000D02*
X138679000Y-118225000D01*
X138719000Y-111193000D02*
X138719000Y-118307000D01*
X138759000Y-111113000D02*
X138759000Y-118387000D01*
X138799000Y-111035000D02*
X138799000Y-118465000D01*
X138839000Y-110960000D02*
X138839000Y-118540000D01*
X138879000Y-110886000D02*
X138879000Y-118614000D01*
X138919000Y-110814000D02*
X138919000Y-118686000D01*
X138959000Y-110743000D02*
X138959000Y-118757000D01*
X138999000Y-110674000D02*
X138999000Y-118826000D01*
X139039000Y-110607000D02*
X139039000Y-118893000D01*
X139079000Y-110541000D02*
X139079000Y-118959000D01*
X139119000Y-110477000D02*
X139119000Y-119023000D01*
X139159000Y-110414000D02*
X139159000Y-119086000D01*
X139199000Y-110352000D02*
X139199000Y-119148000D01*
X139239000Y-110291000D02*
X139239000Y-119209000D01*
X139279000Y-110231000D02*
X139279000Y-119269000D01*
X139319000Y-110173000D02*
X139319000Y-119327000D01*
X139359000Y-110116000D02*
X139359000Y-119384000D01*
X139399000Y-110059000D02*
X139399000Y-119441000D01*
X139439000Y-110004000D02*
X139439000Y-119496000D01*
X139479000Y-109950000D02*
X139479000Y-119550000D01*
X139519000Y-109896000D02*
X139519000Y-119604000D01*
X139559000Y-109844000D02*
X139559000Y-119656000D01*
X139599000Y-109792000D02*
X139599000Y-119708000D01*
X139639000Y-109741000D02*
X139639000Y-119759000D01*
X139679000Y-109691000D02*
X139679000Y-119809000D01*
X139719000Y-109642000D02*
X139719000Y-119858000D01*
X139759000Y-109594000D02*
X139759000Y-119906000D01*
X139799000Y-109546000D02*
X139799000Y-119954000D01*
X139839000Y-109499000D02*
X139839000Y-120001000D01*
X139879000Y-109453000D02*
X139879000Y-120047000D01*
X139919000Y-109407000D02*
X139919000Y-120093000D01*
X139959000Y-109362000D02*
X139959000Y-120138000D01*
X139999000Y-109318000D02*
X139999000Y-120182000D01*
X140039000Y-109275000D02*
X140039000Y-120225000D01*
X140079000Y-109232000D02*
X140079000Y-120268000D01*
X140119000Y-109190000D02*
X140119000Y-120310000D01*
X140159000Y-109148000D02*
X140159000Y-120352000D01*
X140199000Y-109107000D02*
X140199000Y-120393000D01*
X140239000Y-109066000D02*
X140239000Y-120434000D01*
X140279000Y-109026000D02*
X140279000Y-120474000D01*
X140319000Y-108987000D02*
X140319000Y-120513000D01*
X140359000Y-108948000D02*
X140359000Y-120552000D01*
X140399000Y-108910000D02*
X140399000Y-120590000D01*
X140439000Y-108872000D02*
X140439000Y-120628000D01*
X140479000Y-108834000D02*
X140479000Y-120666000D01*
X140519000Y-108798000D02*
X140519000Y-120702000D01*
X140559000Y-108761000D02*
X140559000Y-120739000D01*
X140599000Y-108725000D02*
X140599000Y-120775000D01*
X140639000Y-108690000D02*
X140639000Y-120810000D01*
X140679000Y-108655000D02*
X140679000Y-120845000D01*
X140719000Y-108621000D02*
X140719000Y-120879000D01*
X140759000Y-108587000D02*
X140759000Y-120913000D01*
X140799000Y-108553000D02*
X140799000Y-120947000D01*
X140839000Y-116190000D02*
X140839000Y-120980000D01*
X140839000Y-108520000D02*
X140839000Y-113310000D01*
X140879000Y-116190000D02*
X140879000Y-121013000D01*
X140879000Y-108487000D02*
X140879000Y-113310000D01*
X140919000Y-116190000D02*
X140919000Y-121045000D01*
X140919000Y-108455000D02*
X140919000Y-113310000D01*
X140959000Y-116190000D02*
X140959000Y-121077000D01*
X140959000Y-108423000D02*
X140959000Y-113310000D01*
X140999000Y-116190000D02*
X140999000Y-121108000D01*
X140999000Y-108392000D02*
X140999000Y-113310000D01*
X141039000Y-116190000D02*
X141039000Y-121140000D01*
X141039000Y-108360000D02*
X141039000Y-113310000D01*
X141079000Y-116190000D02*
X141079000Y-121170000D01*
X141079000Y-108330000D02*
X141079000Y-113310000D01*
X141119000Y-116190000D02*
X141119000Y-121200000D01*
X141119000Y-108300000D02*
X141119000Y-113310000D01*
X141159000Y-116190000D02*
X141159000Y-121230000D01*
X141159000Y-108270000D02*
X141159000Y-113310000D01*
X141199000Y-116190000D02*
X141199000Y-121260000D01*
X141199000Y-108240000D02*
X141199000Y-113310000D01*
X141239000Y-116190000D02*
X141239000Y-121289000D01*
X141239000Y-108211000D02*
X141239000Y-113310000D01*
X141279000Y-116190000D02*
X141279000Y-121318000D01*
X141279000Y-108182000D02*
X141279000Y-113310000D01*
X141319000Y-116190000D02*
X141319000Y-121346000D01*
X141319000Y-108154000D02*
X141319000Y-113310000D01*
X141359000Y-116190000D02*
X141359000Y-121374000D01*
X141359000Y-108126000D02*
X141359000Y-113310000D01*
X141399000Y-116190000D02*
X141399000Y-121402000D01*
X141399000Y-108098000D02*
X141399000Y-113310000D01*
X141439000Y-116190000D02*
X141439000Y-121429000D01*
X141439000Y-108071000D02*
X141439000Y-113310000D01*
X141479000Y-116190000D02*
X141479000Y-121456000D01*
X141479000Y-108044000D02*
X141479000Y-113310000D01*
X141519000Y-116190000D02*
X141519000Y-121483000D01*
X141519000Y-108017000D02*
X141519000Y-113310000D01*
X141559000Y-116190000D02*
X141559000Y-121509000D01*
X141559000Y-107991000D02*
X141559000Y-113310000D01*
X141599000Y-116190000D02*
X141599000Y-121535000D01*
X141599000Y-107965000D02*
X141599000Y-113310000D01*
X141639000Y-116190000D02*
X141639000Y-121561000D01*
X141639000Y-107939000D02*
X141639000Y-113310000D01*
X141679000Y-116190000D02*
X141679000Y-121586000D01*
X141679000Y-107914000D02*
X141679000Y-113310000D01*
X141719000Y-116190000D02*
X141719000Y-121611000D01*
X141719000Y-107889000D02*
X141719000Y-113310000D01*
X141759000Y-116190000D02*
X141759000Y-121636000D01*
X141759000Y-107864000D02*
X141759000Y-113310000D01*
X141799000Y-116190000D02*
X141799000Y-121660000D01*
X141799000Y-107840000D02*
X141799000Y-113310000D01*
X141839000Y-116190000D02*
X141839000Y-121684000D01*
X141839000Y-107816000D02*
X141839000Y-113310000D01*
X141879000Y-116190000D02*
X141879000Y-121708000D01*
X141879000Y-107792000D02*
X141879000Y-113310000D01*
X141919000Y-116190000D02*
X141919000Y-121731000D01*
X141919000Y-107769000D02*
X141919000Y-113310000D01*
X141959000Y-116190000D02*
X141959000Y-121754000D01*
X141959000Y-107746000D02*
X141959000Y-113310000D01*
X141999000Y-116190000D02*
X141999000Y-121777000D01*
X141999000Y-107723000D02*
X141999000Y-113310000D01*
X142039000Y-116190000D02*
X142039000Y-121799000D01*
X142039000Y-107701000D02*
X142039000Y-113310000D01*
X142079000Y-116190000D02*
X142079000Y-121822000D01*
X142079000Y-107678000D02*
X142079000Y-113310000D01*
X142119000Y-116190000D02*
X142119000Y-121844000D01*
X142119000Y-107656000D02*
X142119000Y-113310000D01*
X142159000Y-116190000D02*
X142159000Y-121865000D01*
X142159000Y-107635000D02*
X142159000Y-113310000D01*
X142199000Y-116190000D02*
X142199000Y-121886000D01*
X142199000Y-107614000D02*
X142199000Y-113310000D01*
X142239000Y-116190000D02*
X142239000Y-121907000D01*
X142239000Y-107593000D02*
X142239000Y-113310000D01*
X142279000Y-116190000D02*
X142279000Y-121928000D01*
X142279000Y-107572000D02*
X142279000Y-113310000D01*
X142319000Y-116190000D02*
X142319000Y-121949000D01*
X142319000Y-107551000D02*
X142319000Y-113310000D01*
X142359000Y-116190000D02*
X142359000Y-121969000D01*
X142359000Y-107531000D02*
X142359000Y-113310000D01*
X142399000Y-116190000D02*
X142399000Y-121989000D01*
X142399000Y-107511000D02*
X142399000Y-113310000D01*
X142439000Y-116190000D02*
X142439000Y-122008000D01*
X142439000Y-107492000D02*
X142439000Y-113310000D01*
X142479000Y-116190000D02*
X142479000Y-122028000D01*
X142479000Y-107472000D02*
X142479000Y-113310000D01*
X142519000Y-116190000D02*
X142519000Y-122047000D01*
X142519000Y-107453000D02*
X142519000Y-113310000D01*
X142559000Y-116190000D02*
X142559000Y-122066000D01*
X142559000Y-107434000D02*
X142559000Y-113310000D01*
X142599000Y-116190000D02*
X142599000Y-122084000D01*
X142599000Y-107416000D02*
X142599000Y-113310000D01*
X142639000Y-116190000D02*
X142639000Y-122103000D01*
X142639000Y-107397000D02*
X142639000Y-113310000D01*
X142679000Y-116190000D02*
X142679000Y-122121000D01*
X142679000Y-107379000D02*
X142679000Y-113310000D01*
X142719000Y-116190000D02*
X142719000Y-122139000D01*
X142719000Y-107361000D02*
X142719000Y-113310000D01*
X142759000Y-116190000D02*
X142759000Y-122156000D01*
X142759000Y-107344000D02*
X142759000Y-113310000D01*
X142799000Y-116190000D02*
X142799000Y-122173000D01*
X142799000Y-107327000D02*
X142799000Y-113310000D01*
X142839000Y-116190000D02*
X142839000Y-122190000D01*
X142839000Y-107310000D02*
X142839000Y-113310000D01*
X142879000Y-116190000D02*
X142879000Y-122207000D01*
X142879000Y-107293000D02*
X142879000Y-113310000D01*
X142919000Y-116190000D02*
X142919000Y-122224000D01*
X142919000Y-107276000D02*
X142919000Y-113310000D01*
X142959000Y-116190000D02*
X142959000Y-122240000D01*
X142959000Y-107260000D02*
X142959000Y-113310000D01*
X142999000Y-116190000D02*
X142999000Y-122256000D01*
X142999000Y-107244000D02*
X142999000Y-113310000D01*
X143039000Y-116190000D02*
X143039000Y-122272000D01*
X143039000Y-107228000D02*
X143039000Y-113310000D01*
X143079000Y-116190000D02*
X143079000Y-122287000D01*
X143079000Y-107213000D02*
X143079000Y-113310000D01*
X143119000Y-116190000D02*
X143119000Y-122303000D01*
X143119000Y-107197000D02*
X143119000Y-113310000D01*
X143159000Y-116190000D02*
X143159000Y-122318000D01*
X143159000Y-107182000D02*
X143159000Y-113310000D01*
X143199000Y-116190000D02*
X143199000Y-122332000D01*
X143199000Y-107168000D02*
X143199000Y-113310000D01*
X143239000Y-116190000D02*
X143239000Y-122347000D01*
X143239000Y-107153000D02*
X143239000Y-113310000D01*
X143279000Y-116190000D02*
X143279000Y-122361000D01*
X143279000Y-107139000D02*
X143279000Y-113310000D01*
X143319000Y-116190000D02*
X143319000Y-122375000D01*
X143319000Y-107125000D02*
X143319000Y-113310000D01*
X143359000Y-116190000D02*
X143359000Y-122389000D01*
X143359000Y-107111000D02*
X143359000Y-113310000D01*
X143399000Y-116190000D02*
X143399000Y-122403000D01*
X143399000Y-107097000D02*
X143399000Y-113310000D01*
X143439000Y-116190000D02*
X143439000Y-122416000D01*
X143439000Y-107084000D02*
X143439000Y-113310000D01*
X143479000Y-116190000D02*
X143479000Y-122430000D01*
X143479000Y-107070000D02*
X143479000Y-113310000D01*
X143519000Y-116190000D02*
X143519000Y-122443000D01*
X143519000Y-107057000D02*
X143519000Y-113310000D01*
X143559000Y-116190000D02*
X143559000Y-122455000D01*
X143559000Y-107045000D02*
X143559000Y-113310000D01*
X143599000Y-116190000D02*
X143599000Y-122468000D01*
X143599000Y-107032000D02*
X143599000Y-113310000D01*
X143639000Y-116190000D02*
X143639000Y-122480000D01*
X143639000Y-107020000D02*
X143639000Y-113310000D01*
X143679000Y-116190000D02*
X143679000Y-122492000D01*
X143679000Y-107008000D02*
X143679000Y-113310000D01*
X143719000Y-106996000D02*
X143719000Y-122504000D01*
X143759000Y-106985000D02*
X143759000Y-122515000D01*
X143799000Y-106973000D02*
X143799000Y-122527000D01*
X143839000Y-106962000D02*
X143839000Y-122538000D01*
X143879000Y-106951000D02*
X143879000Y-122549000D01*
X143919000Y-106940000D02*
X143919000Y-122560000D01*
X143959000Y-106930000D02*
X143959000Y-122570000D01*
X143999000Y-106920000D02*
X143999000Y-122580000D01*
X144039000Y-106910000D02*
X144039000Y-122590000D01*
X144079000Y-106900000D02*
X144079000Y-122600000D01*
X144119000Y-106890000D02*
X144119000Y-122610000D01*
X144159000Y-106881000D02*
X144159000Y-122619000D01*
X144199000Y-106872000D02*
X144199000Y-122628000D01*
X144239000Y-106863000D02*
X144239000Y-122637000D01*
X144279000Y-106854000D02*
X144279000Y-122646000D01*
X144319000Y-106845000D02*
X144319000Y-122655000D01*
X144359000Y-106837000D02*
X144359000Y-122663000D01*
X144399000Y-106829000D02*
X144399000Y-122671000D01*
X144439000Y-106821000D02*
X144439000Y-122679000D01*
X144479000Y-106813000D02*
X144479000Y-122687000D01*
X144519000Y-106806000D02*
X144519000Y-122694000D01*
X144559000Y-106798000D02*
X144559000Y-122702000D01*
X144599000Y-106791000D02*
X144599000Y-122709000D01*
X144639000Y-106784000D02*
X144639000Y-122716000D01*
X144679000Y-106778000D02*
X144679000Y-122722000D01*
X144719000Y-106771000D02*
X144719000Y-122729000D01*
X144759000Y-106765000D02*
X144759000Y-122735000D01*
X144799000Y-106759000D02*
X144799000Y-122741000D01*
X144839000Y-106753000D02*
X144839000Y-122747000D01*
X144879000Y-106747000D02*
X144879000Y-122753000D01*
X144919000Y-106742000D02*
X144919000Y-122758000D01*
X144959000Y-106736000D02*
X144959000Y-122764000D01*
X144999000Y-106731000D02*
X144999000Y-122769000D01*
X145039000Y-106726000D02*
X145039000Y-122774000D01*
X145079000Y-106722000D02*
X145079000Y-122778000D01*
X145119000Y-106717000D02*
X145119000Y-122783000D01*
X145159000Y-106713000D02*
X145159000Y-122787000D01*
X145199000Y-106709000D02*
X145199000Y-122791000D01*
X145239000Y-106705000D02*
X145239000Y-122795000D01*
X145279000Y-106701000D02*
X145279000Y-122799000D01*
X145320000Y-106698000D02*
X145320000Y-122802000D01*
X145360000Y-106695000D02*
X145360000Y-122805000D01*
X145400000Y-106692000D02*
X145400000Y-122808000D01*
X145440000Y-106689000D02*
X145440000Y-122811000D01*
X145480000Y-106686000D02*
X145480000Y-122814000D01*
X145520000Y-106684000D02*
X145520000Y-122816000D01*
X145560000Y-106681000D02*
X145560000Y-122819000D01*
X145600000Y-106679000D02*
X145600000Y-122821000D01*
X145640000Y-106677000D02*
X145640000Y-122823000D01*
X145680000Y-106676000D02*
X145680000Y-122824000D01*
X145720000Y-106674000D02*
X145720000Y-122826000D01*
X145760000Y-106673000D02*
X145760000Y-122827000D01*
X145800000Y-106672000D02*
X145800000Y-122828000D01*
X145840000Y-106671000D02*
X145840000Y-122829000D01*
X145880000Y-106670000D02*
X145880000Y-122830000D01*
X145920000Y-106670000D02*
X145920000Y-122830000D01*
X145960000Y-106670000D02*
X145960000Y-122830000D01*
X146000000Y-106669000D02*
X146000000Y-122831000D01*
X154120000Y-114750000D02*
G75*
G03*
X154120000Y-114750000I-8120000J0D01*
G01*
X70155000Y-65220000D02*
X70155000Y-66550000D01*
X71485000Y-65220000D02*
X70155000Y-65220000D01*
X70155000Y-67820000D02*
X70155000Y-70420000D01*
X72755000Y-67820000D02*
X70155000Y-67820000D01*
X72755000Y-65220000D02*
X72755000Y-67820000D01*
X70155000Y-70420000D02*
X90595000Y-70420000D01*
X72755000Y-65220000D02*
X90595000Y-65220000D01*
X90595000Y-65220000D02*
X90595000Y-70420000D01*
X105080000Y-149580000D02*
X105080000Y-148250000D01*
X103750000Y-149580000D02*
X105080000Y-149580000D01*
X105080000Y-146980000D02*
X105080000Y-144380000D01*
X102480000Y-146980000D02*
X105080000Y-146980000D01*
X102480000Y-149580000D02*
X102480000Y-146980000D01*
X105080000Y-144380000D02*
X92260000Y-144380000D01*
X102480000Y-149580000D02*
X92260000Y-149580000D01*
X92260000Y-149580000D02*
X92260000Y-144380000D01*
X153889491Y-75145000D02*
X153889491Y-76745000D01*
X154689491Y-75945000D02*
X153089491Y-75945000D01*
X137919000Y-79735000D02*
X137919000Y-81265000D01*
X137959000Y-79402000D02*
X137959000Y-81598000D01*
X137999000Y-79149000D02*
X137999000Y-81851000D01*
X138039000Y-78936000D02*
X138039000Y-82064000D01*
X138079000Y-78748000D02*
X138079000Y-82252000D01*
X138119000Y-78580000D02*
X138119000Y-82420000D01*
X138159000Y-78426000D02*
X138159000Y-82574000D01*
X138199000Y-78282000D02*
X138199000Y-82718000D01*
X138239000Y-78149000D02*
X138239000Y-82851000D01*
X138279000Y-78022000D02*
X138279000Y-82978000D01*
X138319000Y-77903000D02*
X138319000Y-83097000D01*
X138359000Y-77789000D02*
X138359000Y-83211000D01*
X138399000Y-77680000D02*
X138399000Y-83320000D01*
X138439000Y-77576000D02*
X138439000Y-83424000D01*
X138479000Y-77476000D02*
X138479000Y-83524000D01*
X138519000Y-77380000D02*
X138519000Y-83620000D01*
X138559000Y-77287000D02*
X138559000Y-83713000D01*
X138599000Y-77197000D02*
X138599000Y-83803000D01*
X138639000Y-77110000D02*
X138639000Y-83890000D01*
X138679000Y-77025000D02*
X138679000Y-83975000D01*
X138719000Y-76943000D02*
X138719000Y-84057000D01*
X138759000Y-76863000D02*
X138759000Y-84137000D01*
X138799000Y-76785000D02*
X138799000Y-84215000D01*
X138839000Y-76710000D02*
X138839000Y-84290000D01*
X138879000Y-76636000D02*
X138879000Y-84364000D01*
X138919000Y-76564000D02*
X138919000Y-84436000D01*
X138959000Y-76493000D02*
X138959000Y-84507000D01*
X138999000Y-76424000D02*
X138999000Y-84576000D01*
X139039000Y-76357000D02*
X139039000Y-84643000D01*
X139079000Y-76291000D02*
X139079000Y-84709000D01*
X139119000Y-76227000D02*
X139119000Y-84773000D01*
X139159000Y-76164000D02*
X139159000Y-84836000D01*
X139199000Y-76102000D02*
X139199000Y-84898000D01*
X139239000Y-76041000D02*
X139239000Y-84959000D01*
X139279000Y-75981000D02*
X139279000Y-85019000D01*
X139319000Y-75923000D02*
X139319000Y-85077000D01*
X139359000Y-75866000D02*
X139359000Y-85134000D01*
X139399000Y-75809000D02*
X139399000Y-85191000D01*
X139439000Y-75754000D02*
X139439000Y-85246000D01*
X139479000Y-75700000D02*
X139479000Y-85300000D01*
X139519000Y-75646000D02*
X139519000Y-85354000D01*
X139559000Y-75594000D02*
X139559000Y-85406000D01*
X139599000Y-75542000D02*
X139599000Y-85458000D01*
X139639000Y-75491000D02*
X139639000Y-85509000D01*
X139679000Y-75441000D02*
X139679000Y-85559000D01*
X139719000Y-75392000D02*
X139719000Y-85608000D01*
X139759000Y-75344000D02*
X139759000Y-85656000D01*
X139799000Y-75296000D02*
X139799000Y-85704000D01*
X139839000Y-75249000D02*
X139839000Y-85751000D01*
X139879000Y-75203000D02*
X139879000Y-85797000D01*
X139919000Y-75157000D02*
X139919000Y-85843000D01*
X139959000Y-75112000D02*
X139959000Y-85888000D01*
X139999000Y-75068000D02*
X139999000Y-85932000D01*
X140039000Y-75025000D02*
X140039000Y-85975000D01*
X140079000Y-74982000D02*
X140079000Y-86018000D01*
X140119000Y-74940000D02*
X140119000Y-86060000D01*
X140159000Y-74898000D02*
X140159000Y-86102000D01*
X140199000Y-74857000D02*
X140199000Y-86143000D01*
X140239000Y-74816000D02*
X140239000Y-86184000D01*
X140279000Y-74776000D02*
X140279000Y-86224000D01*
X140319000Y-74737000D02*
X140319000Y-86263000D01*
X140359000Y-74698000D02*
X140359000Y-86302000D01*
X140399000Y-74660000D02*
X140399000Y-86340000D01*
X140439000Y-74622000D02*
X140439000Y-86378000D01*
X140479000Y-74584000D02*
X140479000Y-86416000D01*
X140519000Y-74548000D02*
X140519000Y-86452000D01*
X140559000Y-74511000D02*
X140559000Y-86489000D01*
X140599000Y-74475000D02*
X140599000Y-86525000D01*
X140639000Y-74440000D02*
X140639000Y-86560000D01*
X140679000Y-74405000D02*
X140679000Y-86595000D01*
X140719000Y-74371000D02*
X140719000Y-86629000D01*
X140759000Y-74337000D02*
X140759000Y-86663000D01*
X140799000Y-74303000D02*
X140799000Y-86697000D01*
X140839000Y-81940000D02*
X140839000Y-86730000D01*
X140839000Y-74270000D02*
X140839000Y-79060000D01*
X140879000Y-81940000D02*
X140879000Y-86763000D01*
X140879000Y-74237000D02*
X140879000Y-79060000D01*
X140919000Y-81940000D02*
X140919000Y-86795000D01*
X140919000Y-74205000D02*
X140919000Y-79060000D01*
X140959000Y-81940000D02*
X140959000Y-86827000D01*
X140959000Y-74173000D02*
X140959000Y-79060000D01*
X140999000Y-81940000D02*
X140999000Y-86858000D01*
X140999000Y-74142000D02*
X140999000Y-79060000D01*
X141039000Y-81940000D02*
X141039000Y-86890000D01*
X141039000Y-74110000D02*
X141039000Y-79060000D01*
X141079000Y-81940000D02*
X141079000Y-86920000D01*
X141079000Y-74080000D02*
X141079000Y-79060000D01*
X141119000Y-81940000D02*
X141119000Y-86950000D01*
X141119000Y-74050000D02*
X141119000Y-79060000D01*
X141159000Y-81940000D02*
X141159000Y-86980000D01*
X141159000Y-74020000D02*
X141159000Y-79060000D01*
X141199000Y-81940000D02*
X141199000Y-87010000D01*
X141199000Y-73990000D02*
X141199000Y-79060000D01*
X141239000Y-81940000D02*
X141239000Y-87039000D01*
X141239000Y-73961000D02*
X141239000Y-79060000D01*
X141279000Y-81940000D02*
X141279000Y-87068000D01*
X141279000Y-73932000D02*
X141279000Y-79060000D01*
X141319000Y-81940000D02*
X141319000Y-87096000D01*
X141319000Y-73904000D02*
X141319000Y-79060000D01*
X141359000Y-81940000D02*
X141359000Y-87124000D01*
X141359000Y-73876000D02*
X141359000Y-79060000D01*
X141399000Y-81940000D02*
X141399000Y-87152000D01*
X141399000Y-73848000D02*
X141399000Y-79060000D01*
X141439000Y-81940000D02*
X141439000Y-87179000D01*
X141439000Y-73821000D02*
X141439000Y-79060000D01*
X141479000Y-81940000D02*
X141479000Y-87206000D01*
X141479000Y-73794000D02*
X141479000Y-79060000D01*
X141519000Y-81940000D02*
X141519000Y-87233000D01*
X141519000Y-73767000D02*
X141519000Y-79060000D01*
X141559000Y-81940000D02*
X141559000Y-87259000D01*
X141559000Y-73741000D02*
X141559000Y-79060000D01*
X141599000Y-81940000D02*
X141599000Y-87285000D01*
X141599000Y-73715000D02*
X141599000Y-79060000D01*
X141639000Y-81940000D02*
X141639000Y-87311000D01*
X141639000Y-73689000D02*
X141639000Y-79060000D01*
X141679000Y-81940000D02*
X141679000Y-87336000D01*
X141679000Y-73664000D02*
X141679000Y-79060000D01*
X141719000Y-81940000D02*
X141719000Y-87361000D01*
X141719000Y-73639000D02*
X141719000Y-79060000D01*
X141759000Y-81940000D02*
X141759000Y-87386000D01*
X141759000Y-73614000D02*
X141759000Y-79060000D01*
X141799000Y-81940000D02*
X141799000Y-87410000D01*
X141799000Y-73590000D02*
X141799000Y-79060000D01*
X141839000Y-81940000D02*
X141839000Y-87434000D01*
X141839000Y-73566000D02*
X141839000Y-79060000D01*
X141879000Y-81940000D02*
X141879000Y-87458000D01*
X141879000Y-73542000D02*
X141879000Y-79060000D01*
X141919000Y-81940000D02*
X141919000Y-87481000D01*
X141919000Y-73519000D02*
X141919000Y-79060000D01*
X141959000Y-81940000D02*
X141959000Y-87504000D01*
X141959000Y-73496000D02*
X141959000Y-79060000D01*
X141999000Y-81940000D02*
X141999000Y-87527000D01*
X141999000Y-73473000D02*
X141999000Y-79060000D01*
X142039000Y-81940000D02*
X142039000Y-87549000D01*
X142039000Y-73451000D02*
X142039000Y-79060000D01*
X142079000Y-81940000D02*
X142079000Y-87572000D01*
X142079000Y-73428000D02*
X142079000Y-79060000D01*
X142119000Y-81940000D02*
X142119000Y-87594000D01*
X142119000Y-73406000D02*
X142119000Y-79060000D01*
X142159000Y-81940000D02*
X142159000Y-87615000D01*
X142159000Y-73385000D02*
X142159000Y-79060000D01*
X142199000Y-81940000D02*
X142199000Y-87636000D01*
X142199000Y-73364000D02*
X142199000Y-79060000D01*
X142239000Y-81940000D02*
X142239000Y-87657000D01*
X142239000Y-73343000D02*
X142239000Y-79060000D01*
X142279000Y-81940000D02*
X142279000Y-87678000D01*
X142279000Y-73322000D02*
X142279000Y-79060000D01*
X142319000Y-81940000D02*
X142319000Y-87699000D01*
X142319000Y-73301000D02*
X142319000Y-79060000D01*
X142359000Y-81940000D02*
X142359000Y-87719000D01*
X142359000Y-73281000D02*
X142359000Y-79060000D01*
X142399000Y-81940000D02*
X142399000Y-87739000D01*
X142399000Y-73261000D02*
X142399000Y-79060000D01*
X142439000Y-81940000D02*
X142439000Y-87758000D01*
X142439000Y-73242000D02*
X142439000Y-79060000D01*
X142479000Y-81940000D02*
X142479000Y-87778000D01*
X142479000Y-73222000D02*
X142479000Y-79060000D01*
X142519000Y-81940000D02*
X142519000Y-87797000D01*
X142519000Y-73203000D02*
X142519000Y-79060000D01*
X142559000Y-81940000D02*
X142559000Y-87816000D01*
X142559000Y-73184000D02*
X142559000Y-79060000D01*
X142599000Y-81940000D02*
X142599000Y-87834000D01*
X142599000Y-73166000D02*
X142599000Y-79060000D01*
X142639000Y-81940000D02*
X142639000Y-87853000D01*
X142639000Y-73147000D02*
X142639000Y-79060000D01*
X142679000Y-81940000D02*
X142679000Y-87871000D01*
X142679000Y-73129000D02*
X142679000Y-79060000D01*
X142719000Y-81940000D02*
X142719000Y-87889000D01*
X142719000Y-73111000D02*
X142719000Y-79060000D01*
X142759000Y-81940000D02*
X142759000Y-87906000D01*
X142759000Y-73094000D02*
X142759000Y-79060000D01*
X142799000Y-81940000D02*
X142799000Y-87923000D01*
X142799000Y-73077000D02*
X142799000Y-79060000D01*
X142839000Y-81940000D02*
X142839000Y-87940000D01*
X142839000Y-73060000D02*
X142839000Y-79060000D01*
X142879000Y-81940000D02*
X142879000Y-87957000D01*
X142879000Y-73043000D02*
X142879000Y-79060000D01*
X142919000Y-81940000D02*
X142919000Y-87974000D01*
X142919000Y-73026000D02*
X142919000Y-79060000D01*
X142959000Y-81940000D02*
X142959000Y-87990000D01*
X142959000Y-73010000D02*
X142959000Y-79060000D01*
X142999000Y-81940000D02*
X142999000Y-88006000D01*
X142999000Y-72994000D02*
X142999000Y-79060000D01*
X143039000Y-81940000D02*
X143039000Y-88022000D01*
X143039000Y-72978000D02*
X143039000Y-79060000D01*
X143079000Y-81940000D02*
X143079000Y-88037000D01*
X143079000Y-72963000D02*
X143079000Y-79060000D01*
X143119000Y-81940000D02*
X143119000Y-88053000D01*
X143119000Y-72947000D02*
X143119000Y-79060000D01*
X143159000Y-81940000D02*
X143159000Y-88068000D01*
X143159000Y-72932000D02*
X143159000Y-79060000D01*
X143199000Y-81940000D02*
X143199000Y-88082000D01*
X143199000Y-72918000D02*
X143199000Y-79060000D01*
X143239000Y-81940000D02*
X143239000Y-88097000D01*
X143239000Y-72903000D02*
X143239000Y-79060000D01*
X143279000Y-81940000D02*
X143279000Y-88111000D01*
X143279000Y-72889000D02*
X143279000Y-79060000D01*
X143319000Y-81940000D02*
X143319000Y-88125000D01*
X143319000Y-72875000D02*
X143319000Y-79060000D01*
X143359000Y-81940000D02*
X143359000Y-88139000D01*
X143359000Y-72861000D02*
X143359000Y-79060000D01*
X143399000Y-81940000D02*
X143399000Y-88153000D01*
X143399000Y-72847000D02*
X143399000Y-79060000D01*
X143439000Y-81940000D02*
X143439000Y-88166000D01*
X143439000Y-72834000D02*
X143439000Y-79060000D01*
X143479000Y-81940000D02*
X143479000Y-88180000D01*
X143479000Y-72820000D02*
X143479000Y-79060000D01*
X143519000Y-81940000D02*
X143519000Y-88193000D01*
X143519000Y-72807000D02*
X143519000Y-79060000D01*
X143559000Y-81940000D02*
X143559000Y-88205000D01*
X143559000Y-72795000D02*
X143559000Y-79060000D01*
X143599000Y-81940000D02*
X143599000Y-88218000D01*
X143599000Y-72782000D02*
X143599000Y-79060000D01*
X143639000Y-81940000D02*
X143639000Y-88230000D01*
X143639000Y-72770000D02*
X143639000Y-79060000D01*
X143679000Y-81940000D02*
X143679000Y-88242000D01*
X143679000Y-72758000D02*
X143679000Y-79060000D01*
X143719000Y-72746000D02*
X143719000Y-88254000D01*
X143759000Y-72735000D02*
X143759000Y-88265000D01*
X143799000Y-72723000D02*
X143799000Y-88277000D01*
X143839000Y-72712000D02*
X143839000Y-88288000D01*
X143879000Y-72701000D02*
X143879000Y-88299000D01*
X143919000Y-72690000D02*
X143919000Y-88310000D01*
X143959000Y-72680000D02*
X143959000Y-88320000D01*
X143999000Y-72670000D02*
X143999000Y-88330000D01*
X144039000Y-72660000D02*
X144039000Y-88340000D01*
X144079000Y-72650000D02*
X144079000Y-88350000D01*
X144119000Y-72640000D02*
X144119000Y-88360000D01*
X144159000Y-72631000D02*
X144159000Y-88369000D01*
X144199000Y-72622000D02*
X144199000Y-88378000D01*
X144239000Y-72613000D02*
X144239000Y-88387000D01*
X144279000Y-72604000D02*
X144279000Y-88396000D01*
X144319000Y-72595000D02*
X144319000Y-88405000D01*
X144359000Y-72587000D02*
X144359000Y-88413000D01*
X144399000Y-72579000D02*
X144399000Y-88421000D01*
X144439000Y-72571000D02*
X144439000Y-88429000D01*
X144479000Y-72563000D02*
X144479000Y-88437000D01*
X144519000Y-72556000D02*
X144519000Y-88444000D01*
X144559000Y-72548000D02*
X144559000Y-88452000D01*
X144599000Y-72541000D02*
X144599000Y-88459000D01*
X144639000Y-72534000D02*
X144639000Y-88466000D01*
X144679000Y-72528000D02*
X144679000Y-88472000D01*
X144719000Y-72521000D02*
X144719000Y-88479000D01*
X144759000Y-72515000D02*
X144759000Y-88485000D01*
X144799000Y-72509000D02*
X144799000Y-88491000D01*
X144839000Y-72503000D02*
X144839000Y-88497000D01*
X144879000Y-72497000D02*
X144879000Y-88503000D01*
X144919000Y-72492000D02*
X144919000Y-88508000D01*
X144959000Y-72486000D02*
X144959000Y-88514000D01*
X144999000Y-72481000D02*
X144999000Y-88519000D01*
X145039000Y-72476000D02*
X145039000Y-88524000D01*
X145079000Y-72472000D02*
X145079000Y-88528000D01*
X145119000Y-72467000D02*
X145119000Y-88533000D01*
X145159000Y-72463000D02*
X145159000Y-88537000D01*
X145199000Y-72459000D02*
X145199000Y-88541000D01*
X145239000Y-72455000D02*
X145239000Y-88545000D01*
X145279000Y-72451000D02*
X145279000Y-88549000D01*
X145320000Y-72448000D02*
X145320000Y-88552000D01*
X145360000Y-72445000D02*
X145360000Y-88555000D01*
X145400000Y-72442000D02*
X145400000Y-88558000D01*
X145440000Y-72439000D02*
X145440000Y-88561000D01*
X145480000Y-72436000D02*
X145480000Y-88564000D01*
X145520000Y-72434000D02*
X145520000Y-88566000D01*
X145560000Y-72431000D02*
X145560000Y-88569000D01*
X145600000Y-72429000D02*
X145600000Y-88571000D01*
X145640000Y-72427000D02*
X145640000Y-88573000D01*
X145680000Y-72426000D02*
X145680000Y-88574000D01*
X145720000Y-72424000D02*
X145720000Y-88576000D01*
X145760000Y-72423000D02*
X145760000Y-88577000D01*
X145800000Y-72422000D02*
X145800000Y-88578000D01*
X145840000Y-72421000D02*
X145840000Y-88579000D01*
X145880000Y-72420000D02*
X145880000Y-88580000D01*
X145920000Y-72420000D02*
X145920000Y-88580000D01*
X145960000Y-72420000D02*
X145960000Y-88580000D01*
X146000000Y-72419000D02*
X146000000Y-88581000D01*
X154120000Y-80500000D02*
G75*
G03*
X154120000Y-80500000I-8120000J0D01*
G01*
D13*
X117583333Y-140952380D02*
X117583333Y-141666666D01*
X117630952Y-141809523D01*
X117726190Y-141904761D01*
X117869047Y-141952380D01*
X117964285Y-141952380D01*
X117202380Y-140952380D02*
X116583333Y-140952380D01*
X116916666Y-141333333D01*
X116773809Y-141333333D01*
X116678571Y-141380952D01*
X116630952Y-141428571D01*
X116583333Y-141523809D01*
X116583333Y-141761904D01*
X116630952Y-141857142D01*
X116678571Y-141904761D01*
X116773809Y-141952380D01*
X117059523Y-141952380D01*
X117154761Y-141904761D01*
X117202380Y-141857142D01*
X233892380Y-126261904D02*
X232892380Y-126261904D01*
X232892380Y-126642857D01*
X232940000Y-126738095D01*
X232987619Y-126785714D01*
X233082857Y-126833333D01*
X233225714Y-126833333D01*
X233320952Y-126785714D01*
X233368571Y-126738095D01*
X233416190Y-126642857D01*
X233416190Y-126261904D01*
X233892380Y-127785714D02*
X233892380Y-127214285D01*
X233892380Y-127500000D02*
X232892380Y-127500000D01*
X233035238Y-127404761D01*
X233130476Y-127309523D01*
X233178095Y-127214285D01*
X175262380Y-105666666D02*
X175976666Y-105666666D01*
X176119523Y-105619047D01*
X176214761Y-105523809D01*
X176262380Y-105380952D01*
X176262380Y-105285714D01*
X175262380Y-106047619D02*
X175262380Y-106714285D01*
X176262380Y-106285714D01*
X175262380Y-88726666D02*
X175976666Y-88726666D01*
X176119523Y-88679047D01*
X176214761Y-88583809D01*
X176262380Y-88440952D01*
X176262380Y-88345714D01*
X175262380Y-89631428D02*
X175262380Y-89440952D01*
X175310000Y-89345714D01*
X175357619Y-89298095D01*
X175500476Y-89202857D01*
X175690952Y-89155238D01*
X176071904Y-89155238D01*
X176167142Y-89202857D01*
X176214761Y-89250476D01*
X176262380Y-89345714D01*
X176262380Y-89536190D01*
X176214761Y-89631428D01*
X176167142Y-89679047D01*
X176071904Y-89726666D01*
X175833809Y-89726666D01*
X175738571Y-89679047D01*
X175690952Y-89631428D01*
X175643333Y-89536190D01*
X175643333Y-89345714D01*
X175690952Y-89250476D01*
X175738571Y-89202857D01*
X175833809Y-89155238D01*
X175262380Y-140166666D02*
X175976666Y-140166666D01*
X176119523Y-140119047D01*
X176214761Y-140023809D01*
X176262380Y-139880952D01*
X176262380Y-139785714D01*
X175262380Y-141119047D02*
X175262380Y-140642857D01*
X175738571Y-140595238D01*
X175690952Y-140642857D01*
X175643333Y-140738095D01*
X175643333Y-140976190D01*
X175690952Y-141071428D01*
X175738571Y-141119047D01*
X175833809Y-141166666D01*
X176071904Y-141166666D01*
X176167142Y-141119047D01*
X176214761Y-141071428D01*
X176262380Y-140976190D01*
X176262380Y-140738095D01*
X176214761Y-140642857D01*
X176167142Y-140595238D01*
X175262380Y-123166666D02*
X175976666Y-123166666D01*
X176119523Y-123119047D01*
X176214761Y-123023809D01*
X176262380Y-122880952D01*
X176262380Y-122785714D01*
X175595714Y-124071428D02*
X176262380Y-124071428D01*
X175214761Y-123833333D02*
X175929047Y-123595238D01*
X175929047Y-124214285D01*
X206714285Y-149652380D02*
X206714285Y-148652380D01*
X206333333Y-148652380D01*
X206238095Y-148700000D01*
X206190476Y-148747619D01*
X206142857Y-148842857D01*
X206142857Y-148985714D01*
X206190476Y-149080952D01*
X206238095Y-149128571D01*
X206333333Y-149176190D01*
X206714285Y-149176190D01*
X205761904Y-149604761D02*
X205619047Y-149652380D01*
X205380952Y-149652380D01*
X205285714Y-149604761D01*
X205238095Y-149557142D01*
X205190476Y-149461904D01*
X205190476Y-149366666D01*
X205238095Y-149271428D01*
X205285714Y-149223809D01*
X205380952Y-149176190D01*
X205571428Y-149128571D01*
X205666666Y-149080952D01*
X205714285Y-149033333D01*
X205761904Y-148938095D01*
X205761904Y-148842857D01*
X205714285Y-148747619D01*
X205666666Y-148700000D01*
X205571428Y-148652380D01*
X205333333Y-148652380D01*
X205190476Y-148700000D01*
X204238095Y-149652380D02*
X204809523Y-149652380D01*
X204523809Y-149652380D02*
X204523809Y-148652380D01*
X204619047Y-148795238D01*
X204714285Y-148890476D01*
X204809523Y-148938095D01*
X150392857Y-112607142D02*
X150440476Y-112654761D01*
X150583333Y-112702380D01*
X150678571Y-112702380D01*
X150821428Y-112654761D01*
X150916666Y-112559523D01*
X150964285Y-112464285D01*
X151011904Y-112273809D01*
X151011904Y-112130952D01*
X150964285Y-111940476D01*
X150916666Y-111845238D01*
X150821428Y-111750000D01*
X150678571Y-111702380D01*
X150583333Y-111702380D01*
X150440476Y-111750000D01*
X150392857Y-111797619D01*
X149488095Y-111702380D02*
X149964285Y-111702380D01*
X150011904Y-112178571D01*
X149964285Y-112130952D01*
X149869047Y-112083333D01*
X149630952Y-112083333D01*
X149535714Y-112130952D01*
X149488095Y-112178571D01*
X149440476Y-112273809D01*
X149440476Y-112511904D01*
X149488095Y-112607142D01*
X149535714Y-112654761D01*
X149630952Y-112702380D01*
X149869047Y-112702380D01*
X149964285Y-112654761D01*
X150011904Y-112607142D01*
X149107142Y-111702380D02*
X148488095Y-111702380D01*
X148821428Y-112083333D01*
X148678571Y-112083333D01*
X148583333Y-112130952D01*
X148535714Y-112178571D01*
X148488095Y-112273809D01*
X148488095Y-112511904D01*
X148535714Y-112607142D01*
X148583333Y-112654761D01*
X148678571Y-112702380D01*
X148964285Y-112702380D01*
X149059523Y-112654761D01*
X149107142Y-112607142D01*
X71833333Y-71202380D02*
X71833333Y-71916666D01*
X71880952Y-72059523D01*
X71976190Y-72154761D01*
X72119047Y-72202380D01*
X72214285Y-72202380D01*
X71404761Y-71297619D02*
X71357142Y-71250000D01*
X71261904Y-71202380D01*
X71023809Y-71202380D01*
X70928571Y-71250000D01*
X70880952Y-71297619D01*
X70833333Y-71392857D01*
X70833333Y-71488095D01*
X70880952Y-71630952D01*
X71452380Y-72202380D01*
X70833333Y-72202380D01*
X104083333Y-142702380D02*
X104083333Y-143416666D01*
X104130952Y-143559523D01*
X104226190Y-143654761D01*
X104369047Y-143702380D01*
X104464285Y-143702380D01*
X103083333Y-143702380D02*
X103654761Y-143702380D01*
X103369047Y-143702380D02*
X103369047Y-142702380D01*
X103464285Y-142845238D01*
X103559523Y-142940476D01*
X103654761Y-142988095D01*
X150392857Y-78357142D02*
X150440476Y-78404761D01*
X150583333Y-78452380D01*
X150678571Y-78452380D01*
X150821428Y-78404761D01*
X150916666Y-78309523D01*
X150964285Y-78214285D01*
X151011904Y-78023809D01*
X151011904Y-77880952D01*
X150964285Y-77690476D01*
X150916666Y-77595238D01*
X150821428Y-77500000D01*
X150678571Y-77452380D01*
X150583333Y-77452380D01*
X150440476Y-77500000D01*
X150392857Y-77547619D01*
X149535714Y-77452380D02*
X149726190Y-77452380D01*
X149821428Y-77500000D01*
X149869047Y-77547619D01*
X149964285Y-77690476D01*
X150011904Y-77880952D01*
X150011904Y-78261904D01*
X149964285Y-78357142D01*
X149916666Y-78404761D01*
X149821428Y-78452380D01*
X149630952Y-78452380D01*
X149535714Y-78404761D01*
X149488095Y-78357142D01*
X149440476Y-78261904D01*
X149440476Y-78023809D01*
X149488095Y-77928571D01*
X149535714Y-77880952D01*
X149630952Y-77833333D01*
X149821428Y-77833333D01*
X149916666Y-77880952D01*
X149964285Y-77928571D01*
X150011904Y-78023809D01*
X149107142Y-77452380D02*
X148440476Y-77452380D01*
X148869047Y-78452380D01*
M02*
