G04 #@! TF.GenerationSoftware,KiCad,Pcbnew,(5.1.9)-1*
G04 #@! TF.CreationDate,2021-04-06T09:28:58+02:00*
G04 #@! TF.ProjectId,dsp-amplifier-x4,6473702d-616d-4706-9c69-666965722d78,rev?*
G04 #@! TF.SameCoordinates,Original*
G04 #@! TF.FileFunction,Soldermask,Bot*
G04 #@! TF.FilePolarity,Negative*
%FSLAX46Y46*%
G04 Gerber Fmt 4.6, Leading zero omitted, Abs format (unit mm)*
G04 Created by KiCad (PCBNEW (5.1.9)-1) date 2021-04-06 09:28:58*
%MOMM*%
%LPD*%
G01*
G04 APERTURE LIST*
%ADD10C,0.600000*%
%ADD11C,0.300000*%
%ADD12C,6.000000*%
%ADD13O,1.700000X1.700000*%
%ADD14R,1.700000X1.700000*%
%ADD15R,3.000000X3.000000*%
%ADD16C,3.000000*%
%ADD17C,4.000000*%
%ADD18R,2.500000X2.500000*%
%ADD19C,2.500000*%
%ADD20C,2.400000*%
%ADD21R,2.400000X2.400000*%
%ADD22C,3.400000*%
%ADD23C,1.800000*%
%ADD24C,1.400000*%
%ADD25R,1.400000X1.400000*%
G04 APERTURE END LIST*
D10*
X165857142Y-68214285D02*
X165571428Y-68357142D01*
X165000000Y-68357142D01*
X164714285Y-68214285D01*
X164571428Y-67928571D01*
X164571428Y-67785714D01*
X164714285Y-67500000D01*
X165000000Y-67357142D01*
X165428571Y-67357142D01*
X165714285Y-67214285D01*
X165857142Y-66928571D01*
X165857142Y-66785714D01*
X165714285Y-66500000D01*
X165428571Y-66357142D01*
X165000000Y-66357142D01*
X164714285Y-66500000D01*
X163714285Y-66357142D02*
X162571428Y-66357142D01*
X163285714Y-65357142D02*
X163285714Y-67928571D01*
X163142857Y-68214285D01*
X162857142Y-68357142D01*
X162571428Y-68357142D01*
X160285714Y-68357142D02*
X160285714Y-66785714D01*
X160428571Y-66500000D01*
X160714285Y-66357142D01*
X161285714Y-66357142D01*
X161571428Y-66500000D01*
X160285714Y-68214285D02*
X160571428Y-68357142D01*
X161285714Y-68357142D01*
X161571428Y-68214285D01*
X161714285Y-67928571D01*
X161714285Y-67642857D01*
X161571428Y-67357142D01*
X161285714Y-67214285D01*
X160571428Y-67214285D01*
X160285714Y-67071428D01*
X161571428Y-65357142D02*
X161428571Y-65500000D01*
X161571428Y-65642857D01*
X161714285Y-65500000D01*
X161571428Y-65357142D01*
X161571428Y-65642857D01*
X160428571Y-65357142D02*
X160285714Y-65500000D01*
X160428571Y-65642857D01*
X160571428Y-65500000D01*
X160428571Y-65357142D01*
X160428571Y-65642857D01*
X158857142Y-68357142D02*
X158857142Y-66357142D01*
X158857142Y-66928571D02*
X158714285Y-66642857D01*
X158571428Y-66500000D01*
X158285714Y-66357142D01*
X158000000Y-66357142D01*
X155714285Y-66357142D02*
X155714285Y-68785714D01*
X155857142Y-69071428D01*
X156000000Y-69214285D01*
X156285714Y-69357142D01*
X156714285Y-69357142D01*
X157000000Y-69214285D01*
X155714285Y-68214285D02*
X156000000Y-68357142D01*
X156571428Y-68357142D01*
X156857142Y-68214285D01*
X157000000Y-68071428D01*
X157142857Y-67785714D01*
X157142857Y-66928571D01*
X157000000Y-66642857D01*
X156857142Y-66500000D01*
X156571428Y-66357142D01*
X156000000Y-66357142D01*
X155714285Y-66500000D01*
X153000000Y-68357142D02*
X153000000Y-66785714D01*
X153142857Y-66500000D01*
X153428571Y-66357142D01*
X154000000Y-66357142D01*
X154285714Y-66500000D01*
X153000000Y-68214285D02*
X153285714Y-68357142D01*
X154000000Y-68357142D01*
X154285714Y-68214285D01*
X154428571Y-67928571D01*
X154428571Y-67642857D01*
X154285714Y-67357142D01*
X154000000Y-67214285D01*
X153285714Y-67214285D01*
X153000000Y-67071428D01*
X149571428Y-66357142D02*
X148857142Y-68357142D01*
X148142857Y-66357142D01*
X146428571Y-65357142D02*
X146142857Y-65357142D01*
X145857142Y-65500000D01*
X145714285Y-65642857D01*
X145571428Y-65928571D01*
X145428571Y-66500000D01*
X145428571Y-67214285D01*
X145571428Y-67785714D01*
X145714285Y-68071428D01*
X145857142Y-68214285D01*
X146142857Y-68357142D01*
X146428571Y-68357142D01*
X146714285Y-68214285D01*
X146857142Y-68071428D01*
X147000000Y-67785714D01*
X147142857Y-67214285D01*
X147142857Y-66500000D01*
X147000000Y-65928571D01*
X146857142Y-65642857D01*
X146714285Y-65500000D01*
X146428571Y-65357142D01*
X144142857Y-68071428D02*
X144000000Y-68214285D01*
X144142857Y-68357142D01*
X144285714Y-68214285D01*
X144142857Y-68071428D01*
X144142857Y-68357142D01*
X141142857Y-68357142D02*
X142857142Y-68357142D01*
X142000000Y-68357142D02*
X142000000Y-65357142D01*
X142285714Y-65785714D01*
X142571428Y-66071428D01*
X142857142Y-66214285D01*
D11*
X165035714Y-70678571D02*
X165035714Y-69892857D01*
X165107142Y-69750000D01*
X165250000Y-69678571D01*
X165535714Y-69678571D01*
X165678571Y-69750000D01*
X165035714Y-70607142D02*
X165178571Y-70678571D01*
X165535714Y-70678571D01*
X165678571Y-70607142D01*
X165750000Y-70464285D01*
X165750000Y-70321428D01*
X165678571Y-70178571D01*
X165535714Y-70107142D01*
X165178571Y-70107142D01*
X165035714Y-70035714D01*
X164535714Y-69678571D02*
X163964285Y-69678571D01*
X164321428Y-70678571D02*
X164321428Y-69392857D01*
X164250000Y-69250000D01*
X164107142Y-69178571D01*
X163964285Y-69178571D01*
X162392857Y-69321428D02*
X162321428Y-69250000D01*
X162178571Y-69178571D01*
X161821428Y-69178571D01*
X161678571Y-69250000D01*
X161607142Y-69321428D01*
X161535714Y-69464285D01*
X161535714Y-69607142D01*
X161607142Y-69821428D01*
X162464285Y-70678571D01*
X161535714Y-70678571D01*
X160607142Y-69178571D02*
X160464285Y-69178571D01*
X160321428Y-69250000D01*
X160250000Y-69321428D01*
X160178571Y-69464285D01*
X160107142Y-69750000D01*
X160107142Y-70107142D01*
X160178571Y-70392857D01*
X160250000Y-70535714D01*
X160321428Y-70607142D01*
X160464285Y-70678571D01*
X160607142Y-70678571D01*
X160750000Y-70607142D01*
X160821428Y-70535714D01*
X160892857Y-70392857D01*
X160964285Y-70107142D01*
X160964285Y-69750000D01*
X160892857Y-69464285D01*
X160821428Y-69321428D01*
X160750000Y-69250000D01*
X160607142Y-69178571D01*
X159535714Y-69321428D02*
X159464285Y-69250000D01*
X159321428Y-69178571D01*
X158964285Y-69178571D01*
X158821428Y-69250000D01*
X158750000Y-69321428D01*
X158678571Y-69464285D01*
X158678571Y-69607142D01*
X158750000Y-69821428D01*
X159607142Y-70678571D01*
X158678571Y-70678571D01*
X157250000Y-70678571D02*
X158107142Y-70678571D01*
X157678571Y-70678571D02*
X157678571Y-69178571D01*
X157821428Y-69392857D01*
X157964285Y-69535714D01*
X158107142Y-69607142D01*
D12*
X121750000Y-88750000D03*
X63750000Y-88750000D03*
X63750000Y-137750000D03*
X121750000Y-137750000D03*
D13*
X68620000Y-139020000D03*
X68620000Y-136480000D03*
X71160000Y-139020000D03*
X71160000Y-136480000D03*
X73700000Y-139020000D03*
X73700000Y-136480000D03*
X76240000Y-139020000D03*
X76240000Y-136480000D03*
X78780000Y-139020000D03*
X78780000Y-136480000D03*
X81320000Y-139020000D03*
X81320000Y-136480000D03*
X83860000Y-139020000D03*
X83860000Y-136480000D03*
X86400000Y-139020000D03*
X86400000Y-136480000D03*
X88940000Y-139020000D03*
X88940000Y-136480000D03*
X91480000Y-139020000D03*
X91480000Y-136480000D03*
X94020000Y-139020000D03*
X94020000Y-136480000D03*
X96560000Y-139020000D03*
X96560000Y-136480000D03*
X99100000Y-139020000D03*
X99100000Y-136480000D03*
X101640000Y-139020000D03*
X101640000Y-136480000D03*
X104180000Y-139020000D03*
X104180000Y-136480000D03*
X106720000Y-139020000D03*
X106720000Y-136480000D03*
X109260000Y-139020000D03*
X109260000Y-136480000D03*
X111800000Y-139020000D03*
X111800000Y-136480000D03*
X114340000Y-139020000D03*
X114340000Y-136480000D03*
X116880000Y-139020000D03*
D14*
X116880000Y-136480000D03*
D15*
X237250000Y-130810000D03*
D16*
X237250000Y-123190000D03*
D15*
X172000000Y-102190000D03*
D16*
X172000000Y-109810000D03*
D15*
X172000000Y-85250000D03*
D16*
X172000000Y-92870000D03*
D15*
X172000000Y-136690000D03*
D16*
X172000000Y-144310000D03*
D15*
X172000000Y-119690000D03*
D16*
X172000000Y-127310000D03*
D17*
X190750000Y-67000000D03*
D18*
X226500000Y-143000000D03*
D17*
X185250000Y-67000000D03*
D19*
X219750000Y-143000000D03*
D20*
X142250000Y-114750000D03*
D21*
X149750000Y-114750000D03*
D22*
X89000000Y-75400000D03*
D17*
X94150000Y-77000000D03*
X83850000Y-77000000D03*
D22*
X73000000Y-75400000D03*
D17*
X78150000Y-77000000D03*
X67850000Y-77000000D03*
D23*
X94000000Y-102000000D03*
X94000000Y-104540000D03*
X94000000Y-107080000D03*
X64000000Y-107050000D03*
X64000000Y-104510000D03*
X64000000Y-101970000D03*
D24*
X125750000Y-75500000D03*
D16*
X120980000Y-78210000D03*
D25*
X128250000Y-75500000D03*
D24*
X125750000Y-78700000D03*
X128250000Y-78700000D03*
D16*
X133020000Y-78210000D03*
D13*
X89265000Y-69090000D03*
X89265000Y-66550000D03*
X86725000Y-69090000D03*
X86725000Y-66550000D03*
X84185000Y-69090000D03*
X84185000Y-66550000D03*
X81645000Y-69090000D03*
X81645000Y-66550000D03*
X79105000Y-69090000D03*
X79105000Y-66550000D03*
X76565000Y-69090000D03*
X76565000Y-66550000D03*
X74025000Y-69090000D03*
X74025000Y-66550000D03*
X71485000Y-69090000D03*
D14*
X71485000Y-66550000D03*
D13*
X93590000Y-145710000D03*
X93590000Y-148250000D03*
X96130000Y-145710000D03*
X96130000Y-148250000D03*
X98670000Y-145710000D03*
X98670000Y-148250000D03*
X101210000Y-145710000D03*
X101210000Y-148250000D03*
X103750000Y-145710000D03*
D14*
X103750000Y-148250000D03*
D20*
X142250000Y-80500000D03*
D21*
X149750000Y-80500000D03*
M02*
