M48
; DRILL file {KiCad (5.1.9)-1} date 04/06/21 09:29:01
; FORMAT={-:-/ absolute / inch / decimal}
; #@! TF.CreationDate,2021-04-06T09:29:01+02:00
; #@! TF.GenerationSoftware,Kicad,Pcbnew,(5.1.9)-1
; #@! TF.FileFunction,Plated,1,4,PTH
FMAT,2
INCH
T1C0.0118
T2C0.0157
T3C0.0362
T4C0.0394
T5C0.0472
T6C0.0591
T7C0.0669
T8C0.0787
T9C0.0866
T10C0.0906
T11C0.1299
%
G90
G05
T1
X5.502Y-3.6398
X5.502Y-3.6909
X5.502Y-3.7421
X5.502Y-3.7933
X5.502Y-3.8445
X5.502Y-3.8957
X5.502Y-3.9469
X5.502Y-3.998
X5.502Y-4.0492
X5.502Y-4.9882
X5.502Y-5.0394
X5.502Y-5.0906
X5.502Y-5.1417
X5.502Y-5.1929
X5.502Y-5.2441
X5.502Y-5.2953
X5.502Y-5.3465
X5.502Y-5.3976
X5.561Y-3.6398
X5.561Y-3.6909
X5.561Y-3.7421
X5.561Y-3.7933
X5.561Y-3.8445
X5.561Y-3.8957
X5.561Y-3.9469
X5.561Y-3.998
X5.561Y-4.0492
X5.561Y-4.9882
X5.561Y-5.0394
X5.561Y-5.0906
X5.561Y-5.1417
X5.561Y-5.1929
X5.561Y-5.2441
X5.561Y-5.2953
X5.561Y-5.3465
X5.561Y-5.3976
X5.6201Y-3.6398
X5.6201Y-3.6909
X5.6201Y-3.7421
X5.6201Y-3.7933
X5.6201Y-3.8445
X5.6201Y-3.8957
X5.6201Y-3.9469
X5.6201Y-3.998
X5.6201Y-4.0492
X5.6201Y-4.9882
X5.6201Y-5.0394
X5.6201Y-5.0906
X5.6201Y-5.1417
X5.6201Y-5.1929
X5.6201Y-5.2441
X5.6201Y-5.2953
X5.6201Y-5.3465
X5.6201Y-5.3976
X5.6791Y-3.6398
X5.6791Y-3.6909
X5.6791Y-3.7421
X5.6791Y-3.7933
X5.6791Y-3.8445
X5.6791Y-3.8957
X5.6791Y-3.9469
X5.6791Y-3.998
X5.6791Y-4.0492
X5.6791Y-4.9882
X5.6791Y-5.0394
X5.6791Y-5.0906
X5.6791Y-5.1417
X5.6791Y-5.1929
X5.6791Y-5.2441
X5.6791Y-5.2953
X5.6791Y-5.3465
X5.6791Y-5.3976
T2
X2.8051Y-5.187
X2.9528Y-5.187
X3.248Y-3.376
X3.3563Y-3.376
X3.376Y-4.5177
X3.376Y-4.6752
X3.4547Y-4.8622
X3.4646Y-4.7736
X3.563Y-3.5728
X3.5728Y-4.6752
X3.6319Y-3.3268
X3.6516Y-4.7736
X3.6516Y-4.9803
X3.6614Y-4.8622
X3.75Y-5.5906
X3.7795Y-3.9173
X3.7795Y-4.1339
X3.8091Y-4.4291
X3.8091Y-4.7441
X3.8091Y-4.7835
X3.8164Y-3.3735
X3.8386Y-4.5276
X3.8386Y-4.5689
X3.8386Y-4.6161
X3.8681Y-4.2126
X3.8976Y-3.9764
X3.8976Y-4.0748
X3.8976Y-5.128
X3.9026Y-3.44
X3.9282Y-3.4044
X3.9469Y-2.9724
X3.9469Y-4.5571
X3.9469Y-4.6063
X3.9469Y-4.6555
X3.9764Y-3.376
X3.9862Y-3.8386
X3.9862Y-4.4291
X4.0059Y-4.8327
X4.0157Y-5.128
X4.0207Y-3.3317
X4.031Y-4.3745
X4.0551Y-3.435
X4.0551Y-4.7835
X4.065Y-3.6024
X4.0989Y-4.3755
X4.1142Y-2.7657
X4.124Y-3.6024
X4.1535Y-3.9961
X4.1535Y-4.0748
X4.1535Y-5.128
X4.1688Y-4.3745
X4.1732Y-3.6024
X4.1831Y-3.1102
X4.1831Y-5.0394
X4.2367Y-4.3755
X4.2372Y-3.5581
X4.2372Y-4.5768
X4.2618Y-3.5827
X4.2618Y-3.878
X4.2618Y-3.937
X4.2618Y-4.0157
X4.2859Y-3.6078
X4.2913Y-2.8543
X4.2913Y-2.9232
X4.3012Y-3.2087
X4.3012Y-3.7697
X4.3406Y-4.1535
X4.3406Y-4.5374
X4.3504Y-3.0413
X4.3701Y-4.5669
X4.3701Y-4.6949
X4.3996Y-2.6575
X4.3996Y-5.1378
X4.4193Y-4.5669
X4.4291Y-2.9429
X4.4291Y-3.0413
X4.439Y-3.5433
X4.439Y-3.6417
X4.439Y-3.6909
X4.4488Y-5.1378
X4.4685Y-4.5669
X4.4783Y-3.0413
X4.4783Y-3.622
X4.4882Y-3.9272
X4.4882Y-3.9665
X4.4882Y-4.0059
X4.4882Y-4.0453
X4.4882Y-4.0846
X4.4882Y-4.8622
X4.5177Y-2.5984
X4.5177Y-4.5669
X4.5285Y-3.7008
X4.5571Y-3.9764
X4.5571Y-4.0354
X4.5571Y-4.0945
X4.5571Y-4.1535
X4.559Y-4.3288
X4.5659Y-3.7205
X4.5669Y-3.4843
X4.6216Y-4.3361
X4.6358Y-3.1398
X4.6457Y-2.6378
X4.6457Y-3.4547
X4.6752Y-3.6024
X4.6895Y-4.3361
X4.7047Y-4.439
X4.7047Y-2.8346
X4.7047Y-2.9035
X4.7047Y-2.9823
X4.7441Y-4.4783
X4.7736Y-4.2815
X4.7835Y-4.5177
X4.813Y-2.7165
X4.813Y-3.6811
X4.813Y-3.7598
X4.8228Y-4.5571
X4.8622Y-4.2224
X4.9213Y-4.065
X4.9508Y-4.9803
X5.0197Y-4.4783
X5.0689Y-5.3937
X5.1083Y-5.187
X5.1378Y-3.8583
X5.1772Y-3.8976
X5.2067Y-5.561
X5.2165Y-3.8583
X5.2165Y-5.2461
X5.2657Y-5.1969
X5.2657Y-5.2461
X5.315Y-3.9567
X5.3533Y-5.2372
X5.3553Y-3.8967
X5.3642Y-5.7382
X5.3839Y-3.8583
X5.3839Y-3.9272
X5.3839Y-5.1969
X5.3839Y-5.2756
X5.3839Y-5.561
X5.7185Y-3.5925
X5.7185Y-4.9409
X5.7579Y-2.4114
X5.7579Y-2.4508
X5.7579Y-2.4902
X5.7972Y-2.4114
X5.7972Y-2.4508
X5.7972Y-2.4902
X5.8268Y-3.7549
X5.8268Y-3.9341
X5.8268Y-5.1033
X5.8268Y-5.2825
X5.8366Y-2.4114
X5.8366Y-2.4508
X5.8366Y-2.4902
X5.8612Y-3.7451
X5.8612Y-3.9419
X5.8612Y-5.0935
X5.8612Y-5.2904
X5.876Y-2.4114
X5.876Y-2.4508
X5.876Y-2.4902
X5.8858Y-3.7205
X5.8858Y-3.9665
X5.8858Y-5.0689
X5.8858Y-5.315
X6.0433Y-3.6319
X6.0433Y-4.0551
X6.0433Y-4.9803
X6.0433Y-5.4035
X6.0728Y-3.6122
X6.0728Y-4.0748
X6.0728Y-4.9606
X6.0728Y-5.4232
X6.1024Y-3.5925
X6.1024Y-4.0945
X6.1024Y-4.9409
X6.1024Y-5.4429
X6.3976Y-3.5039
X6.3976Y-3.5827
X6.3976Y-4.1043
X6.3976Y-4.1831
X6.3976Y-4.8524
X6.3976Y-4.9311
X6.3976Y-5.4528
X6.3976Y-5.5315
X6.4272Y-3.5433
X6.4272Y-4.1437
X6.4272Y-4.8917
X6.4272Y-5.4921
X6.4567Y-3.5039
X6.4567Y-3.5827
X6.4567Y-4.1043
X6.4567Y-4.1831
X6.4567Y-4.8524
X6.4567Y-4.9311
X6.4567Y-5.4528
X6.4567Y-5.5315
X7.5098Y-3.4941
X7.6969Y-3.7795
X7.7854Y-2.7657
X7.8051Y-3.2677
X7.8051Y-3.3071
X7.8248Y-2.7657
X7.8248Y-3.6122
X7.8642Y-2.7657
X7.8642Y-3.2677
X7.8642Y-3.3071
X7.8642Y-3.6122
X7.8642Y-3.7402
X7.8642Y-3.7795
X7.8642Y-3.8189
X7.8642Y-3.8583
X7.8642Y-3.8976
X7.8642Y-3.937
X7.8642Y-3.9764
X7.8642Y-4.0157
X7.8642Y-4.0551
X7.8642Y-4.0945
X7.8642Y-4.1339
X7.9035Y-2.7657
X7.9035Y-3.6122
X7.9429Y-2.7657
X7.9429Y-3.1988
X7.9429Y-3.6122
X7.9823Y-2.7657
X7.9823Y-3.1988
X8.0217Y-3.1988
X8.0315Y-3.6909
X8.061Y-3.1988
X8.0709Y-3.6909
X8.1102Y-3.6909
X8.1496Y-3.2776
X8.1496Y-3.6909
X8.189Y-3.2776
X8.2283Y-2.7559
X8.2283Y-2.7953
X8.2283Y-2.8346
X8.2283Y-2.874
X8.2283Y-2.9134
X8.2283Y-2.9528
X8.2283Y-2.9921
X8.2283Y-3.0315
X8.2283Y-3.0709
X8.2283Y-3.1102
X8.2283Y-3.1496
X8.2283Y-3.2776
X8.2283Y-3.5827
X8.2283Y-3.622
X8.2677Y-3.2776
X8.2874Y-3.5827
X8.2874Y-3.622
X8.3957Y-3.1102
X8.4843Y-3.6713
X8.5236Y-3.6713
X8.563Y-3.6713
X8.5827Y-3.3858
X8.5827Y-3.4252
X8.6024Y-3.6713
X8.622Y-3.3858
X8.622Y-3.4252
X8.6417Y-3.6713
T3
X4.9508Y-2.9724
X4.9508Y-3.0984
X5.0492Y-2.9724
X5.0492Y-3.0984
T4
X2.5197Y-4.0146
X2.5197Y-4.1146
X2.5197Y-4.2146
X2.7016Y-5.3732
X2.7016Y-5.4732
X2.8016Y-5.3732
X2.8016Y-5.4732
X2.8144Y-2.6201
X2.8144Y-2.7201
X2.9016Y-5.3732
X2.9016Y-5.4732
X2.9144Y-2.6201
X2.9144Y-2.7201
X3.0016Y-5.3732
X3.0016Y-5.4732
X3.0144Y-2.6201
X3.0144Y-2.7201
X3.1016Y-5.3732
X3.1016Y-5.4732
X3.1144Y-2.6201
X3.1144Y-2.7201
X3.2016Y-5.3732
X3.2016Y-5.4732
X3.2144Y-2.6201
X3.2144Y-2.7201
X3.3016Y-5.3732
X3.3016Y-5.4732
X3.3144Y-2.6201
X3.3144Y-2.7201
X3.4016Y-5.3732
X3.4016Y-5.4732
X3.4144Y-2.6201
X3.4144Y-2.7201
X3.5016Y-5.3732
X3.5016Y-5.4732
X3.5144Y-2.6201
X3.5144Y-2.7201
X3.6016Y-5.3732
X3.6016Y-5.4732
X3.6846Y-5.7366
X3.6846Y-5.8366
X3.7008Y-4.0157
X3.7008Y-4.1157
X3.7008Y-4.2157
X3.7016Y-5.3732
X3.7016Y-5.4732
X3.7846Y-5.7366
X3.7846Y-5.8366
X3.8016Y-5.3732
X3.8016Y-5.4732
X3.8846Y-5.7366
X3.8846Y-5.8366
X3.9016Y-5.3732
X3.9016Y-5.4732
X3.9846Y-5.7366
X3.9846Y-5.8366
X4.0016Y-5.3732
X4.0016Y-5.4732
X4.0846Y-5.7366
X4.0846Y-5.8366
X4.1016Y-5.3732
X4.1016Y-5.4732
X4.2016Y-5.3732
X4.2016Y-5.4732
X4.3016Y-5.3732
X4.3016Y-5.4732
X4.4016Y-5.3732
X4.4016Y-5.4732
X4.5016Y-5.3732
X4.5016Y-5.4732
X4.6016Y-5.3732
X4.6016Y-5.4732
T5
X5.6004Y-3.1693
X5.6004Y-4.5177
X5.8957Y-3.1693
X5.8957Y-4.5177
X8.6516Y-5.6299
X8.9173Y-5.6299
T6
X6.7717Y-3.3563
X6.7717Y-3.6563
X6.7717Y-4.0232
X6.7717Y-4.3232
X6.7717Y-4.7122
X6.7717Y-5.0122
X6.7717Y-5.3815
X6.7717Y-5.6815
X9.3406Y-4.85
X9.3406Y-5.15
T7
X2.874Y-2.9685
X3.5039Y-2.9685
T8
X2.6713Y-3.0315
X3.0768Y-3.0315
X3.3012Y-3.0315
X3.7067Y-3.0315
T9
X7.2933Y-2.6378
X7.5098Y-2.6378
T10
X4.763Y-3.0791
X5.237Y-3.0791
T11
X2.5098Y-3.4941
X2.5098Y-5.4232
X2.5591Y-2.5591
X2.5591Y-5.7087
X4.7933Y-3.4941
X4.7933Y-5.4232
X5.7087Y-5.7087
X6.811Y-2.7165
X9.3307Y-2.5591
X9.3307Y-5.7087
T0
M30
