M48
; DRILL file {KiCad (5.1.10)-1} date 05/07/21 16:49:22
; FORMAT={-:-/ absolute / metric / decimal}
; #@! TF.CreationDate,2021-05-07T16:49:22+02:00
; #@! TF.GenerationSoftware,Kicad,Pcbnew,(5.1.10)-1
; #@! TF.FileFunction,Plated,1,4,PTH
FMAT,2
METRIC
T1C0.300
T2C0.400
T3C0.900
T4C0.920
T5C1.000
T6C1.200
T7C1.500
T8C1.700
T9C2.000
T10C2.200
T11C2.300
T12C3.300
%
G90
G05
T1
X139.75Y-92.45
X139.75Y-93.75
X139.75Y-95.05
X139.75Y-96.35
X139.75Y-97.65
X139.75Y-98.95
X139.75Y-100.25
X139.75Y-101.55
X139.75Y-102.85
X139.75Y-126.7
X139.75Y-128.0
X139.75Y-129.3
X139.75Y-130.6
X139.75Y-131.9
X139.75Y-133.2
X139.75Y-134.5
X139.75Y-135.8
X139.75Y-137.1
X141.25Y-92.45
X141.25Y-93.75
X141.25Y-95.05
X141.25Y-96.35
X141.25Y-97.65
X141.25Y-98.95
X141.25Y-100.25
X141.25Y-101.55
X141.25Y-102.85
X141.25Y-126.7
X141.25Y-128.0
X141.25Y-129.3
X141.25Y-130.6
X141.25Y-131.9
X141.25Y-133.2
X141.25Y-134.5
X141.25Y-135.8
X141.25Y-137.1
X142.75Y-92.45
X142.75Y-93.75
X142.75Y-95.05
X142.75Y-96.35
X142.75Y-97.65
X142.75Y-98.95
X142.75Y-100.25
X142.75Y-101.55
X142.75Y-102.85
X142.75Y-126.7
X142.75Y-128.0
X142.75Y-129.3
X142.75Y-130.6
X142.75Y-131.9
X142.75Y-133.2
X142.75Y-134.5
X142.75Y-135.8
X142.75Y-137.1
X144.25Y-92.45
X144.25Y-93.75
X144.25Y-95.05
X144.25Y-96.35
X144.25Y-97.65
X144.25Y-98.95
X144.25Y-100.25
X144.25Y-101.55
X144.25Y-102.85
X144.25Y-126.7
X144.25Y-128.0
X144.25Y-129.3
X144.25Y-130.6
X144.25Y-131.9
X144.25Y-133.2
X144.25Y-134.5
X144.25Y-135.8
X144.25Y-137.1
T2
X71.25Y-130.5
X75.0Y-130.525
X82.5Y-85.75
X85.25Y-85.75
X86.25Y-114.75
X86.25Y-118.75
X88.0Y-123.5
X88.25Y-121.25
X90.5Y-90.75
X91.0Y-128.75
X91.25Y-118.75
X92.25Y-84.5
X92.25Y-121.25
X92.5Y-123.5
X96.0Y-99.5
X96.0Y-105.0
X96.25Y-86.5
X96.75Y-112.5
X96.75Y-120.5
X96.75Y-121.5
X97.25Y-86.5
X97.5Y-115.0
X97.5Y-116.05
X97.5Y-117.25
X98.25Y-81.75
X98.25Y-84.25
X98.25Y-86.5
X98.25Y-107.0
X98.25Y-131.0
X99.0Y-101.0
X99.0Y-103.5
X99.5Y-75.5
X100.25Y-115.75
X100.25Y-117.0
X100.25Y-118.25
X100.5Y-71.0
X101.25Y-84.25
X101.25Y-97.5
X101.25Y-112.5
X101.75Y-122.75
X102.0Y-129.75
X102.125Y-84.625
X102.25Y-86.5
X102.387Y-111.112
X103.0Y-121.5
X103.25Y-86.5
X103.25Y-91.5
X104.112Y-111.137
X104.25Y-86.5
X105.0Y-91.5
X105.25Y-73.25
X105.5Y-101.5
X105.5Y-103.5
X105.75Y-131.25
X105.887Y-111.112
X106.0Y-124.0
X106.0Y-125.25
X106.25Y-79.0
X106.25Y-91.5
X107.25Y-126.75
X107.25Y-90.0
X107.612Y-111.137
X107.625Y-116.25
X108.0Y-90.75
X108.25Y-98.5
X108.25Y-100.0
X108.25Y-102.0
X108.25Y-125.75
X108.75Y-72.5
X108.862Y-91.637
X109.25Y-81.5
X109.25Y-95.75
X110.25Y-99.75
X110.25Y-103.75
X110.25Y-105.5
X110.25Y-115.25
X110.5Y-77.25
X111.25Y-116.0
X111.25Y-119.5
X111.75Y-67.5
X111.75Y-130.5
X112.0Y-77.25
X112.5Y-116.0
X112.75Y-90.0
X112.75Y-92.5
X112.75Y-93.75
X113.0Y-130.5
X113.25Y-72.5
X113.75Y-77.25
X113.75Y-116.0
X114.0Y-99.75
X114.0Y-103.75
X114.0Y-123.5
X114.25Y-92.5
X114.5Y-66.0
X115.0Y-116.0
X115.025Y-94.0
X115.75Y-101.0
X115.75Y-102.5
X115.75Y-104.0
X115.75Y-105.5
X115.975Y-94.5
X116.0Y-88.5
X116.0Y-110.25
X117.387Y-110.137
X117.5Y-66.0
X117.75Y-114.0
X118.0Y-87.75
X118.5Y-91.0
X118.75Y-116.0
X119.0Y-71.5
X119.0Y-73.5
X119.0Y-76.0
X119.0Y-78.0
X119.112Y-110.137
X119.75Y-115.0
X120.75Y-114.0
X121.25Y-108.5
X121.75Y-122.0
X122.0Y-69.0
X122.25Y-93.75
X122.25Y-95.5
X123.5Y-107.0
X125.0Y-103.25
X127.5Y-106.25
X129.75Y-97.5
X129.75Y-131.75
X131.25Y-99.0
X131.25Y-106.5
X131.25Y-108.25
X132.75Y-133.0
X133.0Y-101.0
X133.0Y-99.0
X133.5Y-132.0
X134.25Y-133.0
X135.75Y-133.025
X135.75Y-98.75
X136.25Y-108.25
X136.5Y-97.702
X136.5Y-134.0
X136.525Y-99.75
X136.525Y-132.0
X137.25Y-106.5
X145.25Y-91.25
X145.25Y-125.5
X146.25Y-61.25
X146.25Y-62.25
X146.25Y-63.25
X147.25Y-61.25
X147.25Y-62.25
X147.25Y-63.25
X148.0Y-95.375
X148.0Y-99.925
X148.0Y-129.625
X148.0Y-134.175
X148.25Y-61.25
X148.25Y-62.25
X148.25Y-63.25
X148.875Y-95.125
X148.875Y-100.125
X148.875Y-129.375
X148.875Y-134.375
X149.25Y-61.25
X149.25Y-62.25
X149.25Y-63.25
X149.5Y-94.5
X149.5Y-100.75
X149.5Y-128.75
X149.5Y-135.0
X153.5Y-92.25
X153.5Y-103.0
X153.5Y-126.5
X153.5Y-137.25
X154.25Y-91.75
X154.25Y-103.5
X154.25Y-126.0
X154.25Y-137.75
X155.0Y-91.25
X155.0Y-104.0
X155.0Y-125.5
X155.0Y-138.25
X162.5Y-89.0
X162.5Y-91.0
X162.5Y-104.25
X162.5Y-106.25
X162.5Y-123.25
X162.5Y-125.25
X162.5Y-138.5
X162.5Y-140.5
X163.25Y-90.0
X163.25Y-105.25
X163.25Y-124.25
X163.25Y-139.5
X164.0Y-89.0
X164.0Y-91.0
X164.0Y-104.25
X164.0Y-106.25
X164.0Y-123.25
X164.0Y-125.25
X164.0Y-138.5
X164.0Y-140.5
X190.75Y-88.75
X195.25Y-96.0
X197.75Y-70.25
X198.25Y-83.0
X198.25Y-84.0
X198.75Y-70.25
X198.75Y-91.75
X199.75Y-70.25
X199.75Y-83.0
X199.75Y-84.0
X199.75Y-91.75
X199.75Y-95.0
X199.75Y-96.0
X199.75Y-97.0
X199.75Y-98.0
X199.75Y-99.0
X199.75Y-100.0
X199.75Y-101.0
X199.75Y-102.0
X199.75Y-103.0
X199.75Y-104.0
X199.75Y-105.0
X200.75Y-70.25
X200.75Y-91.75
X201.75Y-70.25
X201.75Y-81.25
X201.75Y-91.75
X202.75Y-70.25
X202.75Y-81.25
X203.75Y-81.25
X204.0Y-93.75
X204.75Y-81.25
X205.0Y-93.75
X206.0Y-93.75
X207.0Y-83.25
X207.0Y-93.75
X208.0Y-83.25
X209.0Y-70.0
X209.0Y-71.0
X209.0Y-72.0
X209.0Y-73.0
X209.0Y-74.0
X209.0Y-75.0
X209.0Y-76.0
X209.0Y-77.0
X209.0Y-78.0
X209.0Y-79.0
X209.0Y-80.0
X209.0Y-83.25
X209.0Y-91.0
X209.0Y-92.0
X210.0Y-83.25
X210.5Y-91.0
X210.5Y-92.0
X213.5Y-79.0
X214.75Y-104.0
X215.5Y-93.25
X215.75Y-104.0
X216.5Y-93.25
X216.75Y-104.0
X217.5Y-93.25
X217.75Y-104.0
X218.0Y-86.0
X218.0Y-87.0
X218.5Y-93.25
X218.75Y-104.0
X219.0Y-86.0
X219.0Y-87.0
X219.5Y-93.25
T3
X115.46Y-145.25
X118.0Y-145.25
X120.54Y-145.25
T4
X126.5Y-74.5
X126.5Y-77.7
X129.0Y-74.5
X129.0Y-77.7
T5
X68.87Y-135.48
X68.87Y-138.02
X71.41Y-135.48
X71.41Y-138.02
X73.95Y-135.48
X73.95Y-138.02
X76.235Y-66.55
X76.235Y-69.09
X76.25Y-102.0
X76.25Y-104.5
X76.25Y-107.0
X76.49Y-135.48
X76.49Y-138.02
X78.775Y-66.55
X78.775Y-69.09
X79.03Y-135.48
X79.03Y-138.02
X81.315Y-66.55
X81.315Y-69.09
X81.57Y-135.48
X81.57Y-138.02
X83.855Y-66.55
X83.855Y-69.09
X84.11Y-135.48
X84.11Y-138.02
X86.395Y-66.55
X86.395Y-69.09
X86.65Y-135.48
X86.65Y-138.02
X88.935Y-66.55
X88.935Y-69.09
X89.19Y-135.48
X89.19Y-138.02
X90.84Y-143.71
X90.84Y-146.25
X91.475Y-66.55
X91.475Y-69.09
X91.73Y-135.48
X91.73Y-138.02
X93.38Y-143.71
X93.38Y-146.25
X94.0Y-102.0
X94.0Y-104.5
X94.0Y-107.0
X94.015Y-66.55
X94.015Y-69.09
X94.27Y-135.48
X94.27Y-138.02
X95.92Y-143.71
X95.92Y-146.25
X96.81Y-135.48
X96.81Y-138.02
X98.46Y-143.71
X98.46Y-146.25
X99.35Y-135.48
X99.35Y-138.02
X101.0Y-143.71
X101.0Y-146.25
X101.89Y-135.48
X101.89Y-138.02
X104.43Y-135.48
X104.43Y-138.02
X106.97Y-135.48
X106.97Y-138.02
X109.51Y-135.48
X109.51Y-138.02
X112.05Y-135.48
X112.05Y-138.02
X114.59Y-135.48
X114.59Y-138.02
X117.13Y-135.48
X117.13Y-138.02
T6
X142.25Y-80.5
X142.25Y-115.5
X149.75Y-80.5
X149.75Y-115.5
X219.75Y-143.0
X226.5Y-143.0
T7
X172.0Y-85.25
X172.0Y-92.87
X172.0Y-102.19
X172.0Y-109.81
X172.0Y-119.69
X172.0Y-127.31
X172.0Y-136.69
X172.0Y-144.31
X237.25Y-123.19
X237.25Y-130.81
T8
X72.0Y-75.4
X89.0Y-75.4
T9
X66.85Y-77.0
X77.15Y-77.0
X83.85Y-77.0
X94.15Y-77.0
T10
X185.25Y-67.0
X190.75Y-67.0
T11
X121.73Y-77.21
X133.77Y-77.21
T12
X64.0Y-87.75
X64.0Y-136.75
X65.0Y-65.0
X65.0Y-145.0
X122.0Y-87.75
X122.0Y-136.75
X145.0Y-145.0
X173.0Y-69.0
X237.0Y-65.0
X237.0Y-145.0
T0
M30
