G04 #@! TF.GenerationSoftware,KiCad,Pcbnew,(5.1.10)-1*
G04 #@! TF.CreationDate,2021-05-07T16:49:04+02:00*
G04 #@! TF.ProjectId,dsp-amplifier-x4,6473702d-616d-4706-9c69-666965722d78,rev?*
G04 #@! TF.SameCoordinates,Original*
G04 #@! TF.FileFunction,Soldermask,Bot*
G04 #@! TF.FilePolarity,Negative*
%FSLAX46Y46*%
G04 Gerber Fmt 4.6, Leading zero omitted, Abs format (unit mm)*
G04 Created by KiCad (PCBNEW (5.1.10)-1) date 2021-05-07 16:49:04*
%MOMM*%
%LPD*%
G01*
G04 APERTURE LIST*
%ADD10C,0.600000*%
%ADD11C,0.300000*%
%ADD12C,1.700000*%
%ADD13R,1.700000X1.700000*%
%ADD14O,1.700000X1.700000*%
%ADD15C,6.000000*%
%ADD16C,1.800000*%
%ADD17C,4.000000*%
%ADD18R,3.000000X3.000000*%
%ADD19C,3.000000*%
%ADD20R,2.500000X2.500000*%
%ADD21C,2.500000*%
%ADD22C,2.400000*%
%ADD23R,2.400000X2.400000*%
%ADD24C,3.400000*%
%ADD25C,1.400000*%
%ADD26R,1.400000X1.400000*%
G04 APERTURE END LIST*
D10*
X166750000Y-69607142D02*
X166750000Y-66607142D01*
X166750000Y-67750000D02*
X166464285Y-67607142D01*
X165892857Y-67607142D01*
X165607142Y-67750000D01*
X165464285Y-67892857D01*
X165321428Y-68178571D01*
X165321428Y-69035714D01*
X165464285Y-69321428D01*
X165607142Y-69464285D01*
X165892857Y-69607142D01*
X166464285Y-69607142D01*
X166750000Y-69464285D01*
X163607142Y-69607142D02*
X163892857Y-69464285D01*
X164035714Y-69178571D01*
X164035714Y-66607142D01*
X161178571Y-67607142D02*
X161178571Y-69607142D01*
X162464285Y-67607142D02*
X162464285Y-69178571D01*
X162321428Y-69464285D01*
X162035714Y-69607142D01*
X161607142Y-69607142D01*
X161321428Y-69464285D01*
X161178571Y-69321428D01*
X159892857Y-69464285D02*
X159607142Y-69607142D01*
X159035714Y-69607142D01*
X158750000Y-69464285D01*
X158607142Y-69178571D01*
X158607142Y-69035714D01*
X158750000Y-68750000D01*
X159035714Y-68607142D01*
X159464285Y-68607142D01*
X159750000Y-68464285D01*
X159892857Y-68178571D01*
X159892857Y-68035714D01*
X159750000Y-67750000D01*
X159464285Y-67607142D01*
X159035714Y-67607142D01*
X158750000Y-67750000D01*
D11*
X166185714Y-71928571D02*
X166185714Y-71142857D01*
X166257142Y-71000000D01*
X166400000Y-70928571D01*
X166685714Y-70928571D01*
X166828571Y-71000000D01*
X166185714Y-71857142D02*
X166328571Y-71928571D01*
X166685714Y-71928571D01*
X166828571Y-71857142D01*
X166900000Y-71714285D01*
X166900000Y-71571428D01*
X166828571Y-71428571D01*
X166685714Y-71357142D01*
X166328571Y-71357142D01*
X166185714Y-71285714D01*
X165685714Y-70928571D02*
X165114285Y-70928571D01*
X165471428Y-71928571D02*
X165471428Y-70642857D01*
X165400000Y-70500000D01*
X165257142Y-70428571D01*
X165114285Y-70428571D01*
X163542857Y-70571428D02*
X163471428Y-70500000D01*
X163328571Y-70428571D01*
X162971428Y-70428571D01*
X162828571Y-70500000D01*
X162757142Y-70571428D01*
X162685714Y-70714285D01*
X162685714Y-70857142D01*
X162757142Y-71071428D01*
X163614285Y-71928571D01*
X162685714Y-71928571D01*
X161757142Y-70428571D02*
X161614285Y-70428571D01*
X161471428Y-70500000D01*
X161400000Y-70571428D01*
X161328571Y-70714285D01*
X161257142Y-71000000D01*
X161257142Y-71357142D01*
X161328571Y-71642857D01*
X161400000Y-71785714D01*
X161471428Y-71857142D01*
X161614285Y-71928571D01*
X161757142Y-71928571D01*
X161900000Y-71857142D01*
X161971428Y-71785714D01*
X162042857Y-71642857D01*
X162114285Y-71357142D01*
X162114285Y-71000000D01*
X162042857Y-70714285D01*
X161971428Y-70571428D01*
X161900000Y-70500000D01*
X161757142Y-70428571D01*
X160685714Y-70571428D02*
X160614285Y-70500000D01*
X160471428Y-70428571D01*
X160114285Y-70428571D01*
X159971428Y-70500000D01*
X159900000Y-70571428D01*
X159828571Y-70714285D01*
X159828571Y-70857142D01*
X159900000Y-71071428D01*
X160757142Y-71928571D01*
X159828571Y-71928571D01*
X158400000Y-71928571D02*
X159257142Y-71928571D01*
X158828571Y-71928571D02*
X158828571Y-70428571D01*
X158971428Y-70642857D01*
X159114285Y-70785714D01*
X159257142Y-70857142D01*
D12*
X94015000Y-69090000D03*
X91475000Y-69090000D03*
X88935000Y-69090000D03*
X86395000Y-69090000D03*
X83855000Y-69090000D03*
X81315000Y-69090000D03*
X78775000Y-69090000D03*
X76235000Y-69090000D03*
X94015000Y-66550000D03*
X91475000Y-66550000D03*
X88935000Y-66550000D03*
X86395000Y-66550000D03*
X83855000Y-66550000D03*
X81315000Y-66550000D03*
X78775000Y-66550000D03*
G36*
G01*
X75635000Y-65700000D02*
X76835000Y-65700000D01*
G75*
G02*
X77085000Y-65950000I0J-250000D01*
G01*
X77085000Y-67150000D01*
G75*
G02*
X76835000Y-67400000I-250000J0D01*
G01*
X75635000Y-67400000D01*
G75*
G02*
X75385000Y-67150000I0J250000D01*
G01*
X75385000Y-65950000D01*
G75*
G02*
X75635000Y-65700000I250000J0D01*
G01*
G37*
X90840000Y-143710000D03*
X93380000Y-143710000D03*
X95920000Y-143710000D03*
X98460000Y-143710000D03*
X101000000Y-143710000D03*
X90840000Y-146250000D03*
X93380000Y-146250000D03*
X95920000Y-146250000D03*
X98460000Y-146250000D03*
G36*
G01*
X101600000Y-147100000D02*
X100400000Y-147100000D01*
G75*
G02*
X100150000Y-146850000I0J250000D01*
G01*
X100150000Y-145650000D01*
G75*
G02*
X100400000Y-145400000I250000J0D01*
G01*
X101600000Y-145400000D01*
G75*
G02*
X101850000Y-145650000I0J-250000D01*
G01*
X101850000Y-146850000D01*
G75*
G02*
X101600000Y-147100000I-250000J0D01*
G01*
G37*
D13*
X117130000Y-135480000D03*
D14*
X117130000Y-138020000D03*
X114590000Y-135480000D03*
X114590000Y-138020000D03*
X112050000Y-135480000D03*
X112050000Y-138020000D03*
X109510000Y-135480000D03*
X109510000Y-138020000D03*
X106970000Y-135480000D03*
X106970000Y-138020000D03*
X104430000Y-135480000D03*
X104430000Y-138020000D03*
X101890000Y-135480000D03*
X101890000Y-138020000D03*
X99350000Y-135480000D03*
X99350000Y-138020000D03*
X96810000Y-135480000D03*
X96810000Y-138020000D03*
X94270000Y-135480000D03*
X94270000Y-138020000D03*
X91730000Y-135480000D03*
X91730000Y-138020000D03*
X89190000Y-135480000D03*
X89190000Y-138020000D03*
X86650000Y-135480000D03*
X86650000Y-138020000D03*
X84110000Y-135480000D03*
X84110000Y-138020000D03*
X81570000Y-135480000D03*
X81570000Y-138020000D03*
X79030000Y-135480000D03*
X79030000Y-138020000D03*
X76490000Y-135480000D03*
X76490000Y-138020000D03*
X73950000Y-135480000D03*
X73950000Y-138020000D03*
X71410000Y-135480000D03*
X71410000Y-138020000D03*
X68870000Y-135480000D03*
X68870000Y-138020000D03*
D15*
X122000000Y-136750000D03*
X64000000Y-136750000D03*
X64000000Y-87750000D03*
X122000000Y-87750000D03*
D16*
X94000000Y-107000000D03*
X94000000Y-104500000D03*
X94000000Y-102000000D03*
D17*
X87000000Y-108900000D03*
X87000000Y-100100000D03*
D16*
X76250000Y-107000000D03*
X76250000Y-104500000D03*
X76250000Y-102000000D03*
D17*
X69250000Y-108900000D03*
X69250000Y-100100000D03*
D16*
X120540000Y-145250000D03*
X118000000Y-145250000D03*
G36*
G01*
X114560000Y-145899800D02*
X114560000Y-144600200D01*
G75*
G02*
X114810200Y-144350000I250200J0D01*
G01*
X116109800Y-144350000D01*
G75*
G02*
X116360000Y-144600200I0J-250200D01*
G01*
X116360000Y-145899800D01*
G75*
G02*
X116109800Y-146150000I-250200J0D01*
G01*
X114810200Y-146150000D01*
G75*
G02*
X114560000Y-145899800I0J250200D01*
G01*
G37*
D18*
X237250000Y-130810000D03*
D19*
X237250000Y-123190000D03*
D18*
X172000000Y-102190000D03*
D19*
X172000000Y-109810000D03*
D18*
X172000000Y-85250000D03*
D19*
X172000000Y-92870000D03*
D18*
X172000000Y-136690000D03*
D19*
X172000000Y-144310000D03*
D18*
X172000000Y-119690000D03*
D19*
X172000000Y-127310000D03*
D17*
X190750000Y-67000000D03*
D20*
X226500000Y-143000000D03*
D17*
X185250000Y-67000000D03*
D21*
X219750000Y-143000000D03*
D22*
X142250000Y-115500000D03*
D23*
X149750000Y-115500000D03*
D24*
X89000000Y-75400000D03*
D17*
X94150000Y-77000000D03*
X83850000Y-77000000D03*
D24*
X72000000Y-75400000D03*
D17*
X77150000Y-77000000D03*
X66850000Y-77000000D03*
D25*
X126500000Y-74500000D03*
D19*
X121730000Y-77210000D03*
D26*
X129000000Y-74500000D03*
D25*
X126500000Y-77700000D03*
X129000000Y-77700000D03*
D19*
X133770000Y-77210000D03*
D22*
X142250000Y-80500000D03*
D23*
X149750000Y-80500000D03*
M02*
