G04 #@! TF.GenerationSoftware,KiCad,Pcbnew,(5.1.10)-1*
G04 #@! TF.CreationDate,2021-05-07T16:49:04+02:00*
G04 #@! TF.ProjectId,dsp-amplifier-x4,6473702d-616d-4706-9c69-666965722d78,rev?*
G04 #@! TF.SameCoordinates,Original*
G04 #@! TF.FileFunction,Soldermask,Top*
G04 #@! TF.FilePolarity,Negative*
%FSLAX46Y46*%
G04 Gerber Fmt 4.6, Leading zero omitted, Abs format (unit mm)*
G04 Created by KiCad (PCBNEW (5.1.10)-1) date 2021-05-07 16:49:04*
%MOMM*%
%LPD*%
G01*
G04 APERTURE LIST*
%ADD10C,0.150000*%
%ADD11C,0.300000*%
%ADD12C,1.700000*%
%ADD13R,1.700000X1.700000*%
%ADD14O,1.700000X1.700000*%
%ADD15C,6.000000*%
%ADD16C,1.800000*%
%ADD17C,4.000000*%
%ADD18R,3.000000X3.000000*%
%ADD19C,3.000000*%
%ADD20R,2.500000X2.500000*%
%ADD21C,2.500000*%
%ADD22R,1.200000X0.400000*%
%ADD23R,4.110000X4.360000*%
%ADD24R,2.200000X1.200000*%
%ADD25R,6.400000X5.800000*%
%ADD26R,1.800000X2.000000*%
%ADD27C,2.400000*%
%ADD28R,2.400000X2.400000*%
%ADD29C,3.400000*%
%ADD30R,1.200000X1.400000*%
%ADD31R,1.600000X0.550000*%
%ADD32R,0.550000X1.600000*%
%ADD33R,0.650000X1.060000*%
%ADD34R,2.000000X1.500000*%
%ADD35R,2.000000X3.800000*%
%ADD36R,1.060000X0.650000*%
%ADD37R,5.300000X5.300000*%
%ADD38R,1.600000X1.000000*%
%ADD39C,1.400000*%
%ADD40R,1.400000X1.400000*%
G04 APERTURE END LIST*
D10*
X139750000Y-148000000D02*
G75*
G03*
X139750000Y-148000000I-250000J0D01*
G01*
X139000000Y-148000000D02*
G75*
G03*
X139000000Y-148000000I-250000J0D01*
G01*
X139894427Y-148420819D02*
G75*
G02*
X138500001Y-148749999I-894427J670819D01*
G01*
D11*
X135178571Y-147928571D02*
X135535714Y-148928571D01*
X135892857Y-147928571D01*
X137250000Y-148928571D02*
X136392857Y-148928571D01*
X136821428Y-148928571D02*
X136821428Y-147428571D01*
X136678571Y-147642857D01*
X136535714Y-147785714D01*
X136392857Y-147857142D01*
D12*
X94015000Y-69090000D03*
X91475000Y-69090000D03*
X88935000Y-69090000D03*
X86395000Y-69090000D03*
X83855000Y-69090000D03*
X81315000Y-69090000D03*
X78775000Y-69090000D03*
X76235000Y-69090000D03*
X94015000Y-66550000D03*
X91475000Y-66550000D03*
X88935000Y-66550000D03*
X86395000Y-66550000D03*
X83855000Y-66550000D03*
X81315000Y-66550000D03*
X78775000Y-66550000D03*
G36*
G01*
X75635000Y-65700000D02*
X76835000Y-65700000D01*
G75*
G02*
X77085000Y-65950000I0J-250000D01*
G01*
X77085000Y-67150000D01*
G75*
G02*
X76835000Y-67400000I-250000J0D01*
G01*
X75635000Y-67400000D01*
G75*
G02*
X75385000Y-67150000I0J250000D01*
G01*
X75385000Y-65950000D01*
G75*
G02*
X75635000Y-65700000I250000J0D01*
G01*
G37*
X90840000Y-143710000D03*
X93380000Y-143710000D03*
X95920000Y-143710000D03*
X98460000Y-143710000D03*
X101000000Y-143710000D03*
X90840000Y-146250000D03*
X93380000Y-146250000D03*
X95920000Y-146250000D03*
X98460000Y-146250000D03*
G36*
G01*
X101600000Y-147100000D02*
X100400000Y-147100000D01*
G75*
G02*
X100150000Y-146850000I0J250000D01*
G01*
X100150000Y-145650000D01*
G75*
G02*
X100400000Y-145400000I250000J0D01*
G01*
X101600000Y-145400000D01*
G75*
G02*
X101850000Y-145650000I0J-250000D01*
G01*
X101850000Y-146850000D01*
G75*
G02*
X101600000Y-147100000I-250000J0D01*
G01*
G37*
D13*
X117130000Y-135480000D03*
D14*
X117130000Y-138020000D03*
X114590000Y-135480000D03*
X114590000Y-138020000D03*
X112050000Y-135480000D03*
X112050000Y-138020000D03*
X109510000Y-135480000D03*
X109510000Y-138020000D03*
X106970000Y-135480000D03*
X106970000Y-138020000D03*
X104430000Y-135480000D03*
X104430000Y-138020000D03*
X101890000Y-135480000D03*
X101890000Y-138020000D03*
X99350000Y-135480000D03*
X99350000Y-138020000D03*
X96810000Y-135480000D03*
X96810000Y-138020000D03*
X94270000Y-135480000D03*
X94270000Y-138020000D03*
X91730000Y-135480000D03*
X91730000Y-138020000D03*
X89190000Y-135480000D03*
X89190000Y-138020000D03*
X86650000Y-135480000D03*
X86650000Y-138020000D03*
X84110000Y-135480000D03*
X84110000Y-138020000D03*
X81570000Y-135480000D03*
X81570000Y-138020000D03*
X79030000Y-135480000D03*
X79030000Y-138020000D03*
X76490000Y-135480000D03*
X76490000Y-138020000D03*
X73950000Y-135480000D03*
X73950000Y-138020000D03*
X71410000Y-135480000D03*
X71410000Y-138020000D03*
X68870000Y-135480000D03*
X68870000Y-138020000D03*
D15*
X122000000Y-136750000D03*
X64000000Y-136750000D03*
X64000000Y-87750000D03*
X122000000Y-87750000D03*
G36*
G01*
X108675000Y-122737500D02*
X108675000Y-122262500D01*
G75*
G02*
X108912500Y-122025000I237500J0D01*
G01*
X109412500Y-122025000D01*
G75*
G02*
X109650000Y-122262500I0J-237500D01*
G01*
X109650000Y-122737500D01*
G75*
G02*
X109412500Y-122975000I-237500J0D01*
G01*
X108912500Y-122975000D01*
G75*
G02*
X108675000Y-122737500I0J237500D01*
G01*
G37*
G36*
G01*
X106850000Y-122737500D02*
X106850000Y-122262500D01*
G75*
G02*
X107087500Y-122025000I237500J0D01*
G01*
X107587500Y-122025000D01*
G75*
G02*
X107825000Y-122262500I0J-237500D01*
G01*
X107825000Y-122737500D01*
G75*
G02*
X107587500Y-122975000I-237500J0D01*
G01*
X107087500Y-122975000D01*
G75*
G02*
X106850000Y-122737500I0J237500D01*
G01*
G37*
G36*
G01*
X108675000Y-124487500D02*
X108675000Y-124012500D01*
G75*
G02*
X108912500Y-123775000I237500J0D01*
G01*
X109412500Y-123775000D01*
G75*
G02*
X109650000Y-124012500I0J-237500D01*
G01*
X109650000Y-124487500D01*
G75*
G02*
X109412500Y-124725000I-237500J0D01*
G01*
X108912500Y-124725000D01*
G75*
G02*
X108675000Y-124487500I0J237500D01*
G01*
G37*
G36*
G01*
X106850000Y-124487500D02*
X106850000Y-124012500D01*
G75*
G02*
X107087500Y-123775000I237500J0D01*
G01*
X107587500Y-123775000D01*
G75*
G02*
X107825000Y-124012500I0J-237500D01*
G01*
X107825000Y-124487500D01*
G75*
G02*
X107587500Y-124725000I-237500J0D01*
G01*
X107087500Y-124725000D01*
G75*
G02*
X106850000Y-124487500I0J237500D01*
G01*
G37*
G36*
G01*
X166225000Y-102800000D02*
X165275000Y-102800000D01*
G75*
G02*
X165025000Y-102550000I0J250000D01*
G01*
X165025000Y-101875000D01*
G75*
G02*
X165275000Y-101625000I250000J0D01*
G01*
X166225000Y-101625000D01*
G75*
G02*
X166475000Y-101875000I0J-250000D01*
G01*
X166475000Y-102550000D01*
G75*
G02*
X166225000Y-102800000I-250000J0D01*
G01*
G37*
G36*
G01*
X166225000Y-104875000D02*
X165275000Y-104875000D01*
G75*
G02*
X165025000Y-104625000I0J250000D01*
G01*
X165025000Y-103950000D01*
G75*
G02*
X165275000Y-103700000I250000J0D01*
G01*
X166225000Y-103700000D01*
G75*
G02*
X166475000Y-103950000I0J-250000D01*
G01*
X166475000Y-104625000D01*
G75*
G02*
X166225000Y-104875000I-250000J0D01*
G01*
G37*
G36*
G01*
X165275000Y-107700000D02*
X166225000Y-107700000D01*
G75*
G02*
X166475000Y-107950000I0J-250000D01*
G01*
X166475000Y-108625000D01*
G75*
G02*
X166225000Y-108875000I-250000J0D01*
G01*
X165275000Y-108875000D01*
G75*
G02*
X165025000Y-108625000I0J250000D01*
G01*
X165025000Y-107950000D01*
G75*
G02*
X165275000Y-107700000I250000J0D01*
G01*
G37*
G36*
G01*
X165275000Y-105625000D02*
X166225000Y-105625000D01*
G75*
G02*
X166475000Y-105875000I0J-250000D01*
G01*
X166475000Y-106550000D01*
G75*
G02*
X166225000Y-106800000I-250000J0D01*
G01*
X165275000Y-106800000D01*
G75*
G02*
X165025000Y-106550000I0J250000D01*
G01*
X165025000Y-105875000D01*
G75*
G02*
X165275000Y-105625000I250000J0D01*
G01*
G37*
G36*
G01*
X165275000Y-92450000D02*
X166225000Y-92450000D01*
G75*
G02*
X166475000Y-92700000I0J-250000D01*
G01*
X166475000Y-93375000D01*
G75*
G02*
X166225000Y-93625000I-250000J0D01*
G01*
X165275000Y-93625000D01*
G75*
G02*
X165025000Y-93375000I0J250000D01*
G01*
X165025000Y-92700000D01*
G75*
G02*
X165275000Y-92450000I250000J0D01*
G01*
G37*
G36*
G01*
X165275000Y-90375000D02*
X166225000Y-90375000D01*
G75*
G02*
X166475000Y-90625000I0J-250000D01*
G01*
X166475000Y-91300000D01*
G75*
G02*
X166225000Y-91550000I-250000J0D01*
G01*
X165275000Y-91550000D01*
G75*
G02*
X165025000Y-91300000I0J250000D01*
G01*
X165025000Y-90625000D01*
G75*
G02*
X165275000Y-90375000I250000J0D01*
G01*
G37*
G36*
G01*
X166225000Y-87550000D02*
X165275000Y-87550000D01*
G75*
G02*
X165025000Y-87300000I0J250000D01*
G01*
X165025000Y-86625000D01*
G75*
G02*
X165275000Y-86375000I250000J0D01*
G01*
X166225000Y-86375000D01*
G75*
G02*
X166475000Y-86625000I0J-250000D01*
G01*
X166475000Y-87300000D01*
G75*
G02*
X166225000Y-87550000I-250000J0D01*
G01*
G37*
G36*
G01*
X166225000Y-89625000D02*
X165275000Y-89625000D01*
G75*
G02*
X165025000Y-89375000I0J250000D01*
G01*
X165025000Y-88700000D01*
G75*
G02*
X165275000Y-88450000I250000J0D01*
G01*
X166225000Y-88450000D01*
G75*
G02*
X166475000Y-88700000I0J-250000D01*
G01*
X166475000Y-89375000D01*
G75*
G02*
X166225000Y-89625000I-250000J0D01*
G01*
G37*
G36*
G01*
X166225000Y-137050000D02*
X165275000Y-137050000D01*
G75*
G02*
X165025000Y-136800000I0J250000D01*
G01*
X165025000Y-136125000D01*
G75*
G02*
X165275000Y-135875000I250000J0D01*
G01*
X166225000Y-135875000D01*
G75*
G02*
X166475000Y-136125000I0J-250000D01*
G01*
X166475000Y-136800000D01*
G75*
G02*
X166225000Y-137050000I-250000J0D01*
G01*
G37*
G36*
G01*
X166225000Y-139125000D02*
X165275000Y-139125000D01*
G75*
G02*
X165025000Y-138875000I0J250000D01*
G01*
X165025000Y-138200000D01*
G75*
G02*
X165275000Y-137950000I250000J0D01*
G01*
X166225000Y-137950000D01*
G75*
G02*
X166475000Y-138200000I0J-250000D01*
G01*
X166475000Y-138875000D01*
G75*
G02*
X166225000Y-139125000I-250000J0D01*
G01*
G37*
G36*
G01*
X165275000Y-141987500D02*
X166225000Y-141987500D01*
G75*
G02*
X166475000Y-142237500I0J-250000D01*
G01*
X166475000Y-142912500D01*
G75*
G02*
X166225000Y-143162500I-250000J0D01*
G01*
X165275000Y-143162500D01*
G75*
G02*
X165025000Y-142912500I0J250000D01*
G01*
X165025000Y-142237500D01*
G75*
G02*
X165275000Y-141987500I250000J0D01*
G01*
G37*
G36*
G01*
X165275000Y-139912500D02*
X166225000Y-139912500D01*
G75*
G02*
X166475000Y-140162500I0J-250000D01*
G01*
X166475000Y-140837500D01*
G75*
G02*
X166225000Y-141087500I-250000J0D01*
G01*
X165275000Y-141087500D01*
G75*
G02*
X165025000Y-140837500I0J250000D01*
G01*
X165025000Y-140162500D01*
G75*
G02*
X165275000Y-139912500I250000J0D01*
G01*
G37*
G36*
G01*
X165275000Y-126737500D02*
X166225000Y-126737500D01*
G75*
G02*
X166475000Y-126987500I0J-250000D01*
G01*
X166475000Y-127662500D01*
G75*
G02*
X166225000Y-127912500I-250000J0D01*
G01*
X165275000Y-127912500D01*
G75*
G02*
X165025000Y-127662500I0J250000D01*
G01*
X165025000Y-126987500D01*
G75*
G02*
X165275000Y-126737500I250000J0D01*
G01*
G37*
G36*
G01*
X165275000Y-124662500D02*
X166225000Y-124662500D01*
G75*
G02*
X166475000Y-124912500I0J-250000D01*
G01*
X166475000Y-125587500D01*
G75*
G02*
X166225000Y-125837500I-250000J0D01*
G01*
X165275000Y-125837500D01*
G75*
G02*
X165025000Y-125587500I0J250000D01*
G01*
X165025000Y-124912500D01*
G75*
G02*
X165275000Y-124662500I250000J0D01*
G01*
G37*
G36*
G01*
X166225000Y-121800000D02*
X165275000Y-121800000D01*
G75*
G02*
X165025000Y-121550000I0J250000D01*
G01*
X165025000Y-120875000D01*
G75*
G02*
X165275000Y-120625000I250000J0D01*
G01*
X166225000Y-120625000D01*
G75*
G02*
X166475000Y-120875000I0J-250000D01*
G01*
X166475000Y-121550000D01*
G75*
G02*
X166225000Y-121800000I-250000J0D01*
G01*
G37*
G36*
G01*
X166225000Y-123875000D02*
X165275000Y-123875000D01*
G75*
G02*
X165025000Y-123625000I0J250000D01*
G01*
X165025000Y-122950000D01*
G75*
G02*
X165275000Y-122700000I250000J0D01*
G01*
X166225000Y-122700000D01*
G75*
G02*
X166475000Y-122950000I0J-250000D01*
G01*
X166475000Y-123625000D01*
G75*
G02*
X166225000Y-123875000I-250000J0D01*
G01*
G37*
D16*
X94000000Y-107000000D03*
X94000000Y-104500000D03*
X94000000Y-102000000D03*
D17*
X87000000Y-108900000D03*
X87000000Y-100100000D03*
D16*
X76250000Y-107000000D03*
X76250000Y-104500000D03*
X76250000Y-102000000D03*
D17*
X69250000Y-108900000D03*
X69250000Y-100100000D03*
D16*
X120540000Y-145250000D03*
X118000000Y-145250000D03*
G36*
G01*
X114560000Y-145899800D02*
X114560000Y-144600200D01*
G75*
G02*
X114810200Y-144350000I250200J0D01*
G01*
X116109800Y-144350000D01*
G75*
G02*
X116360000Y-144600200I0J-250200D01*
G01*
X116360000Y-145899800D01*
G75*
G02*
X116109800Y-146150000I-250200J0D01*
G01*
X114810200Y-146150000D01*
G75*
G02*
X114560000Y-145899800I0J250200D01*
G01*
G37*
G36*
G01*
X103325000Y-76762500D02*
X103325000Y-77237500D01*
G75*
G02*
X103087500Y-77475000I-237500J0D01*
G01*
X102587500Y-77475000D01*
G75*
G02*
X102350000Y-77237500I0J237500D01*
G01*
X102350000Y-76762500D01*
G75*
G02*
X102587500Y-76525000I237500J0D01*
G01*
X103087500Y-76525000D01*
G75*
G02*
X103325000Y-76762500I0J-237500D01*
G01*
G37*
G36*
G01*
X105150000Y-76762500D02*
X105150000Y-77237500D01*
G75*
G02*
X104912500Y-77475000I-237500J0D01*
G01*
X104412500Y-77475000D01*
G75*
G02*
X104175000Y-77237500I0J237500D01*
G01*
X104175000Y-76762500D01*
G75*
G02*
X104412500Y-76525000I237500J0D01*
G01*
X104912500Y-76525000D01*
G75*
G02*
X105150000Y-76762500I0J-237500D01*
G01*
G37*
G36*
G01*
X117675000Y-81737500D02*
X117675000Y-81262500D01*
G75*
G02*
X117912500Y-81025000I237500J0D01*
G01*
X118412500Y-81025000D01*
G75*
G02*
X118650000Y-81262500I0J-237500D01*
G01*
X118650000Y-81737500D01*
G75*
G02*
X118412500Y-81975000I-237500J0D01*
G01*
X117912500Y-81975000D01*
G75*
G02*
X117675000Y-81737500I0J237500D01*
G01*
G37*
G36*
G01*
X115850000Y-81737500D02*
X115850000Y-81262500D01*
G75*
G02*
X116087500Y-81025000I237500J0D01*
G01*
X116587500Y-81025000D01*
G75*
G02*
X116825000Y-81262500I0J-237500D01*
G01*
X116825000Y-81737500D01*
G75*
G02*
X116587500Y-81975000I-237500J0D01*
G01*
X116087500Y-81975000D01*
G75*
G02*
X115850000Y-81737500I0J237500D01*
G01*
G37*
G36*
G01*
X102987500Y-73737500D02*
X102512500Y-73737500D01*
G75*
G02*
X102275000Y-73500000I0J237500D01*
G01*
X102275000Y-73000000D01*
G75*
G02*
X102512500Y-72762500I237500J0D01*
G01*
X102987500Y-72762500D01*
G75*
G02*
X103225000Y-73000000I0J-237500D01*
G01*
X103225000Y-73500000D01*
G75*
G02*
X102987500Y-73737500I-237500J0D01*
G01*
G37*
G36*
G01*
X102987500Y-75562500D02*
X102512500Y-75562500D01*
G75*
G02*
X102275000Y-75325000I0J237500D01*
G01*
X102275000Y-74825000D01*
G75*
G02*
X102512500Y-74587500I237500J0D01*
G01*
X102987500Y-74587500D01*
G75*
G02*
X103225000Y-74825000I0J-237500D01*
G01*
X103225000Y-75325000D01*
G75*
G02*
X102987500Y-75562500I-237500J0D01*
G01*
G37*
D18*
X237250000Y-130810000D03*
D19*
X237250000Y-123190000D03*
D18*
X172000000Y-102190000D03*
D19*
X172000000Y-109810000D03*
D18*
X172000000Y-85250000D03*
D19*
X172000000Y-92870000D03*
D18*
X172000000Y-136690000D03*
D19*
X172000000Y-144310000D03*
D18*
X172000000Y-119690000D03*
D19*
X172000000Y-127310000D03*
D17*
X190750000Y-67000000D03*
D20*
X226500000Y-143000000D03*
D17*
X185250000Y-67000000D03*
D21*
X219750000Y-143000000D03*
G36*
G01*
X102237500Y-131575000D02*
X101762500Y-131575000D01*
G75*
G02*
X101525000Y-131337500I0J237500D01*
G01*
X101525000Y-130837500D01*
G75*
G02*
X101762500Y-130600000I237500J0D01*
G01*
X102237500Y-130600000D01*
G75*
G02*
X102475000Y-130837500I0J-237500D01*
G01*
X102475000Y-131337500D01*
G75*
G02*
X102237500Y-131575000I-237500J0D01*
G01*
G37*
G36*
G01*
X102237500Y-133400000D02*
X101762500Y-133400000D01*
G75*
G02*
X101525000Y-133162500I0J237500D01*
G01*
X101525000Y-132662500D01*
G75*
G02*
X101762500Y-132425000I237500J0D01*
G01*
X102237500Y-132425000D01*
G75*
G02*
X102475000Y-132662500I0J-237500D01*
G01*
X102475000Y-133162500D01*
G75*
G02*
X102237500Y-133400000I-237500J0D01*
G01*
G37*
G36*
G01*
X114755000Y-131550000D02*
X115055000Y-131550000D01*
G75*
G02*
X115205000Y-131700000I0J-150000D01*
G01*
X115205000Y-133000000D01*
G75*
G02*
X115055000Y-133150000I-150000J0D01*
G01*
X114755000Y-133150000D01*
G75*
G02*
X114605000Y-133000000I0J150000D01*
G01*
X114605000Y-131700000D01*
G75*
G02*
X114755000Y-131550000I150000J0D01*
G01*
G37*
G36*
G01*
X113485000Y-131550000D02*
X113785000Y-131550000D01*
G75*
G02*
X113935000Y-131700000I0J-150000D01*
G01*
X113935000Y-133000000D01*
G75*
G02*
X113785000Y-133150000I-150000J0D01*
G01*
X113485000Y-133150000D01*
G75*
G02*
X113335000Y-133000000I0J150000D01*
G01*
X113335000Y-131700000D01*
G75*
G02*
X113485000Y-131550000I150000J0D01*
G01*
G37*
G36*
G01*
X112215000Y-131550000D02*
X112515000Y-131550000D01*
G75*
G02*
X112665000Y-131700000I0J-150000D01*
G01*
X112665000Y-133000000D01*
G75*
G02*
X112515000Y-133150000I-150000J0D01*
G01*
X112215000Y-133150000D01*
G75*
G02*
X112065000Y-133000000I0J150000D01*
G01*
X112065000Y-131700000D01*
G75*
G02*
X112215000Y-131550000I150000J0D01*
G01*
G37*
G36*
G01*
X110945000Y-131550000D02*
X111245000Y-131550000D01*
G75*
G02*
X111395000Y-131700000I0J-150000D01*
G01*
X111395000Y-133000000D01*
G75*
G02*
X111245000Y-133150000I-150000J0D01*
G01*
X110945000Y-133150000D01*
G75*
G02*
X110795000Y-133000000I0J150000D01*
G01*
X110795000Y-131700000D01*
G75*
G02*
X110945000Y-131550000I150000J0D01*
G01*
G37*
G36*
G01*
X110945000Y-124350000D02*
X111245000Y-124350000D01*
G75*
G02*
X111395000Y-124500000I0J-150000D01*
G01*
X111395000Y-125800000D01*
G75*
G02*
X111245000Y-125950000I-150000J0D01*
G01*
X110945000Y-125950000D01*
G75*
G02*
X110795000Y-125800000I0J150000D01*
G01*
X110795000Y-124500000D01*
G75*
G02*
X110945000Y-124350000I150000J0D01*
G01*
G37*
G36*
G01*
X112215000Y-124350000D02*
X112515000Y-124350000D01*
G75*
G02*
X112665000Y-124500000I0J-150000D01*
G01*
X112665000Y-125800000D01*
G75*
G02*
X112515000Y-125950000I-150000J0D01*
G01*
X112215000Y-125950000D01*
G75*
G02*
X112065000Y-125800000I0J150000D01*
G01*
X112065000Y-124500000D01*
G75*
G02*
X112215000Y-124350000I150000J0D01*
G01*
G37*
G36*
G01*
X113485000Y-124350000D02*
X113785000Y-124350000D01*
G75*
G02*
X113935000Y-124500000I0J-150000D01*
G01*
X113935000Y-125800000D01*
G75*
G02*
X113785000Y-125950000I-150000J0D01*
G01*
X113485000Y-125950000D01*
G75*
G02*
X113335000Y-125800000I0J150000D01*
G01*
X113335000Y-124500000D01*
G75*
G02*
X113485000Y-124350000I150000J0D01*
G01*
G37*
G36*
G01*
X114755000Y-124350000D02*
X115055000Y-124350000D01*
G75*
G02*
X115205000Y-124500000I0J-150000D01*
G01*
X115205000Y-125800000D01*
G75*
G02*
X115055000Y-125950000I-150000J0D01*
G01*
X114755000Y-125950000D01*
G75*
G02*
X114605000Y-125800000I0J150000D01*
G01*
X114605000Y-124500000D01*
G75*
G02*
X114755000Y-124350000I150000J0D01*
G01*
G37*
D22*
X138350000Y-127025000D03*
X138350000Y-127675000D03*
X138350000Y-128325000D03*
X138350000Y-128975000D03*
X138350000Y-129625000D03*
X138350000Y-130275000D03*
X138350000Y-130925000D03*
X138350000Y-131575000D03*
X138350000Y-132225000D03*
X138350000Y-132875000D03*
X138350000Y-133525000D03*
X138350000Y-134175000D03*
X138350000Y-134825000D03*
X138350000Y-135475000D03*
X138350000Y-136125000D03*
X138350000Y-136775000D03*
X145650000Y-136775000D03*
X145650000Y-136125000D03*
X145650000Y-135475000D03*
X145650000Y-134825000D03*
X145650000Y-134175000D03*
X145650000Y-133525000D03*
X145650000Y-132875000D03*
X145650000Y-132225000D03*
X145650000Y-131575000D03*
X145650000Y-130925000D03*
X145650000Y-130275000D03*
X145650000Y-129625000D03*
X145650000Y-128975000D03*
X145650000Y-128325000D03*
X145650000Y-127675000D03*
X145650000Y-127025000D03*
D23*
X142000000Y-131900000D03*
G36*
G01*
X117275000Y-77450000D02*
X118225000Y-77450000D01*
G75*
G02*
X118475000Y-77700000I0J-250000D01*
G01*
X118475000Y-78375000D01*
G75*
G02*
X118225000Y-78625000I-250000J0D01*
G01*
X117275000Y-78625000D01*
G75*
G02*
X117025000Y-78375000I0J250000D01*
G01*
X117025000Y-77700000D01*
G75*
G02*
X117275000Y-77450000I250000J0D01*
G01*
G37*
G36*
G01*
X117275000Y-75375000D02*
X118225000Y-75375000D01*
G75*
G02*
X118475000Y-75625000I0J-250000D01*
G01*
X118475000Y-76300000D01*
G75*
G02*
X118225000Y-76550000I-250000J0D01*
G01*
X117275000Y-76550000D01*
G75*
G02*
X117025000Y-76300000I0J250000D01*
G01*
X117025000Y-75625000D01*
G75*
G02*
X117275000Y-75375000I250000J0D01*
G01*
G37*
G36*
G01*
X118225000Y-72050000D02*
X117275000Y-72050000D01*
G75*
G02*
X117025000Y-71800000I0J250000D01*
G01*
X117025000Y-71125000D01*
G75*
G02*
X117275000Y-70875000I250000J0D01*
G01*
X118225000Y-70875000D01*
G75*
G02*
X118475000Y-71125000I0J-250000D01*
G01*
X118475000Y-71800000D01*
G75*
G02*
X118225000Y-72050000I-250000J0D01*
G01*
G37*
G36*
G01*
X118225000Y-74125000D02*
X117275000Y-74125000D01*
G75*
G02*
X117025000Y-73875000I0J250000D01*
G01*
X117025000Y-73200000D01*
G75*
G02*
X117275000Y-72950000I250000J0D01*
G01*
X118225000Y-72950000D01*
G75*
G02*
X118475000Y-73200000I0J-250000D01*
G01*
X118475000Y-73875000D01*
G75*
G02*
X118225000Y-74125000I-250000J0D01*
G01*
G37*
G36*
G01*
X104075000Y-79737500D02*
X104075000Y-79262500D01*
G75*
G02*
X104312500Y-79025000I237500J0D01*
G01*
X104912500Y-79025000D01*
G75*
G02*
X105150000Y-79262500I0J-237500D01*
G01*
X105150000Y-79737500D01*
G75*
G02*
X104912500Y-79975000I-237500J0D01*
G01*
X104312500Y-79975000D01*
G75*
G02*
X104075000Y-79737500I0J237500D01*
G01*
G37*
G36*
G01*
X102350000Y-79737500D02*
X102350000Y-79262500D01*
G75*
G02*
X102587500Y-79025000I237500J0D01*
G01*
X103187500Y-79025000D01*
G75*
G02*
X103425000Y-79262500I0J-237500D01*
G01*
X103425000Y-79737500D01*
G75*
G02*
X103187500Y-79975000I-237500J0D01*
G01*
X102587500Y-79975000D01*
G75*
G02*
X102350000Y-79737500I0J237500D01*
G01*
G37*
G36*
G01*
X115075000Y-68487500D02*
X115075000Y-68012500D01*
G75*
G02*
X115312500Y-67775000I237500J0D01*
G01*
X115912500Y-67775000D01*
G75*
G02*
X116150000Y-68012500I0J-237500D01*
G01*
X116150000Y-68487500D01*
G75*
G02*
X115912500Y-68725000I-237500J0D01*
G01*
X115312500Y-68725000D01*
G75*
G02*
X115075000Y-68487500I0J237500D01*
G01*
G37*
G36*
G01*
X113350000Y-68487500D02*
X113350000Y-68012500D01*
G75*
G02*
X113587500Y-67775000I237500J0D01*
G01*
X114187500Y-67775000D01*
G75*
G02*
X114425000Y-68012500I0J-237500D01*
G01*
X114425000Y-68487500D01*
G75*
G02*
X114187500Y-68725000I-237500J0D01*
G01*
X113587500Y-68725000D01*
G75*
G02*
X113350000Y-68487500I0J237500D01*
G01*
G37*
G36*
G01*
X115650000Y-66650002D02*
X115650000Y-65349998D01*
G75*
G02*
X115899998Y-65100000I249998J0D01*
G01*
X116725002Y-65100000D01*
G75*
G02*
X116975000Y-65349998I0J-249998D01*
G01*
X116975000Y-66650002D01*
G75*
G02*
X116725002Y-66900000I-249998J0D01*
G01*
X115899998Y-66900000D01*
G75*
G02*
X115650000Y-66650002I0J249998D01*
G01*
G37*
G36*
G01*
X112525000Y-66650002D02*
X112525000Y-65349998D01*
G75*
G02*
X112774998Y-65100000I249998J0D01*
G01*
X113600002Y-65100000D01*
G75*
G02*
X113850000Y-65349998I0J-249998D01*
G01*
X113850000Y-66650002D01*
G75*
G02*
X113600002Y-66900000I-249998J0D01*
G01*
X112774998Y-66900000D01*
G75*
G02*
X112525000Y-66650002I0J249998D01*
G01*
G37*
G36*
G01*
X104587500Y-82400002D02*
X104587500Y-81099998D01*
G75*
G02*
X104837498Y-80850000I249998J0D01*
G01*
X105662502Y-80850000D01*
G75*
G02*
X105912500Y-81099998I0J-249998D01*
G01*
X105912500Y-82400002D01*
G75*
G02*
X105662502Y-82650000I-249998J0D01*
G01*
X104837498Y-82650000D01*
G75*
G02*
X104587500Y-82400002I0J249998D01*
G01*
G37*
G36*
G01*
X101462500Y-82400002D02*
X101462500Y-81099998D01*
G75*
G02*
X101712498Y-80850000I249998J0D01*
G01*
X102537502Y-80850000D01*
G75*
G02*
X102787500Y-81099998I0J-249998D01*
G01*
X102787500Y-82400002D01*
G75*
G02*
X102537502Y-82650000I-249998J0D01*
G01*
X101712498Y-82650000D01*
G75*
G02*
X101462500Y-82400002I0J249998D01*
G01*
G37*
G36*
G01*
X120150000Y-69650002D02*
X120150000Y-68349998D01*
G75*
G02*
X120399998Y-68100000I249998J0D01*
G01*
X121225002Y-68100000D01*
G75*
G02*
X121475000Y-68349998I0J-249998D01*
G01*
X121475000Y-69650002D01*
G75*
G02*
X121225002Y-69900000I-249998J0D01*
G01*
X120399998Y-69900000D01*
G75*
G02*
X120150000Y-69650002I0J249998D01*
G01*
G37*
G36*
G01*
X117025000Y-69650002D02*
X117025000Y-68349998D01*
G75*
G02*
X117274998Y-68100000I249998J0D01*
G01*
X118100002Y-68100000D01*
G75*
G02*
X118350000Y-68349998I0J-249998D01*
G01*
X118350000Y-69650002D01*
G75*
G02*
X118100002Y-69900000I-249998J0D01*
G01*
X117274998Y-69900000D01*
G75*
G02*
X117025000Y-69650002I0J249998D01*
G01*
G37*
G36*
G01*
X107487500Y-128425000D02*
X107012500Y-128425000D01*
G75*
G02*
X106775000Y-128187500I0J237500D01*
G01*
X106775000Y-127587500D01*
G75*
G02*
X107012500Y-127350000I237500J0D01*
G01*
X107487500Y-127350000D01*
G75*
G02*
X107725000Y-127587500I0J-237500D01*
G01*
X107725000Y-128187500D01*
G75*
G02*
X107487500Y-128425000I-237500J0D01*
G01*
G37*
G36*
G01*
X107487500Y-130150000D02*
X107012500Y-130150000D01*
G75*
G02*
X106775000Y-129912500I0J237500D01*
G01*
X106775000Y-129312500D01*
G75*
G02*
X107012500Y-129075000I237500J0D01*
G01*
X107487500Y-129075000D01*
G75*
G02*
X107725000Y-129312500I0J-237500D01*
G01*
X107725000Y-129912500D01*
G75*
G02*
X107487500Y-130150000I-237500J0D01*
G01*
G37*
G36*
G01*
X109237500Y-128425000D02*
X108762500Y-128425000D01*
G75*
G02*
X108525000Y-128187500I0J237500D01*
G01*
X108525000Y-127587500D01*
G75*
G02*
X108762500Y-127350000I237500J0D01*
G01*
X109237500Y-127350000D01*
G75*
G02*
X109475000Y-127587500I0J-237500D01*
G01*
X109475000Y-128187500D01*
G75*
G02*
X109237500Y-128425000I-237500J0D01*
G01*
G37*
G36*
G01*
X109237500Y-130150000D02*
X108762500Y-130150000D01*
G75*
G02*
X108525000Y-129912500I0J237500D01*
G01*
X108525000Y-129312500D01*
G75*
G02*
X108762500Y-129075000I237500J0D01*
G01*
X109237500Y-129075000D01*
G75*
G02*
X109475000Y-129312500I0J-237500D01*
G01*
X109475000Y-129912500D01*
G75*
G02*
X109237500Y-130150000I-237500J0D01*
G01*
G37*
D24*
X101200000Y-96030000D03*
X101200000Y-93750000D03*
X101200000Y-91470000D03*
D25*
X94900000Y-93750000D03*
G36*
G01*
X85825000Y-84262500D02*
X85825000Y-84737500D01*
G75*
G02*
X85587500Y-84975000I-237500J0D01*
G01*
X85087500Y-84975000D01*
G75*
G02*
X84850000Y-84737500I0J237500D01*
G01*
X84850000Y-84262500D01*
G75*
G02*
X85087500Y-84025000I237500J0D01*
G01*
X85587500Y-84025000D01*
G75*
G02*
X85825000Y-84262500I0J-237500D01*
G01*
G37*
G36*
G01*
X87650000Y-84262500D02*
X87650000Y-84737500D01*
G75*
G02*
X87412500Y-84975000I-237500J0D01*
G01*
X86912500Y-84975000D01*
G75*
G02*
X86675000Y-84737500I0J237500D01*
G01*
X86675000Y-84262500D01*
G75*
G02*
X86912500Y-84025000I237500J0D01*
G01*
X87412500Y-84025000D01*
G75*
G02*
X87650000Y-84262500I0J-237500D01*
G01*
G37*
D22*
X138350000Y-92775000D03*
X138350000Y-93425000D03*
X138350000Y-94075000D03*
X138350000Y-94725000D03*
X138350000Y-95375000D03*
X138350000Y-96025000D03*
X138350000Y-96675000D03*
X138350000Y-97325000D03*
X138350000Y-97975000D03*
X138350000Y-98625000D03*
X138350000Y-99275000D03*
X138350000Y-99925000D03*
X138350000Y-100575000D03*
X138350000Y-101225000D03*
X138350000Y-101875000D03*
X138350000Y-102525000D03*
X145650000Y-102525000D03*
X145650000Y-101875000D03*
X145650000Y-101225000D03*
X145650000Y-100575000D03*
X145650000Y-99925000D03*
X145650000Y-99275000D03*
X145650000Y-98625000D03*
X145650000Y-97975000D03*
X145650000Y-97325000D03*
X145650000Y-96675000D03*
X145650000Y-96025000D03*
X145650000Y-95375000D03*
X145650000Y-94725000D03*
X145650000Y-94075000D03*
X145650000Y-93425000D03*
X145650000Y-92775000D03*
D23*
X142000000Y-97650000D03*
G36*
G01*
X149147748Y-104438128D02*
X148811872Y-104102252D01*
G75*
G02*
X148811872Y-103766376I167938J167938D01*
G01*
X149236136Y-103342112D01*
G75*
G02*
X149572012Y-103342112I167938J-167938D01*
G01*
X149907888Y-103677988D01*
G75*
G02*
X149907888Y-104013864I-167938J-167938D01*
G01*
X149483624Y-104438128D01*
G75*
G02*
X149147748Y-104438128I-167938J167938D01*
G01*
G37*
G36*
G01*
X147927988Y-105657888D02*
X147592112Y-105322012D01*
G75*
G02*
X147592112Y-104986136I167938J167938D01*
G01*
X148016376Y-104561872D01*
G75*
G02*
X148352252Y-104561872I167938J-167938D01*
G01*
X148688128Y-104897748D01*
G75*
G02*
X148688128Y-105233624I-167938J-167938D01*
G01*
X148263864Y-105657888D01*
G75*
G02*
X147927988Y-105657888I-167938J167938D01*
G01*
G37*
G36*
G01*
X149147748Y-138688128D02*
X148811872Y-138352252D01*
G75*
G02*
X148811872Y-138016376I167938J167938D01*
G01*
X149236136Y-137592112D01*
G75*
G02*
X149572012Y-137592112I167938J-167938D01*
G01*
X149907888Y-137927988D01*
G75*
G02*
X149907888Y-138263864I-167938J-167938D01*
G01*
X149483624Y-138688128D01*
G75*
G02*
X149147748Y-138688128I-167938J167938D01*
G01*
G37*
G36*
G01*
X147927988Y-139907888D02*
X147592112Y-139572012D01*
G75*
G02*
X147592112Y-139236136I167938J167938D01*
G01*
X148016376Y-138811872D01*
G75*
G02*
X148352252Y-138811872I167938J-167938D01*
G01*
X148688128Y-139147748D01*
G75*
G02*
X148688128Y-139483624I-167938J-167938D01*
G01*
X148263864Y-139907888D01*
G75*
G02*
X147927988Y-139907888I-167938J167938D01*
G01*
G37*
D26*
X87710000Y-114750000D03*
X92790000Y-114750000D03*
X92790000Y-118750000D03*
X87710000Y-118750000D03*
G36*
G01*
X95370000Y-114525000D02*
X95370000Y-114325000D01*
G75*
G02*
X95470000Y-114225000I100000J0D01*
G01*
X96745000Y-114225000D01*
G75*
G02*
X96845000Y-114325000I0J-100000D01*
G01*
X96845000Y-114525000D01*
G75*
G02*
X96745000Y-114625000I-100000J0D01*
G01*
X95470000Y-114625000D01*
G75*
G02*
X95370000Y-114525000I0J100000D01*
G01*
G37*
G36*
G01*
X95370000Y-115175000D02*
X95370000Y-114975000D01*
G75*
G02*
X95470000Y-114875000I100000J0D01*
G01*
X96745000Y-114875000D01*
G75*
G02*
X96845000Y-114975000I0J-100000D01*
G01*
X96845000Y-115175000D01*
G75*
G02*
X96745000Y-115275000I-100000J0D01*
G01*
X95470000Y-115275000D01*
G75*
G02*
X95370000Y-115175000I0J100000D01*
G01*
G37*
G36*
G01*
X95370000Y-115825000D02*
X95370000Y-115625000D01*
G75*
G02*
X95470000Y-115525000I100000J0D01*
G01*
X96745000Y-115525000D01*
G75*
G02*
X96845000Y-115625000I0J-100000D01*
G01*
X96845000Y-115825000D01*
G75*
G02*
X96745000Y-115925000I-100000J0D01*
G01*
X95470000Y-115925000D01*
G75*
G02*
X95370000Y-115825000I0J100000D01*
G01*
G37*
G36*
G01*
X95370000Y-116475000D02*
X95370000Y-116275000D01*
G75*
G02*
X95470000Y-116175000I100000J0D01*
G01*
X96745000Y-116175000D01*
G75*
G02*
X96845000Y-116275000I0J-100000D01*
G01*
X96845000Y-116475000D01*
G75*
G02*
X96745000Y-116575000I-100000J0D01*
G01*
X95470000Y-116575000D01*
G75*
G02*
X95370000Y-116475000I0J100000D01*
G01*
G37*
G36*
G01*
X95370000Y-117125000D02*
X95370000Y-116925000D01*
G75*
G02*
X95470000Y-116825000I100000J0D01*
G01*
X96745000Y-116825000D01*
G75*
G02*
X96845000Y-116925000I0J-100000D01*
G01*
X96845000Y-117125000D01*
G75*
G02*
X96745000Y-117225000I-100000J0D01*
G01*
X95470000Y-117225000D01*
G75*
G02*
X95370000Y-117125000I0J100000D01*
G01*
G37*
G36*
G01*
X95370000Y-117775000D02*
X95370000Y-117575000D01*
G75*
G02*
X95470000Y-117475000I100000J0D01*
G01*
X96745000Y-117475000D01*
G75*
G02*
X96845000Y-117575000I0J-100000D01*
G01*
X96845000Y-117775000D01*
G75*
G02*
X96745000Y-117875000I-100000J0D01*
G01*
X95470000Y-117875000D01*
G75*
G02*
X95370000Y-117775000I0J100000D01*
G01*
G37*
G36*
G01*
X95370000Y-118425000D02*
X95370000Y-118225000D01*
G75*
G02*
X95470000Y-118125000I100000J0D01*
G01*
X96745000Y-118125000D01*
G75*
G02*
X96845000Y-118225000I0J-100000D01*
G01*
X96845000Y-118425000D01*
G75*
G02*
X96745000Y-118525000I-100000J0D01*
G01*
X95470000Y-118525000D01*
G75*
G02*
X95370000Y-118425000I0J100000D01*
G01*
G37*
G36*
G01*
X95370000Y-119075000D02*
X95370000Y-118875000D01*
G75*
G02*
X95470000Y-118775000I100000J0D01*
G01*
X96745000Y-118775000D01*
G75*
G02*
X96845000Y-118875000I0J-100000D01*
G01*
X96845000Y-119075000D01*
G75*
G02*
X96745000Y-119175000I-100000J0D01*
G01*
X95470000Y-119175000D01*
G75*
G02*
X95370000Y-119075000I0J100000D01*
G01*
G37*
G36*
G01*
X101095000Y-119075000D02*
X101095000Y-118875000D01*
G75*
G02*
X101195000Y-118775000I100000J0D01*
G01*
X102470000Y-118775000D01*
G75*
G02*
X102570000Y-118875000I0J-100000D01*
G01*
X102570000Y-119075000D01*
G75*
G02*
X102470000Y-119175000I-100000J0D01*
G01*
X101195000Y-119175000D01*
G75*
G02*
X101095000Y-119075000I0J100000D01*
G01*
G37*
G36*
G01*
X101095000Y-118425000D02*
X101095000Y-118225000D01*
G75*
G02*
X101195000Y-118125000I100000J0D01*
G01*
X102470000Y-118125000D01*
G75*
G02*
X102570000Y-118225000I0J-100000D01*
G01*
X102570000Y-118425000D01*
G75*
G02*
X102470000Y-118525000I-100000J0D01*
G01*
X101195000Y-118525000D01*
G75*
G02*
X101095000Y-118425000I0J100000D01*
G01*
G37*
G36*
G01*
X101095000Y-117775000D02*
X101095000Y-117575000D01*
G75*
G02*
X101195000Y-117475000I100000J0D01*
G01*
X102470000Y-117475000D01*
G75*
G02*
X102570000Y-117575000I0J-100000D01*
G01*
X102570000Y-117775000D01*
G75*
G02*
X102470000Y-117875000I-100000J0D01*
G01*
X101195000Y-117875000D01*
G75*
G02*
X101095000Y-117775000I0J100000D01*
G01*
G37*
G36*
G01*
X101095000Y-117125000D02*
X101095000Y-116925000D01*
G75*
G02*
X101195000Y-116825000I100000J0D01*
G01*
X102470000Y-116825000D01*
G75*
G02*
X102570000Y-116925000I0J-100000D01*
G01*
X102570000Y-117125000D01*
G75*
G02*
X102470000Y-117225000I-100000J0D01*
G01*
X101195000Y-117225000D01*
G75*
G02*
X101095000Y-117125000I0J100000D01*
G01*
G37*
G36*
G01*
X101095000Y-116475000D02*
X101095000Y-116275000D01*
G75*
G02*
X101195000Y-116175000I100000J0D01*
G01*
X102470000Y-116175000D01*
G75*
G02*
X102570000Y-116275000I0J-100000D01*
G01*
X102570000Y-116475000D01*
G75*
G02*
X102470000Y-116575000I-100000J0D01*
G01*
X101195000Y-116575000D01*
G75*
G02*
X101095000Y-116475000I0J100000D01*
G01*
G37*
G36*
G01*
X101095000Y-115825000D02*
X101095000Y-115625000D01*
G75*
G02*
X101195000Y-115525000I100000J0D01*
G01*
X102470000Y-115525000D01*
G75*
G02*
X102570000Y-115625000I0J-100000D01*
G01*
X102570000Y-115825000D01*
G75*
G02*
X102470000Y-115925000I-100000J0D01*
G01*
X101195000Y-115925000D01*
G75*
G02*
X101095000Y-115825000I0J100000D01*
G01*
G37*
G36*
G01*
X101095000Y-115175000D02*
X101095000Y-114975000D01*
G75*
G02*
X101195000Y-114875000I100000J0D01*
G01*
X102470000Y-114875000D01*
G75*
G02*
X102570000Y-114975000I0J-100000D01*
G01*
X102570000Y-115175000D01*
G75*
G02*
X102470000Y-115275000I-100000J0D01*
G01*
X101195000Y-115275000D01*
G75*
G02*
X101095000Y-115175000I0J100000D01*
G01*
G37*
G36*
G01*
X101095000Y-114525000D02*
X101095000Y-114325000D01*
G75*
G02*
X101195000Y-114225000I100000J0D01*
G01*
X102470000Y-114225000D01*
G75*
G02*
X102570000Y-114325000I0J-100000D01*
G01*
X102570000Y-114525000D01*
G75*
G02*
X102470000Y-114625000I-100000J0D01*
G01*
X101195000Y-114625000D01*
G75*
G02*
X101095000Y-114525000I0J100000D01*
G01*
G37*
G36*
G01*
X162100000Y-137215000D02*
X162100000Y-134285000D01*
G75*
G02*
X162335000Y-134050000I235000J0D01*
G01*
X164215000Y-134050000D01*
G75*
G02*
X164450000Y-134285000I0J-235000D01*
G01*
X164450000Y-137215000D01*
G75*
G02*
X164215000Y-137450000I-235000J0D01*
G01*
X162335000Y-137450000D01*
G75*
G02*
X162100000Y-137215000I0J235000D01*
G01*
G37*
G36*
G01*
X156050000Y-137215000D02*
X156050000Y-134285000D01*
G75*
G02*
X156285000Y-134050000I235000J0D01*
G01*
X158165000Y-134050000D01*
G75*
G02*
X158400000Y-134285000I0J-235000D01*
G01*
X158400000Y-137215000D01*
G75*
G02*
X158165000Y-137450000I-235000J0D01*
G01*
X156285000Y-137450000D01*
G75*
G02*
X156050000Y-137215000I0J235000D01*
G01*
G37*
G36*
G01*
X162100000Y-144715000D02*
X162100000Y-141785000D01*
G75*
G02*
X162335000Y-141550000I235000J0D01*
G01*
X164215000Y-141550000D01*
G75*
G02*
X164450000Y-141785000I0J-235000D01*
G01*
X164450000Y-144715000D01*
G75*
G02*
X164215000Y-144950000I-235000J0D01*
G01*
X162335000Y-144950000D01*
G75*
G02*
X162100000Y-144715000I0J235000D01*
G01*
G37*
G36*
G01*
X156050000Y-144715000D02*
X156050000Y-141785000D01*
G75*
G02*
X156285000Y-141550000I235000J0D01*
G01*
X158165000Y-141550000D01*
G75*
G02*
X158400000Y-141785000I0J-235000D01*
G01*
X158400000Y-144715000D01*
G75*
G02*
X158165000Y-144950000I-235000J0D01*
G01*
X156285000Y-144950000D01*
G75*
G02*
X156050000Y-144715000I0J235000D01*
G01*
G37*
G36*
G01*
X162100000Y-129465000D02*
X162100000Y-126535000D01*
G75*
G02*
X162335000Y-126300000I235000J0D01*
G01*
X164215000Y-126300000D01*
G75*
G02*
X164450000Y-126535000I0J-235000D01*
G01*
X164450000Y-129465000D01*
G75*
G02*
X164215000Y-129700000I-235000J0D01*
G01*
X162335000Y-129700000D01*
G75*
G02*
X162100000Y-129465000I0J235000D01*
G01*
G37*
G36*
G01*
X156050000Y-129465000D02*
X156050000Y-126535000D01*
G75*
G02*
X156285000Y-126300000I235000J0D01*
G01*
X158165000Y-126300000D01*
G75*
G02*
X158400000Y-126535000I0J-235000D01*
G01*
X158400000Y-129465000D01*
G75*
G02*
X158165000Y-129700000I-235000J0D01*
G01*
X156285000Y-129700000D01*
G75*
G02*
X156050000Y-129465000I0J235000D01*
G01*
G37*
G36*
G01*
X162100000Y-121965000D02*
X162100000Y-119035000D01*
G75*
G02*
X162335000Y-118800000I235000J0D01*
G01*
X164215000Y-118800000D01*
G75*
G02*
X164450000Y-119035000I0J-235000D01*
G01*
X164450000Y-121965000D01*
G75*
G02*
X164215000Y-122200000I-235000J0D01*
G01*
X162335000Y-122200000D01*
G75*
G02*
X162100000Y-121965000I0J235000D01*
G01*
G37*
G36*
G01*
X156050000Y-121965000D02*
X156050000Y-119035000D01*
G75*
G02*
X156285000Y-118800000I235000J0D01*
G01*
X158165000Y-118800000D01*
G75*
G02*
X158400000Y-119035000I0J-235000D01*
G01*
X158400000Y-121965000D01*
G75*
G02*
X158165000Y-122200000I-235000J0D01*
G01*
X156285000Y-122200000D01*
G75*
G02*
X156050000Y-121965000I0J235000D01*
G01*
G37*
G36*
G01*
X151825000Y-132987500D02*
X151825000Y-132512500D01*
G75*
G02*
X152062500Y-132275000I237500J0D01*
G01*
X152662500Y-132275000D01*
G75*
G02*
X152900000Y-132512500I0J-237500D01*
G01*
X152900000Y-132987500D01*
G75*
G02*
X152662500Y-133225000I-237500J0D01*
G01*
X152062500Y-133225000D01*
G75*
G02*
X151825000Y-132987500I0J237500D01*
G01*
G37*
G36*
G01*
X150100000Y-132987500D02*
X150100000Y-132512500D01*
G75*
G02*
X150337500Y-132275000I237500J0D01*
G01*
X150937500Y-132275000D01*
G75*
G02*
X151175000Y-132512500I0J-237500D01*
G01*
X151175000Y-132987500D01*
G75*
G02*
X150937500Y-133225000I-237500J0D01*
G01*
X150337500Y-133225000D01*
G75*
G02*
X150100000Y-132987500I0J237500D01*
G01*
G37*
G36*
G01*
X151825000Y-131237500D02*
X151825000Y-130762500D01*
G75*
G02*
X152062500Y-130525000I237500J0D01*
G01*
X152662500Y-130525000D01*
G75*
G02*
X152900000Y-130762500I0J-237500D01*
G01*
X152900000Y-131237500D01*
G75*
G02*
X152662500Y-131475000I-237500J0D01*
G01*
X152062500Y-131475000D01*
G75*
G02*
X151825000Y-131237500I0J237500D01*
G01*
G37*
G36*
G01*
X150100000Y-131237500D02*
X150100000Y-130762500D01*
G75*
G02*
X150337500Y-130525000I237500J0D01*
G01*
X150937500Y-130525000D01*
G75*
G02*
X151175000Y-130762500I0J-237500D01*
G01*
X151175000Y-131237500D01*
G75*
G02*
X150937500Y-131475000I-237500J0D01*
G01*
X150337500Y-131475000D01*
G75*
G02*
X150100000Y-131237500I0J237500D01*
G01*
G37*
G36*
G01*
X148811872Y-125397748D02*
X149147748Y-125061872D01*
G75*
G02*
X149483624Y-125061872I167938J-167938D01*
G01*
X149907888Y-125486136D01*
G75*
G02*
X149907888Y-125822012I-167938J-167938D01*
G01*
X149572012Y-126157888D01*
G75*
G02*
X149236136Y-126157888I-167938J167938D01*
G01*
X148811872Y-125733624D01*
G75*
G02*
X148811872Y-125397748I167938J167938D01*
G01*
G37*
G36*
G01*
X147592112Y-124177988D02*
X147927988Y-123842112D01*
G75*
G02*
X148263864Y-123842112I167938J-167938D01*
G01*
X148688128Y-124266376D01*
G75*
G02*
X148688128Y-124602252I-167938J-167938D01*
G01*
X148352252Y-124938128D01*
G75*
G02*
X148016376Y-124938128I-167938J167938D01*
G01*
X147592112Y-124513864D01*
G75*
G02*
X147592112Y-124177988I167938J167938D01*
G01*
G37*
D27*
X142250000Y-115500000D03*
D28*
X149750000Y-115500000D03*
G36*
G01*
X151397748Y-127188128D02*
X151061872Y-126852252D01*
G75*
G02*
X151061872Y-126516376I167938J167938D01*
G01*
X151486136Y-126092112D01*
G75*
G02*
X151822012Y-126092112I167938J-167938D01*
G01*
X152157888Y-126427988D01*
G75*
G02*
X152157888Y-126763864I-167938J-167938D01*
G01*
X151733624Y-127188128D01*
G75*
G02*
X151397748Y-127188128I-167938J167938D01*
G01*
G37*
G36*
G01*
X150177988Y-128407888D02*
X149842112Y-128072012D01*
G75*
G02*
X149842112Y-127736136I167938J167938D01*
G01*
X150266376Y-127311872D01*
G75*
G02*
X150602252Y-127311872I167938J-167938D01*
G01*
X150938128Y-127647748D01*
G75*
G02*
X150938128Y-127983624I-167938J-167938D01*
G01*
X150513864Y-128407888D01*
G75*
G02*
X150177988Y-128407888I-167938J167938D01*
G01*
G37*
G36*
G01*
X151061872Y-136897748D02*
X151397748Y-136561872D01*
G75*
G02*
X151733624Y-136561872I167938J-167938D01*
G01*
X152157888Y-136986136D01*
G75*
G02*
X152157888Y-137322012I-167938J-167938D01*
G01*
X151822012Y-137657888D01*
G75*
G02*
X151486136Y-137657888I-167938J167938D01*
G01*
X151061872Y-137233624D01*
G75*
G02*
X151061872Y-136897748I167938J167938D01*
G01*
G37*
G36*
G01*
X149842112Y-135677988D02*
X150177988Y-135342112D01*
G75*
G02*
X150513864Y-135342112I167938J-167938D01*
G01*
X150938128Y-135766376D01*
G75*
G02*
X150938128Y-136102252I-167938J-167938D01*
G01*
X150602252Y-136438128D01*
G75*
G02*
X150266376Y-136438128I-167938J167938D01*
G01*
X149842112Y-136013864D01*
G75*
G02*
X149842112Y-135677988I167938J167938D01*
G01*
G37*
G36*
G01*
X129275000Y-129950000D02*
X130225000Y-129950000D01*
G75*
G02*
X130475000Y-130200000I0J-250000D01*
G01*
X130475000Y-130875000D01*
G75*
G02*
X130225000Y-131125000I-250000J0D01*
G01*
X129275000Y-131125000D01*
G75*
G02*
X129025000Y-130875000I0J250000D01*
G01*
X129025000Y-130200000D01*
G75*
G02*
X129275000Y-129950000I250000J0D01*
G01*
G37*
G36*
G01*
X129275000Y-127875000D02*
X130225000Y-127875000D01*
G75*
G02*
X130475000Y-128125000I0J-250000D01*
G01*
X130475000Y-128800000D01*
G75*
G02*
X130225000Y-129050000I-250000J0D01*
G01*
X129275000Y-129050000D01*
G75*
G02*
X129025000Y-128800000I0J250000D01*
G01*
X129025000Y-128125000D01*
G75*
G02*
X129275000Y-127875000I250000J0D01*
G01*
G37*
G36*
G01*
X134725000Y-129050000D02*
X133775000Y-129050000D01*
G75*
G02*
X133525000Y-128800000I0J250000D01*
G01*
X133525000Y-128125000D01*
G75*
G02*
X133775000Y-127875000I250000J0D01*
G01*
X134725000Y-127875000D01*
G75*
G02*
X134975000Y-128125000I0J-250000D01*
G01*
X134975000Y-128800000D01*
G75*
G02*
X134725000Y-129050000I-250000J0D01*
G01*
G37*
G36*
G01*
X134725000Y-131125000D02*
X133775000Y-131125000D01*
G75*
G02*
X133525000Y-130875000I0J250000D01*
G01*
X133525000Y-130200000D01*
G75*
G02*
X133775000Y-129950000I250000J0D01*
G01*
X134725000Y-129950000D01*
G75*
G02*
X134975000Y-130200000I0J-250000D01*
G01*
X134975000Y-130875000D01*
G75*
G02*
X134725000Y-131125000I-250000J0D01*
G01*
G37*
G36*
G01*
X132475000Y-129050000D02*
X131525000Y-129050000D01*
G75*
G02*
X131275000Y-128800000I0J250000D01*
G01*
X131275000Y-128125000D01*
G75*
G02*
X131525000Y-127875000I250000J0D01*
G01*
X132475000Y-127875000D01*
G75*
G02*
X132725000Y-128125000I0J-250000D01*
G01*
X132725000Y-128800000D01*
G75*
G02*
X132475000Y-129050000I-250000J0D01*
G01*
G37*
G36*
G01*
X132475000Y-131125000D02*
X131525000Y-131125000D01*
G75*
G02*
X131275000Y-130875000I0J250000D01*
G01*
X131275000Y-130200000D01*
G75*
G02*
X131525000Y-129950000I250000J0D01*
G01*
X132475000Y-129950000D01*
G75*
G02*
X132725000Y-130200000I0J-250000D01*
G01*
X132725000Y-130875000D01*
G75*
G02*
X132475000Y-131125000I-250000J0D01*
G01*
G37*
G36*
G01*
X90575000Y-121487500D02*
X90575000Y-121012500D01*
G75*
G02*
X90812500Y-120775000I237500J0D01*
G01*
X91412500Y-120775000D01*
G75*
G02*
X91650000Y-121012500I0J-237500D01*
G01*
X91650000Y-121487500D01*
G75*
G02*
X91412500Y-121725000I-237500J0D01*
G01*
X90812500Y-121725000D01*
G75*
G02*
X90575000Y-121487500I0J237500D01*
G01*
G37*
G36*
G01*
X88850000Y-121487500D02*
X88850000Y-121012500D01*
G75*
G02*
X89087500Y-120775000I237500J0D01*
G01*
X89687500Y-120775000D01*
G75*
G02*
X89925000Y-121012500I0J-237500D01*
G01*
X89925000Y-121487500D01*
G75*
G02*
X89687500Y-121725000I-237500J0D01*
G01*
X89087500Y-121725000D01*
G75*
G02*
X88850000Y-121487500I0J237500D01*
G01*
G37*
G36*
G01*
X99325000Y-120737500D02*
X99325000Y-120262500D01*
G75*
G02*
X99562500Y-120025000I237500J0D01*
G01*
X100162500Y-120025000D01*
G75*
G02*
X100400000Y-120262500I0J-237500D01*
G01*
X100400000Y-120737500D01*
G75*
G02*
X100162500Y-120975000I-237500J0D01*
G01*
X99562500Y-120975000D01*
G75*
G02*
X99325000Y-120737500I0J237500D01*
G01*
G37*
G36*
G01*
X97600000Y-120737500D02*
X97600000Y-120262500D01*
G75*
G02*
X97837500Y-120025000I237500J0D01*
G01*
X98437500Y-120025000D01*
G75*
G02*
X98675000Y-120262500I0J-237500D01*
G01*
X98675000Y-120737500D01*
G75*
G02*
X98437500Y-120975000I-237500J0D01*
G01*
X97837500Y-120975000D01*
G75*
G02*
X97600000Y-120737500I0J237500D01*
G01*
G37*
G36*
G01*
X99450000Y-112975000D02*
X99450000Y-112025000D01*
G75*
G02*
X99700000Y-111775000I250000J0D01*
G01*
X100375000Y-111775000D01*
G75*
G02*
X100625000Y-112025000I0J-250000D01*
G01*
X100625000Y-112975000D01*
G75*
G02*
X100375000Y-113225000I-250000J0D01*
G01*
X99700000Y-113225000D01*
G75*
G02*
X99450000Y-112975000I0J250000D01*
G01*
G37*
G36*
G01*
X97375000Y-112975000D02*
X97375000Y-112025000D01*
G75*
G02*
X97625000Y-111775000I250000J0D01*
G01*
X98300000Y-111775000D01*
G75*
G02*
X98550000Y-112025000I0J-250000D01*
G01*
X98550000Y-112975000D01*
G75*
G02*
X98300000Y-113225000I-250000J0D01*
G01*
X97625000Y-113225000D01*
G75*
G02*
X97375000Y-112975000I0J250000D01*
G01*
G37*
G36*
G01*
X99487500Y-123225000D02*
X99487500Y-122275000D01*
G75*
G02*
X99737500Y-122025000I250000J0D01*
G01*
X100412500Y-122025000D01*
G75*
G02*
X100662500Y-122275000I0J-250000D01*
G01*
X100662500Y-123225000D01*
G75*
G02*
X100412500Y-123475000I-250000J0D01*
G01*
X99737500Y-123475000D01*
G75*
G02*
X99487500Y-123225000I0J250000D01*
G01*
G37*
G36*
G01*
X97412500Y-123225000D02*
X97412500Y-122275000D01*
G75*
G02*
X97662500Y-122025000I250000J0D01*
G01*
X98337500Y-122025000D01*
G75*
G02*
X98587500Y-122275000I0J-250000D01*
G01*
X98587500Y-123225000D01*
G75*
G02*
X98337500Y-123475000I-250000J0D01*
G01*
X97662500Y-123475000D01*
G75*
G02*
X97412500Y-123225000I0J250000D01*
G01*
G37*
G36*
G01*
X90700000Y-123975000D02*
X90700000Y-123025000D01*
G75*
G02*
X90950000Y-122775000I250000J0D01*
G01*
X91625000Y-122775000D01*
G75*
G02*
X91875000Y-123025000I0J-250000D01*
G01*
X91875000Y-123975000D01*
G75*
G02*
X91625000Y-124225000I-250000J0D01*
G01*
X90950000Y-124225000D01*
G75*
G02*
X90700000Y-123975000I0J250000D01*
G01*
G37*
G36*
G01*
X88625000Y-123975000D02*
X88625000Y-123025000D01*
G75*
G02*
X88875000Y-122775000I250000J0D01*
G01*
X89550000Y-122775000D01*
G75*
G02*
X89800000Y-123025000I0J-250000D01*
G01*
X89800000Y-123975000D01*
G75*
G02*
X89550000Y-124225000I-250000J0D01*
G01*
X88875000Y-124225000D01*
G75*
G02*
X88625000Y-123975000I0J250000D01*
G01*
G37*
D29*
X89000000Y-75400000D03*
D17*
X94150000Y-77000000D03*
X83850000Y-77000000D03*
D29*
X72000000Y-75400000D03*
D17*
X77150000Y-77000000D03*
X66850000Y-77000000D03*
D30*
X99200000Y-72150000D03*
X99200000Y-74350000D03*
X100800000Y-74350000D03*
X100800000Y-72150000D03*
D31*
X115500000Y-71950000D03*
X115500000Y-72750000D03*
X115500000Y-73550000D03*
X115500000Y-74350000D03*
X115500000Y-75150000D03*
X115500000Y-75950000D03*
X115500000Y-76750000D03*
X115500000Y-77550000D03*
D32*
X114050000Y-79000000D03*
X113250000Y-79000000D03*
X112450000Y-79000000D03*
X111650000Y-79000000D03*
X110850000Y-79000000D03*
X110050000Y-79000000D03*
X109250000Y-79000000D03*
X108450000Y-79000000D03*
D31*
X107000000Y-77550000D03*
X107000000Y-76750000D03*
X107000000Y-75950000D03*
X107000000Y-75150000D03*
X107000000Y-74350000D03*
X107000000Y-73550000D03*
X107000000Y-72750000D03*
X107000000Y-71950000D03*
D32*
X108450000Y-70500000D03*
X109250000Y-70500000D03*
X110050000Y-70500000D03*
X110850000Y-70500000D03*
X111650000Y-70500000D03*
X112450000Y-70500000D03*
X113250000Y-70500000D03*
X114050000Y-70500000D03*
D33*
X112550000Y-87850000D03*
X113500000Y-87850000D03*
X114450000Y-87850000D03*
X114450000Y-85650000D03*
X112550000Y-85650000D03*
X113500000Y-85650000D03*
D34*
X218850000Y-95700000D03*
X218850000Y-100300000D03*
X218850000Y-98000000D03*
D35*
X225150000Y-98000000D03*
D36*
X195400000Y-91750000D03*
X195400000Y-92700000D03*
X195400000Y-90800000D03*
X197600000Y-90800000D03*
X197600000Y-91750000D03*
X197600000Y-92700000D03*
X213350000Y-83250000D03*
X213350000Y-82300000D03*
X213350000Y-84200000D03*
X211150000Y-84200000D03*
X211150000Y-83250000D03*
X211150000Y-82300000D03*
G36*
G01*
X106625000Y-97562500D02*
X106625000Y-97437500D01*
G75*
G02*
X106687500Y-97375000I62500J0D01*
G01*
X107437500Y-97375000D01*
G75*
G02*
X107500000Y-97437500I0J-62500D01*
G01*
X107500000Y-97562500D01*
G75*
G02*
X107437500Y-97625000I-62500J0D01*
G01*
X106687500Y-97625000D01*
G75*
G02*
X106625000Y-97562500I0J62500D01*
G01*
G37*
G36*
G01*
X106625000Y-98062500D02*
X106625000Y-97937500D01*
G75*
G02*
X106687500Y-97875000I62500J0D01*
G01*
X107437500Y-97875000D01*
G75*
G02*
X107500000Y-97937500I0J-62500D01*
G01*
X107500000Y-98062500D01*
G75*
G02*
X107437500Y-98125000I-62500J0D01*
G01*
X106687500Y-98125000D01*
G75*
G02*
X106625000Y-98062500I0J62500D01*
G01*
G37*
G36*
G01*
X106625000Y-98562500D02*
X106625000Y-98437500D01*
G75*
G02*
X106687500Y-98375000I62500J0D01*
G01*
X107437500Y-98375000D01*
G75*
G02*
X107500000Y-98437500I0J-62500D01*
G01*
X107500000Y-98562500D01*
G75*
G02*
X107437500Y-98625000I-62500J0D01*
G01*
X106687500Y-98625000D01*
G75*
G02*
X106625000Y-98562500I0J62500D01*
G01*
G37*
G36*
G01*
X106625000Y-99062500D02*
X106625000Y-98937500D01*
G75*
G02*
X106687500Y-98875000I62500J0D01*
G01*
X107437500Y-98875000D01*
G75*
G02*
X107500000Y-98937500I0J-62500D01*
G01*
X107500000Y-99062500D01*
G75*
G02*
X107437500Y-99125000I-62500J0D01*
G01*
X106687500Y-99125000D01*
G75*
G02*
X106625000Y-99062500I0J62500D01*
G01*
G37*
G36*
G01*
X106625000Y-99562500D02*
X106625000Y-99437500D01*
G75*
G02*
X106687500Y-99375000I62500J0D01*
G01*
X107437500Y-99375000D01*
G75*
G02*
X107500000Y-99437500I0J-62500D01*
G01*
X107500000Y-99562500D01*
G75*
G02*
X107437500Y-99625000I-62500J0D01*
G01*
X106687500Y-99625000D01*
G75*
G02*
X106625000Y-99562500I0J62500D01*
G01*
G37*
G36*
G01*
X106625000Y-100062500D02*
X106625000Y-99937500D01*
G75*
G02*
X106687500Y-99875000I62500J0D01*
G01*
X107437500Y-99875000D01*
G75*
G02*
X107500000Y-99937500I0J-62500D01*
G01*
X107500000Y-100062500D01*
G75*
G02*
X107437500Y-100125000I-62500J0D01*
G01*
X106687500Y-100125000D01*
G75*
G02*
X106625000Y-100062500I0J62500D01*
G01*
G37*
G36*
G01*
X106625000Y-100562500D02*
X106625000Y-100437500D01*
G75*
G02*
X106687500Y-100375000I62500J0D01*
G01*
X107437500Y-100375000D01*
G75*
G02*
X107500000Y-100437500I0J-62500D01*
G01*
X107500000Y-100562500D01*
G75*
G02*
X107437500Y-100625000I-62500J0D01*
G01*
X106687500Y-100625000D01*
G75*
G02*
X106625000Y-100562500I0J62500D01*
G01*
G37*
G36*
G01*
X106625000Y-101062500D02*
X106625000Y-100937500D01*
G75*
G02*
X106687500Y-100875000I62500J0D01*
G01*
X107437500Y-100875000D01*
G75*
G02*
X107500000Y-100937500I0J-62500D01*
G01*
X107500000Y-101062500D01*
G75*
G02*
X107437500Y-101125000I-62500J0D01*
G01*
X106687500Y-101125000D01*
G75*
G02*
X106625000Y-101062500I0J62500D01*
G01*
G37*
G36*
G01*
X106625000Y-101562500D02*
X106625000Y-101437500D01*
G75*
G02*
X106687500Y-101375000I62500J0D01*
G01*
X107437500Y-101375000D01*
G75*
G02*
X107500000Y-101437500I0J-62500D01*
G01*
X107500000Y-101562500D01*
G75*
G02*
X107437500Y-101625000I-62500J0D01*
G01*
X106687500Y-101625000D01*
G75*
G02*
X106625000Y-101562500I0J62500D01*
G01*
G37*
G36*
G01*
X106625000Y-102062500D02*
X106625000Y-101937500D01*
G75*
G02*
X106687500Y-101875000I62500J0D01*
G01*
X107437500Y-101875000D01*
G75*
G02*
X107500000Y-101937500I0J-62500D01*
G01*
X107500000Y-102062500D01*
G75*
G02*
X107437500Y-102125000I-62500J0D01*
G01*
X106687500Y-102125000D01*
G75*
G02*
X106625000Y-102062500I0J62500D01*
G01*
G37*
G36*
G01*
X106625000Y-102562500D02*
X106625000Y-102437500D01*
G75*
G02*
X106687500Y-102375000I62500J0D01*
G01*
X107437500Y-102375000D01*
G75*
G02*
X107500000Y-102437500I0J-62500D01*
G01*
X107500000Y-102562500D01*
G75*
G02*
X107437500Y-102625000I-62500J0D01*
G01*
X106687500Y-102625000D01*
G75*
G02*
X106625000Y-102562500I0J62500D01*
G01*
G37*
G36*
G01*
X106625000Y-103062500D02*
X106625000Y-102937500D01*
G75*
G02*
X106687500Y-102875000I62500J0D01*
G01*
X107437500Y-102875000D01*
G75*
G02*
X107500000Y-102937500I0J-62500D01*
G01*
X107500000Y-103062500D01*
G75*
G02*
X107437500Y-103125000I-62500J0D01*
G01*
X106687500Y-103125000D01*
G75*
G02*
X106625000Y-103062500I0J62500D01*
G01*
G37*
G36*
G01*
X106625000Y-103562500D02*
X106625000Y-103437500D01*
G75*
G02*
X106687500Y-103375000I62500J0D01*
G01*
X107437500Y-103375000D01*
G75*
G02*
X107500000Y-103437500I0J-62500D01*
G01*
X107500000Y-103562500D01*
G75*
G02*
X107437500Y-103625000I-62500J0D01*
G01*
X106687500Y-103625000D01*
G75*
G02*
X106625000Y-103562500I0J62500D01*
G01*
G37*
G36*
G01*
X106625000Y-104062500D02*
X106625000Y-103937500D01*
G75*
G02*
X106687500Y-103875000I62500J0D01*
G01*
X107437500Y-103875000D01*
G75*
G02*
X107500000Y-103937500I0J-62500D01*
G01*
X107500000Y-104062500D01*
G75*
G02*
X107437500Y-104125000I-62500J0D01*
G01*
X106687500Y-104125000D01*
G75*
G02*
X106625000Y-104062500I0J62500D01*
G01*
G37*
G36*
G01*
X106625000Y-104562500D02*
X106625000Y-104437500D01*
G75*
G02*
X106687500Y-104375000I62500J0D01*
G01*
X107437500Y-104375000D01*
G75*
G02*
X107500000Y-104437500I0J-62500D01*
G01*
X107500000Y-104562500D01*
G75*
G02*
X107437500Y-104625000I-62500J0D01*
G01*
X106687500Y-104625000D01*
G75*
G02*
X106625000Y-104562500I0J62500D01*
G01*
G37*
G36*
G01*
X106625000Y-105062500D02*
X106625000Y-104937500D01*
G75*
G02*
X106687500Y-104875000I62500J0D01*
G01*
X107437500Y-104875000D01*
G75*
G02*
X107500000Y-104937500I0J-62500D01*
G01*
X107500000Y-105062500D01*
G75*
G02*
X107437500Y-105125000I-62500J0D01*
G01*
X106687500Y-105125000D01*
G75*
G02*
X106625000Y-105062500I0J62500D01*
G01*
G37*
G36*
G01*
X106625000Y-105562500D02*
X106625000Y-105437500D01*
G75*
G02*
X106687500Y-105375000I62500J0D01*
G01*
X107437500Y-105375000D01*
G75*
G02*
X107500000Y-105437500I0J-62500D01*
G01*
X107500000Y-105562500D01*
G75*
G02*
X107437500Y-105625000I-62500J0D01*
G01*
X106687500Y-105625000D01*
G75*
G02*
X106625000Y-105562500I0J62500D01*
G01*
G37*
G36*
G01*
X106625000Y-106062500D02*
X106625000Y-105937500D01*
G75*
G02*
X106687500Y-105875000I62500J0D01*
G01*
X107437500Y-105875000D01*
G75*
G02*
X107500000Y-105937500I0J-62500D01*
G01*
X107500000Y-106062500D01*
G75*
G02*
X107437500Y-106125000I-62500J0D01*
G01*
X106687500Y-106125000D01*
G75*
G02*
X106625000Y-106062500I0J62500D01*
G01*
G37*
G36*
G01*
X107625000Y-107062500D02*
X107625000Y-106312500D01*
G75*
G02*
X107687500Y-106250000I62500J0D01*
G01*
X107812500Y-106250000D01*
G75*
G02*
X107875000Y-106312500I0J-62500D01*
G01*
X107875000Y-107062500D01*
G75*
G02*
X107812500Y-107125000I-62500J0D01*
G01*
X107687500Y-107125000D01*
G75*
G02*
X107625000Y-107062500I0J62500D01*
G01*
G37*
G36*
G01*
X108125000Y-107062500D02*
X108125000Y-106312500D01*
G75*
G02*
X108187500Y-106250000I62500J0D01*
G01*
X108312500Y-106250000D01*
G75*
G02*
X108375000Y-106312500I0J-62500D01*
G01*
X108375000Y-107062500D01*
G75*
G02*
X108312500Y-107125000I-62500J0D01*
G01*
X108187500Y-107125000D01*
G75*
G02*
X108125000Y-107062500I0J62500D01*
G01*
G37*
G36*
G01*
X108625000Y-107062500D02*
X108625000Y-106312500D01*
G75*
G02*
X108687500Y-106250000I62500J0D01*
G01*
X108812500Y-106250000D01*
G75*
G02*
X108875000Y-106312500I0J-62500D01*
G01*
X108875000Y-107062500D01*
G75*
G02*
X108812500Y-107125000I-62500J0D01*
G01*
X108687500Y-107125000D01*
G75*
G02*
X108625000Y-107062500I0J62500D01*
G01*
G37*
G36*
G01*
X109125000Y-107062500D02*
X109125000Y-106312500D01*
G75*
G02*
X109187500Y-106250000I62500J0D01*
G01*
X109312500Y-106250000D01*
G75*
G02*
X109375000Y-106312500I0J-62500D01*
G01*
X109375000Y-107062500D01*
G75*
G02*
X109312500Y-107125000I-62500J0D01*
G01*
X109187500Y-107125000D01*
G75*
G02*
X109125000Y-107062500I0J62500D01*
G01*
G37*
G36*
G01*
X109625000Y-107062500D02*
X109625000Y-106312500D01*
G75*
G02*
X109687500Y-106250000I62500J0D01*
G01*
X109812500Y-106250000D01*
G75*
G02*
X109875000Y-106312500I0J-62500D01*
G01*
X109875000Y-107062500D01*
G75*
G02*
X109812500Y-107125000I-62500J0D01*
G01*
X109687500Y-107125000D01*
G75*
G02*
X109625000Y-107062500I0J62500D01*
G01*
G37*
G36*
G01*
X110125000Y-107062500D02*
X110125000Y-106312500D01*
G75*
G02*
X110187500Y-106250000I62500J0D01*
G01*
X110312500Y-106250000D01*
G75*
G02*
X110375000Y-106312500I0J-62500D01*
G01*
X110375000Y-107062500D01*
G75*
G02*
X110312500Y-107125000I-62500J0D01*
G01*
X110187500Y-107125000D01*
G75*
G02*
X110125000Y-107062500I0J62500D01*
G01*
G37*
G36*
G01*
X110625000Y-107062500D02*
X110625000Y-106312500D01*
G75*
G02*
X110687500Y-106250000I62500J0D01*
G01*
X110812500Y-106250000D01*
G75*
G02*
X110875000Y-106312500I0J-62500D01*
G01*
X110875000Y-107062500D01*
G75*
G02*
X110812500Y-107125000I-62500J0D01*
G01*
X110687500Y-107125000D01*
G75*
G02*
X110625000Y-107062500I0J62500D01*
G01*
G37*
G36*
G01*
X111125000Y-107062500D02*
X111125000Y-106312500D01*
G75*
G02*
X111187500Y-106250000I62500J0D01*
G01*
X111312500Y-106250000D01*
G75*
G02*
X111375000Y-106312500I0J-62500D01*
G01*
X111375000Y-107062500D01*
G75*
G02*
X111312500Y-107125000I-62500J0D01*
G01*
X111187500Y-107125000D01*
G75*
G02*
X111125000Y-107062500I0J62500D01*
G01*
G37*
G36*
G01*
X111625000Y-107062500D02*
X111625000Y-106312500D01*
G75*
G02*
X111687500Y-106250000I62500J0D01*
G01*
X111812500Y-106250000D01*
G75*
G02*
X111875000Y-106312500I0J-62500D01*
G01*
X111875000Y-107062500D01*
G75*
G02*
X111812500Y-107125000I-62500J0D01*
G01*
X111687500Y-107125000D01*
G75*
G02*
X111625000Y-107062500I0J62500D01*
G01*
G37*
G36*
G01*
X112125000Y-107062500D02*
X112125000Y-106312500D01*
G75*
G02*
X112187500Y-106250000I62500J0D01*
G01*
X112312500Y-106250000D01*
G75*
G02*
X112375000Y-106312500I0J-62500D01*
G01*
X112375000Y-107062500D01*
G75*
G02*
X112312500Y-107125000I-62500J0D01*
G01*
X112187500Y-107125000D01*
G75*
G02*
X112125000Y-107062500I0J62500D01*
G01*
G37*
G36*
G01*
X112625000Y-107062500D02*
X112625000Y-106312500D01*
G75*
G02*
X112687500Y-106250000I62500J0D01*
G01*
X112812500Y-106250000D01*
G75*
G02*
X112875000Y-106312500I0J-62500D01*
G01*
X112875000Y-107062500D01*
G75*
G02*
X112812500Y-107125000I-62500J0D01*
G01*
X112687500Y-107125000D01*
G75*
G02*
X112625000Y-107062500I0J62500D01*
G01*
G37*
G36*
G01*
X113125000Y-107062500D02*
X113125000Y-106312500D01*
G75*
G02*
X113187500Y-106250000I62500J0D01*
G01*
X113312500Y-106250000D01*
G75*
G02*
X113375000Y-106312500I0J-62500D01*
G01*
X113375000Y-107062500D01*
G75*
G02*
X113312500Y-107125000I-62500J0D01*
G01*
X113187500Y-107125000D01*
G75*
G02*
X113125000Y-107062500I0J62500D01*
G01*
G37*
G36*
G01*
X113625000Y-107062500D02*
X113625000Y-106312500D01*
G75*
G02*
X113687500Y-106250000I62500J0D01*
G01*
X113812500Y-106250000D01*
G75*
G02*
X113875000Y-106312500I0J-62500D01*
G01*
X113875000Y-107062500D01*
G75*
G02*
X113812500Y-107125000I-62500J0D01*
G01*
X113687500Y-107125000D01*
G75*
G02*
X113625000Y-107062500I0J62500D01*
G01*
G37*
G36*
G01*
X114125000Y-107062500D02*
X114125000Y-106312500D01*
G75*
G02*
X114187500Y-106250000I62500J0D01*
G01*
X114312500Y-106250000D01*
G75*
G02*
X114375000Y-106312500I0J-62500D01*
G01*
X114375000Y-107062500D01*
G75*
G02*
X114312500Y-107125000I-62500J0D01*
G01*
X114187500Y-107125000D01*
G75*
G02*
X114125000Y-107062500I0J62500D01*
G01*
G37*
G36*
G01*
X114625000Y-107062500D02*
X114625000Y-106312500D01*
G75*
G02*
X114687500Y-106250000I62500J0D01*
G01*
X114812500Y-106250000D01*
G75*
G02*
X114875000Y-106312500I0J-62500D01*
G01*
X114875000Y-107062500D01*
G75*
G02*
X114812500Y-107125000I-62500J0D01*
G01*
X114687500Y-107125000D01*
G75*
G02*
X114625000Y-107062500I0J62500D01*
G01*
G37*
G36*
G01*
X115125000Y-107062500D02*
X115125000Y-106312500D01*
G75*
G02*
X115187500Y-106250000I62500J0D01*
G01*
X115312500Y-106250000D01*
G75*
G02*
X115375000Y-106312500I0J-62500D01*
G01*
X115375000Y-107062500D01*
G75*
G02*
X115312500Y-107125000I-62500J0D01*
G01*
X115187500Y-107125000D01*
G75*
G02*
X115125000Y-107062500I0J62500D01*
G01*
G37*
G36*
G01*
X115625000Y-107062500D02*
X115625000Y-106312500D01*
G75*
G02*
X115687500Y-106250000I62500J0D01*
G01*
X115812500Y-106250000D01*
G75*
G02*
X115875000Y-106312500I0J-62500D01*
G01*
X115875000Y-107062500D01*
G75*
G02*
X115812500Y-107125000I-62500J0D01*
G01*
X115687500Y-107125000D01*
G75*
G02*
X115625000Y-107062500I0J62500D01*
G01*
G37*
G36*
G01*
X116125000Y-107062500D02*
X116125000Y-106312500D01*
G75*
G02*
X116187500Y-106250000I62500J0D01*
G01*
X116312500Y-106250000D01*
G75*
G02*
X116375000Y-106312500I0J-62500D01*
G01*
X116375000Y-107062500D01*
G75*
G02*
X116312500Y-107125000I-62500J0D01*
G01*
X116187500Y-107125000D01*
G75*
G02*
X116125000Y-107062500I0J62500D01*
G01*
G37*
G36*
G01*
X116500000Y-106062500D02*
X116500000Y-105937500D01*
G75*
G02*
X116562500Y-105875000I62500J0D01*
G01*
X117312500Y-105875000D01*
G75*
G02*
X117375000Y-105937500I0J-62500D01*
G01*
X117375000Y-106062500D01*
G75*
G02*
X117312500Y-106125000I-62500J0D01*
G01*
X116562500Y-106125000D01*
G75*
G02*
X116500000Y-106062500I0J62500D01*
G01*
G37*
G36*
G01*
X116500000Y-105562500D02*
X116500000Y-105437500D01*
G75*
G02*
X116562500Y-105375000I62500J0D01*
G01*
X117312500Y-105375000D01*
G75*
G02*
X117375000Y-105437500I0J-62500D01*
G01*
X117375000Y-105562500D01*
G75*
G02*
X117312500Y-105625000I-62500J0D01*
G01*
X116562500Y-105625000D01*
G75*
G02*
X116500000Y-105562500I0J62500D01*
G01*
G37*
G36*
G01*
X116500000Y-105062500D02*
X116500000Y-104937500D01*
G75*
G02*
X116562500Y-104875000I62500J0D01*
G01*
X117312500Y-104875000D01*
G75*
G02*
X117375000Y-104937500I0J-62500D01*
G01*
X117375000Y-105062500D01*
G75*
G02*
X117312500Y-105125000I-62500J0D01*
G01*
X116562500Y-105125000D01*
G75*
G02*
X116500000Y-105062500I0J62500D01*
G01*
G37*
G36*
G01*
X116500000Y-104562500D02*
X116500000Y-104437500D01*
G75*
G02*
X116562500Y-104375000I62500J0D01*
G01*
X117312500Y-104375000D01*
G75*
G02*
X117375000Y-104437500I0J-62500D01*
G01*
X117375000Y-104562500D01*
G75*
G02*
X117312500Y-104625000I-62500J0D01*
G01*
X116562500Y-104625000D01*
G75*
G02*
X116500000Y-104562500I0J62500D01*
G01*
G37*
G36*
G01*
X116500000Y-104062500D02*
X116500000Y-103937500D01*
G75*
G02*
X116562500Y-103875000I62500J0D01*
G01*
X117312500Y-103875000D01*
G75*
G02*
X117375000Y-103937500I0J-62500D01*
G01*
X117375000Y-104062500D01*
G75*
G02*
X117312500Y-104125000I-62500J0D01*
G01*
X116562500Y-104125000D01*
G75*
G02*
X116500000Y-104062500I0J62500D01*
G01*
G37*
G36*
G01*
X116500000Y-103562500D02*
X116500000Y-103437500D01*
G75*
G02*
X116562500Y-103375000I62500J0D01*
G01*
X117312500Y-103375000D01*
G75*
G02*
X117375000Y-103437500I0J-62500D01*
G01*
X117375000Y-103562500D01*
G75*
G02*
X117312500Y-103625000I-62500J0D01*
G01*
X116562500Y-103625000D01*
G75*
G02*
X116500000Y-103562500I0J62500D01*
G01*
G37*
G36*
G01*
X116500000Y-103062500D02*
X116500000Y-102937500D01*
G75*
G02*
X116562500Y-102875000I62500J0D01*
G01*
X117312500Y-102875000D01*
G75*
G02*
X117375000Y-102937500I0J-62500D01*
G01*
X117375000Y-103062500D01*
G75*
G02*
X117312500Y-103125000I-62500J0D01*
G01*
X116562500Y-103125000D01*
G75*
G02*
X116500000Y-103062500I0J62500D01*
G01*
G37*
G36*
G01*
X116500000Y-102562500D02*
X116500000Y-102437500D01*
G75*
G02*
X116562500Y-102375000I62500J0D01*
G01*
X117312500Y-102375000D01*
G75*
G02*
X117375000Y-102437500I0J-62500D01*
G01*
X117375000Y-102562500D01*
G75*
G02*
X117312500Y-102625000I-62500J0D01*
G01*
X116562500Y-102625000D01*
G75*
G02*
X116500000Y-102562500I0J62500D01*
G01*
G37*
G36*
G01*
X116500000Y-102062500D02*
X116500000Y-101937500D01*
G75*
G02*
X116562500Y-101875000I62500J0D01*
G01*
X117312500Y-101875000D01*
G75*
G02*
X117375000Y-101937500I0J-62500D01*
G01*
X117375000Y-102062500D01*
G75*
G02*
X117312500Y-102125000I-62500J0D01*
G01*
X116562500Y-102125000D01*
G75*
G02*
X116500000Y-102062500I0J62500D01*
G01*
G37*
G36*
G01*
X116500000Y-101562500D02*
X116500000Y-101437500D01*
G75*
G02*
X116562500Y-101375000I62500J0D01*
G01*
X117312500Y-101375000D01*
G75*
G02*
X117375000Y-101437500I0J-62500D01*
G01*
X117375000Y-101562500D01*
G75*
G02*
X117312500Y-101625000I-62500J0D01*
G01*
X116562500Y-101625000D01*
G75*
G02*
X116500000Y-101562500I0J62500D01*
G01*
G37*
G36*
G01*
X116500000Y-101062500D02*
X116500000Y-100937500D01*
G75*
G02*
X116562500Y-100875000I62500J0D01*
G01*
X117312500Y-100875000D01*
G75*
G02*
X117375000Y-100937500I0J-62500D01*
G01*
X117375000Y-101062500D01*
G75*
G02*
X117312500Y-101125000I-62500J0D01*
G01*
X116562500Y-101125000D01*
G75*
G02*
X116500000Y-101062500I0J62500D01*
G01*
G37*
G36*
G01*
X116500000Y-100562500D02*
X116500000Y-100437500D01*
G75*
G02*
X116562500Y-100375000I62500J0D01*
G01*
X117312500Y-100375000D01*
G75*
G02*
X117375000Y-100437500I0J-62500D01*
G01*
X117375000Y-100562500D01*
G75*
G02*
X117312500Y-100625000I-62500J0D01*
G01*
X116562500Y-100625000D01*
G75*
G02*
X116500000Y-100562500I0J62500D01*
G01*
G37*
G36*
G01*
X116500000Y-100062500D02*
X116500000Y-99937500D01*
G75*
G02*
X116562500Y-99875000I62500J0D01*
G01*
X117312500Y-99875000D01*
G75*
G02*
X117375000Y-99937500I0J-62500D01*
G01*
X117375000Y-100062500D01*
G75*
G02*
X117312500Y-100125000I-62500J0D01*
G01*
X116562500Y-100125000D01*
G75*
G02*
X116500000Y-100062500I0J62500D01*
G01*
G37*
G36*
G01*
X116500000Y-99562500D02*
X116500000Y-99437500D01*
G75*
G02*
X116562500Y-99375000I62500J0D01*
G01*
X117312500Y-99375000D01*
G75*
G02*
X117375000Y-99437500I0J-62500D01*
G01*
X117375000Y-99562500D01*
G75*
G02*
X117312500Y-99625000I-62500J0D01*
G01*
X116562500Y-99625000D01*
G75*
G02*
X116500000Y-99562500I0J62500D01*
G01*
G37*
G36*
G01*
X116500000Y-99062500D02*
X116500000Y-98937500D01*
G75*
G02*
X116562500Y-98875000I62500J0D01*
G01*
X117312500Y-98875000D01*
G75*
G02*
X117375000Y-98937500I0J-62500D01*
G01*
X117375000Y-99062500D01*
G75*
G02*
X117312500Y-99125000I-62500J0D01*
G01*
X116562500Y-99125000D01*
G75*
G02*
X116500000Y-99062500I0J62500D01*
G01*
G37*
G36*
G01*
X116500000Y-98562500D02*
X116500000Y-98437500D01*
G75*
G02*
X116562500Y-98375000I62500J0D01*
G01*
X117312500Y-98375000D01*
G75*
G02*
X117375000Y-98437500I0J-62500D01*
G01*
X117375000Y-98562500D01*
G75*
G02*
X117312500Y-98625000I-62500J0D01*
G01*
X116562500Y-98625000D01*
G75*
G02*
X116500000Y-98562500I0J62500D01*
G01*
G37*
G36*
G01*
X116500000Y-98062500D02*
X116500000Y-97937500D01*
G75*
G02*
X116562500Y-97875000I62500J0D01*
G01*
X117312500Y-97875000D01*
G75*
G02*
X117375000Y-97937500I0J-62500D01*
G01*
X117375000Y-98062500D01*
G75*
G02*
X117312500Y-98125000I-62500J0D01*
G01*
X116562500Y-98125000D01*
G75*
G02*
X116500000Y-98062500I0J62500D01*
G01*
G37*
G36*
G01*
X116500000Y-97562500D02*
X116500000Y-97437500D01*
G75*
G02*
X116562500Y-97375000I62500J0D01*
G01*
X117312500Y-97375000D01*
G75*
G02*
X117375000Y-97437500I0J-62500D01*
G01*
X117375000Y-97562500D01*
G75*
G02*
X117312500Y-97625000I-62500J0D01*
G01*
X116562500Y-97625000D01*
G75*
G02*
X116500000Y-97562500I0J62500D01*
G01*
G37*
G36*
G01*
X116125000Y-97187500D02*
X116125000Y-96437500D01*
G75*
G02*
X116187500Y-96375000I62500J0D01*
G01*
X116312500Y-96375000D01*
G75*
G02*
X116375000Y-96437500I0J-62500D01*
G01*
X116375000Y-97187500D01*
G75*
G02*
X116312500Y-97250000I-62500J0D01*
G01*
X116187500Y-97250000D01*
G75*
G02*
X116125000Y-97187500I0J62500D01*
G01*
G37*
G36*
G01*
X115625000Y-97187500D02*
X115625000Y-96437500D01*
G75*
G02*
X115687500Y-96375000I62500J0D01*
G01*
X115812500Y-96375000D01*
G75*
G02*
X115875000Y-96437500I0J-62500D01*
G01*
X115875000Y-97187500D01*
G75*
G02*
X115812500Y-97250000I-62500J0D01*
G01*
X115687500Y-97250000D01*
G75*
G02*
X115625000Y-97187500I0J62500D01*
G01*
G37*
G36*
G01*
X115125000Y-97187500D02*
X115125000Y-96437500D01*
G75*
G02*
X115187500Y-96375000I62500J0D01*
G01*
X115312500Y-96375000D01*
G75*
G02*
X115375000Y-96437500I0J-62500D01*
G01*
X115375000Y-97187500D01*
G75*
G02*
X115312500Y-97250000I-62500J0D01*
G01*
X115187500Y-97250000D01*
G75*
G02*
X115125000Y-97187500I0J62500D01*
G01*
G37*
G36*
G01*
X114625000Y-97187500D02*
X114625000Y-96437500D01*
G75*
G02*
X114687500Y-96375000I62500J0D01*
G01*
X114812500Y-96375000D01*
G75*
G02*
X114875000Y-96437500I0J-62500D01*
G01*
X114875000Y-97187500D01*
G75*
G02*
X114812500Y-97250000I-62500J0D01*
G01*
X114687500Y-97250000D01*
G75*
G02*
X114625000Y-97187500I0J62500D01*
G01*
G37*
G36*
G01*
X114125000Y-97187500D02*
X114125000Y-96437500D01*
G75*
G02*
X114187500Y-96375000I62500J0D01*
G01*
X114312500Y-96375000D01*
G75*
G02*
X114375000Y-96437500I0J-62500D01*
G01*
X114375000Y-97187500D01*
G75*
G02*
X114312500Y-97250000I-62500J0D01*
G01*
X114187500Y-97250000D01*
G75*
G02*
X114125000Y-97187500I0J62500D01*
G01*
G37*
G36*
G01*
X113625000Y-97187500D02*
X113625000Y-96437500D01*
G75*
G02*
X113687500Y-96375000I62500J0D01*
G01*
X113812500Y-96375000D01*
G75*
G02*
X113875000Y-96437500I0J-62500D01*
G01*
X113875000Y-97187500D01*
G75*
G02*
X113812500Y-97250000I-62500J0D01*
G01*
X113687500Y-97250000D01*
G75*
G02*
X113625000Y-97187500I0J62500D01*
G01*
G37*
G36*
G01*
X113125000Y-97187500D02*
X113125000Y-96437500D01*
G75*
G02*
X113187500Y-96375000I62500J0D01*
G01*
X113312500Y-96375000D01*
G75*
G02*
X113375000Y-96437500I0J-62500D01*
G01*
X113375000Y-97187500D01*
G75*
G02*
X113312500Y-97250000I-62500J0D01*
G01*
X113187500Y-97250000D01*
G75*
G02*
X113125000Y-97187500I0J62500D01*
G01*
G37*
G36*
G01*
X112625000Y-97187500D02*
X112625000Y-96437500D01*
G75*
G02*
X112687500Y-96375000I62500J0D01*
G01*
X112812500Y-96375000D01*
G75*
G02*
X112875000Y-96437500I0J-62500D01*
G01*
X112875000Y-97187500D01*
G75*
G02*
X112812500Y-97250000I-62500J0D01*
G01*
X112687500Y-97250000D01*
G75*
G02*
X112625000Y-97187500I0J62500D01*
G01*
G37*
G36*
G01*
X112125000Y-97187500D02*
X112125000Y-96437500D01*
G75*
G02*
X112187500Y-96375000I62500J0D01*
G01*
X112312500Y-96375000D01*
G75*
G02*
X112375000Y-96437500I0J-62500D01*
G01*
X112375000Y-97187500D01*
G75*
G02*
X112312500Y-97250000I-62500J0D01*
G01*
X112187500Y-97250000D01*
G75*
G02*
X112125000Y-97187500I0J62500D01*
G01*
G37*
G36*
G01*
X111625000Y-97187500D02*
X111625000Y-96437500D01*
G75*
G02*
X111687500Y-96375000I62500J0D01*
G01*
X111812500Y-96375000D01*
G75*
G02*
X111875000Y-96437500I0J-62500D01*
G01*
X111875000Y-97187500D01*
G75*
G02*
X111812500Y-97250000I-62500J0D01*
G01*
X111687500Y-97250000D01*
G75*
G02*
X111625000Y-97187500I0J62500D01*
G01*
G37*
G36*
G01*
X111125000Y-97187500D02*
X111125000Y-96437500D01*
G75*
G02*
X111187500Y-96375000I62500J0D01*
G01*
X111312500Y-96375000D01*
G75*
G02*
X111375000Y-96437500I0J-62500D01*
G01*
X111375000Y-97187500D01*
G75*
G02*
X111312500Y-97250000I-62500J0D01*
G01*
X111187500Y-97250000D01*
G75*
G02*
X111125000Y-97187500I0J62500D01*
G01*
G37*
G36*
G01*
X110625000Y-97187500D02*
X110625000Y-96437500D01*
G75*
G02*
X110687500Y-96375000I62500J0D01*
G01*
X110812500Y-96375000D01*
G75*
G02*
X110875000Y-96437500I0J-62500D01*
G01*
X110875000Y-97187500D01*
G75*
G02*
X110812500Y-97250000I-62500J0D01*
G01*
X110687500Y-97250000D01*
G75*
G02*
X110625000Y-97187500I0J62500D01*
G01*
G37*
G36*
G01*
X110125000Y-97187500D02*
X110125000Y-96437500D01*
G75*
G02*
X110187500Y-96375000I62500J0D01*
G01*
X110312500Y-96375000D01*
G75*
G02*
X110375000Y-96437500I0J-62500D01*
G01*
X110375000Y-97187500D01*
G75*
G02*
X110312500Y-97250000I-62500J0D01*
G01*
X110187500Y-97250000D01*
G75*
G02*
X110125000Y-97187500I0J62500D01*
G01*
G37*
G36*
G01*
X109625000Y-97187500D02*
X109625000Y-96437500D01*
G75*
G02*
X109687500Y-96375000I62500J0D01*
G01*
X109812500Y-96375000D01*
G75*
G02*
X109875000Y-96437500I0J-62500D01*
G01*
X109875000Y-97187500D01*
G75*
G02*
X109812500Y-97250000I-62500J0D01*
G01*
X109687500Y-97250000D01*
G75*
G02*
X109625000Y-97187500I0J62500D01*
G01*
G37*
G36*
G01*
X109125000Y-97187500D02*
X109125000Y-96437500D01*
G75*
G02*
X109187500Y-96375000I62500J0D01*
G01*
X109312500Y-96375000D01*
G75*
G02*
X109375000Y-96437500I0J-62500D01*
G01*
X109375000Y-97187500D01*
G75*
G02*
X109312500Y-97250000I-62500J0D01*
G01*
X109187500Y-97250000D01*
G75*
G02*
X109125000Y-97187500I0J62500D01*
G01*
G37*
G36*
G01*
X108625000Y-97187500D02*
X108625000Y-96437500D01*
G75*
G02*
X108687500Y-96375000I62500J0D01*
G01*
X108812500Y-96375000D01*
G75*
G02*
X108875000Y-96437500I0J-62500D01*
G01*
X108875000Y-97187500D01*
G75*
G02*
X108812500Y-97250000I-62500J0D01*
G01*
X108687500Y-97250000D01*
G75*
G02*
X108625000Y-97187500I0J62500D01*
G01*
G37*
G36*
G01*
X108125000Y-97187500D02*
X108125000Y-96437500D01*
G75*
G02*
X108187500Y-96375000I62500J0D01*
G01*
X108312500Y-96375000D01*
G75*
G02*
X108375000Y-96437500I0J-62500D01*
G01*
X108375000Y-97187500D01*
G75*
G02*
X108312500Y-97250000I-62500J0D01*
G01*
X108187500Y-97250000D01*
G75*
G02*
X108125000Y-97187500I0J62500D01*
G01*
G37*
G36*
G01*
X107625000Y-97187500D02*
X107625000Y-96437500D01*
G75*
G02*
X107687500Y-96375000I62500J0D01*
G01*
X107812500Y-96375000D01*
G75*
G02*
X107875000Y-96437500I0J-62500D01*
G01*
X107875000Y-97187500D01*
G75*
G02*
X107812500Y-97250000I-62500J0D01*
G01*
X107687500Y-97250000D01*
G75*
G02*
X107625000Y-97187500I0J62500D01*
G01*
G37*
D37*
X112000000Y-101750000D03*
D38*
X69500000Y-90790000D03*
X81000000Y-90790000D03*
X69500000Y-88250000D03*
X81000000Y-88250000D03*
X69500000Y-85710000D03*
X81000000Y-85710000D03*
G36*
G01*
X85487500Y-87575000D02*
X85012500Y-87575000D01*
G75*
G02*
X84775000Y-87337500I0J237500D01*
G01*
X84775000Y-86837500D01*
G75*
G02*
X85012500Y-86600000I237500J0D01*
G01*
X85487500Y-86600000D01*
G75*
G02*
X85725000Y-86837500I0J-237500D01*
G01*
X85725000Y-87337500D01*
G75*
G02*
X85487500Y-87575000I-237500J0D01*
G01*
G37*
G36*
G01*
X85487500Y-89400000D02*
X85012500Y-89400000D01*
G75*
G02*
X84775000Y-89162500I0J237500D01*
G01*
X84775000Y-88662500D01*
G75*
G02*
X85012500Y-88425000I237500J0D01*
G01*
X85487500Y-88425000D01*
G75*
G02*
X85725000Y-88662500I0J-237500D01*
G01*
X85725000Y-89162500D01*
G75*
G02*
X85487500Y-89400000I-237500J0D01*
G01*
G37*
G36*
G01*
X87825000Y-90512500D02*
X87825000Y-90987500D01*
G75*
G02*
X87587500Y-91225000I-237500J0D01*
G01*
X87087500Y-91225000D01*
G75*
G02*
X86850000Y-90987500I0J237500D01*
G01*
X86850000Y-90512500D01*
G75*
G02*
X87087500Y-90275000I237500J0D01*
G01*
X87587500Y-90275000D01*
G75*
G02*
X87825000Y-90512500I0J-237500D01*
G01*
G37*
G36*
G01*
X89650000Y-90512500D02*
X89650000Y-90987500D01*
G75*
G02*
X89412500Y-91225000I-237500J0D01*
G01*
X88912500Y-91225000D01*
G75*
G02*
X88675000Y-90987500I0J237500D01*
G01*
X88675000Y-90512500D01*
G75*
G02*
X88912500Y-90275000I237500J0D01*
G01*
X89412500Y-90275000D01*
G75*
G02*
X89650000Y-90512500I0J-237500D01*
G01*
G37*
G36*
G01*
X107737500Y-83900000D02*
X107262500Y-83900000D01*
G75*
G02*
X107025000Y-83662500I0J237500D01*
G01*
X107025000Y-83162500D01*
G75*
G02*
X107262500Y-82925000I237500J0D01*
G01*
X107737500Y-82925000D01*
G75*
G02*
X107975000Y-83162500I0J-237500D01*
G01*
X107975000Y-83662500D01*
G75*
G02*
X107737500Y-83900000I-237500J0D01*
G01*
G37*
G36*
G01*
X107737500Y-82075000D02*
X107262500Y-82075000D01*
G75*
G02*
X107025000Y-81837500I0J237500D01*
G01*
X107025000Y-81337500D01*
G75*
G02*
X107262500Y-81100000I237500J0D01*
G01*
X107737500Y-81100000D01*
G75*
G02*
X107975000Y-81337500I0J-237500D01*
G01*
X107975000Y-81837500D01*
G75*
G02*
X107737500Y-82075000I-237500J0D01*
G01*
G37*
G36*
G01*
X111237500Y-83900000D02*
X110762500Y-83900000D01*
G75*
G02*
X110525000Y-83662500I0J237500D01*
G01*
X110525000Y-83162500D01*
G75*
G02*
X110762500Y-82925000I237500J0D01*
G01*
X111237500Y-82925000D01*
G75*
G02*
X111475000Y-83162500I0J-237500D01*
G01*
X111475000Y-83662500D01*
G75*
G02*
X111237500Y-83900000I-237500J0D01*
G01*
G37*
G36*
G01*
X111237500Y-82075000D02*
X110762500Y-82075000D01*
G75*
G02*
X110525000Y-81837500I0J237500D01*
G01*
X110525000Y-81337500D01*
G75*
G02*
X110762500Y-81100000I237500J0D01*
G01*
X111237500Y-81100000D01*
G75*
G02*
X111475000Y-81337500I0J-237500D01*
G01*
X111475000Y-81837500D01*
G75*
G02*
X111237500Y-82075000I-237500J0D01*
G01*
G37*
G36*
G01*
X110512500Y-66100000D02*
X110987500Y-66100000D01*
G75*
G02*
X111225000Y-66337500I0J-237500D01*
G01*
X111225000Y-66837500D01*
G75*
G02*
X110987500Y-67075000I-237500J0D01*
G01*
X110512500Y-67075000D01*
G75*
G02*
X110275000Y-66837500I0J237500D01*
G01*
X110275000Y-66337500D01*
G75*
G02*
X110512500Y-66100000I237500J0D01*
G01*
G37*
G36*
G01*
X110512500Y-67925000D02*
X110987500Y-67925000D01*
G75*
G02*
X111225000Y-68162500I0J-237500D01*
G01*
X111225000Y-68662500D01*
G75*
G02*
X110987500Y-68900000I-237500J0D01*
G01*
X110512500Y-68900000D01*
G75*
G02*
X110275000Y-68662500I0J237500D01*
G01*
X110275000Y-68162500D01*
G75*
G02*
X110512500Y-67925000I237500J0D01*
G01*
G37*
G36*
G01*
X114737500Y-83900000D02*
X114262500Y-83900000D01*
G75*
G02*
X114025000Y-83662500I0J237500D01*
G01*
X114025000Y-83162500D01*
G75*
G02*
X114262500Y-82925000I237500J0D01*
G01*
X114737500Y-82925000D01*
G75*
G02*
X114975000Y-83162500I0J-237500D01*
G01*
X114975000Y-83662500D01*
G75*
G02*
X114737500Y-83900000I-237500J0D01*
G01*
G37*
G36*
G01*
X114737500Y-82075000D02*
X114262500Y-82075000D01*
G75*
G02*
X114025000Y-81837500I0J237500D01*
G01*
X114025000Y-81337500D01*
G75*
G02*
X114262500Y-81100000I237500J0D01*
G01*
X114737500Y-81100000D01*
G75*
G02*
X114975000Y-81337500I0J-237500D01*
G01*
X114975000Y-81837500D01*
G75*
G02*
X114737500Y-82075000I-237500J0D01*
G01*
G37*
G36*
G01*
X112987500Y-83900000D02*
X112512500Y-83900000D01*
G75*
G02*
X112275000Y-83662500I0J237500D01*
G01*
X112275000Y-83162500D01*
G75*
G02*
X112512500Y-82925000I237500J0D01*
G01*
X112987500Y-82925000D01*
G75*
G02*
X113225000Y-83162500I0J-237500D01*
G01*
X113225000Y-83662500D01*
G75*
G02*
X112987500Y-83900000I-237500J0D01*
G01*
G37*
G36*
G01*
X112987500Y-82075000D02*
X112512500Y-82075000D01*
G75*
G02*
X112275000Y-81837500I0J237500D01*
G01*
X112275000Y-81337500D01*
G75*
G02*
X112512500Y-81100000I237500J0D01*
G01*
X112987500Y-81100000D01*
G75*
G02*
X113225000Y-81337500I0J-237500D01*
G01*
X113225000Y-81837500D01*
G75*
G02*
X112987500Y-82075000I-237500J0D01*
G01*
G37*
G36*
G01*
X191762500Y-92175000D02*
X192237500Y-92175000D01*
G75*
G02*
X192475000Y-92412500I0J-237500D01*
G01*
X192475000Y-92912500D01*
G75*
G02*
X192237500Y-93150000I-237500J0D01*
G01*
X191762500Y-93150000D01*
G75*
G02*
X191525000Y-92912500I0J237500D01*
G01*
X191525000Y-92412500D01*
G75*
G02*
X191762500Y-92175000I237500J0D01*
G01*
G37*
G36*
G01*
X191762500Y-90350000D02*
X192237500Y-90350000D01*
G75*
G02*
X192475000Y-90587500I0J-237500D01*
G01*
X192475000Y-91087500D01*
G75*
G02*
X192237500Y-91325000I-237500J0D01*
G01*
X191762500Y-91325000D01*
G75*
G02*
X191525000Y-91087500I0J237500D01*
G01*
X191525000Y-90587500D01*
G75*
G02*
X191762500Y-90350000I237500J0D01*
G01*
G37*
G36*
G01*
X190487500Y-91325000D02*
X190012500Y-91325000D01*
G75*
G02*
X189775000Y-91087500I0J237500D01*
G01*
X189775000Y-90587500D01*
G75*
G02*
X190012500Y-90350000I237500J0D01*
G01*
X190487500Y-90350000D01*
G75*
G02*
X190725000Y-90587500I0J-237500D01*
G01*
X190725000Y-91087500D01*
G75*
G02*
X190487500Y-91325000I-237500J0D01*
G01*
G37*
G36*
G01*
X190487500Y-93150000D02*
X190012500Y-93150000D01*
G75*
G02*
X189775000Y-92912500I0J237500D01*
G01*
X189775000Y-92412500D01*
G75*
G02*
X190012500Y-92175000I237500J0D01*
G01*
X190487500Y-92175000D01*
G75*
G02*
X190725000Y-92412500I0J-237500D01*
G01*
X190725000Y-92912500D01*
G75*
G02*
X190487500Y-93150000I-237500J0D01*
G01*
G37*
G36*
G01*
X216987500Y-82825000D02*
X216512500Y-82825000D01*
G75*
G02*
X216275000Y-82587500I0J237500D01*
G01*
X216275000Y-82087500D01*
G75*
G02*
X216512500Y-81850000I237500J0D01*
G01*
X216987500Y-81850000D01*
G75*
G02*
X217225000Y-82087500I0J-237500D01*
G01*
X217225000Y-82587500D01*
G75*
G02*
X216987500Y-82825000I-237500J0D01*
G01*
G37*
G36*
G01*
X216987500Y-84650000D02*
X216512500Y-84650000D01*
G75*
G02*
X216275000Y-84412500I0J237500D01*
G01*
X216275000Y-83912500D01*
G75*
G02*
X216512500Y-83675000I237500J0D01*
G01*
X216987500Y-83675000D01*
G75*
G02*
X217225000Y-83912500I0J-237500D01*
G01*
X217225000Y-84412500D01*
G75*
G02*
X216987500Y-84650000I-237500J0D01*
G01*
G37*
G36*
G01*
X218262500Y-83675000D02*
X218737500Y-83675000D01*
G75*
G02*
X218975000Y-83912500I0J-237500D01*
G01*
X218975000Y-84412500D01*
G75*
G02*
X218737500Y-84650000I-237500J0D01*
G01*
X218262500Y-84650000D01*
G75*
G02*
X218025000Y-84412500I0J237500D01*
G01*
X218025000Y-83912500D01*
G75*
G02*
X218262500Y-83675000I237500J0D01*
G01*
G37*
G36*
G01*
X218262500Y-81850000D02*
X218737500Y-81850000D01*
G75*
G02*
X218975000Y-82087500I0J-237500D01*
G01*
X218975000Y-82587500D01*
G75*
G02*
X218737500Y-82825000I-237500J0D01*
G01*
X218262500Y-82825000D01*
G75*
G02*
X218025000Y-82587500I0J237500D01*
G01*
X218025000Y-82087500D01*
G75*
G02*
X218262500Y-81850000I237500J0D01*
G01*
G37*
G36*
G01*
X192575000Y-88512500D02*
X192575000Y-88987500D01*
G75*
G02*
X192337500Y-89225000I-237500J0D01*
G01*
X191837500Y-89225000D01*
G75*
G02*
X191600000Y-88987500I0J237500D01*
G01*
X191600000Y-88512500D01*
G75*
G02*
X191837500Y-88275000I237500J0D01*
G01*
X192337500Y-88275000D01*
G75*
G02*
X192575000Y-88512500I0J-237500D01*
G01*
G37*
G36*
G01*
X194400000Y-88512500D02*
X194400000Y-88987500D01*
G75*
G02*
X194162500Y-89225000I-237500J0D01*
G01*
X193662500Y-89225000D01*
G75*
G02*
X193425000Y-88987500I0J237500D01*
G01*
X193425000Y-88512500D01*
G75*
G02*
X193662500Y-88275000I237500J0D01*
G01*
X194162500Y-88275000D01*
G75*
G02*
X194400000Y-88512500I0J-237500D01*
G01*
G37*
G36*
G01*
X196075000Y-88512500D02*
X196075000Y-88987500D01*
G75*
G02*
X195837500Y-89225000I-237500J0D01*
G01*
X195337500Y-89225000D01*
G75*
G02*
X195100000Y-88987500I0J237500D01*
G01*
X195100000Y-88512500D01*
G75*
G02*
X195337500Y-88275000I237500J0D01*
G01*
X195837500Y-88275000D01*
G75*
G02*
X196075000Y-88512500I0J-237500D01*
G01*
G37*
G36*
G01*
X197900000Y-88512500D02*
X197900000Y-88987500D01*
G75*
G02*
X197662500Y-89225000I-237500J0D01*
G01*
X197162500Y-89225000D01*
G75*
G02*
X196925000Y-88987500I0J237500D01*
G01*
X196925000Y-88512500D01*
G75*
G02*
X197162500Y-88275000I237500J0D01*
G01*
X197662500Y-88275000D01*
G75*
G02*
X197900000Y-88512500I0J-237500D01*
G01*
G37*
G36*
G01*
X215925000Y-86487500D02*
X215925000Y-86012500D01*
G75*
G02*
X216162500Y-85775000I237500J0D01*
G01*
X216662500Y-85775000D01*
G75*
G02*
X216900000Y-86012500I0J-237500D01*
G01*
X216900000Y-86487500D01*
G75*
G02*
X216662500Y-86725000I-237500J0D01*
G01*
X216162500Y-86725000D01*
G75*
G02*
X215925000Y-86487500I0J237500D01*
G01*
G37*
G36*
G01*
X214100000Y-86487500D02*
X214100000Y-86012500D01*
G75*
G02*
X214337500Y-85775000I237500J0D01*
G01*
X214837500Y-85775000D01*
G75*
G02*
X215075000Y-86012500I0J-237500D01*
G01*
X215075000Y-86487500D01*
G75*
G02*
X214837500Y-86725000I-237500J0D01*
G01*
X214337500Y-86725000D01*
G75*
G02*
X214100000Y-86487500I0J237500D01*
G01*
G37*
G36*
G01*
X212425000Y-86487500D02*
X212425000Y-86012500D01*
G75*
G02*
X212662500Y-85775000I237500J0D01*
G01*
X213162500Y-85775000D01*
G75*
G02*
X213400000Y-86012500I0J-237500D01*
G01*
X213400000Y-86487500D01*
G75*
G02*
X213162500Y-86725000I-237500J0D01*
G01*
X212662500Y-86725000D01*
G75*
G02*
X212425000Y-86487500I0J237500D01*
G01*
G37*
G36*
G01*
X210600000Y-86487500D02*
X210600000Y-86012500D01*
G75*
G02*
X210837500Y-85775000I237500J0D01*
G01*
X211337500Y-85775000D01*
G75*
G02*
X211575000Y-86012500I0J-237500D01*
G01*
X211575000Y-86487500D01*
G75*
G02*
X211337500Y-86725000I-237500J0D01*
G01*
X210837500Y-86725000D01*
G75*
G02*
X210600000Y-86487500I0J237500D01*
G01*
G37*
G36*
G01*
X133075000Y-108012500D02*
X133075000Y-108487500D01*
G75*
G02*
X132837500Y-108725000I-237500J0D01*
G01*
X132337500Y-108725000D01*
G75*
G02*
X132100000Y-108487500I0J237500D01*
G01*
X132100000Y-108012500D01*
G75*
G02*
X132337500Y-107775000I237500J0D01*
G01*
X132837500Y-107775000D01*
G75*
G02*
X133075000Y-108012500I0J-237500D01*
G01*
G37*
G36*
G01*
X134900000Y-108012500D02*
X134900000Y-108487500D01*
G75*
G02*
X134662500Y-108725000I-237500J0D01*
G01*
X134162500Y-108725000D01*
G75*
G02*
X133925000Y-108487500I0J237500D01*
G01*
X133925000Y-108012500D01*
G75*
G02*
X134162500Y-107775000I237500J0D01*
G01*
X134662500Y-107775000D01*
G75*
G02*
X134900000Y-108012500I0J-237500D01*
G01*
G37*
G36*
G01*
X133075000Y-106262500D02*
X133075000Y-106737500D01*
G75*
G02*
X132837500Y-106975000I-237500J0D01*
G01*
X132337500Y-106975000D01*
G75*
G02*
X132100000Y-106737500I0J237500D01*
G01*
X132100000Y-106262500D01*
G75*
G02*
X132337500Y-106025000I237500J0D01*
G01*
X132837500Y-106025000D01*
G75*
G02*
X133075000Y-106262500I0J-237500D01*
G01*
G37*
G36*
G01*
X134900000Y-106262500D02*
X134900000Y-106737500D01*
G75*
G02*
X134662500Y-106975000I-237500J0D01*
G01*
X134162500Y-106975000D01*
G75*
G02*
X133925000Y-106737500I0J237500D01*
G01*
X133925000Y-106262500D01*
G75*
G02*
X134162500Y-106025000I237500J0D01*
G01*
X134662500Y-106025000D01*
G75*
G02*
X134900000Y-106262500I0J-237500D01*
G01*
G37*
G36*
G01*
X105425000Y-119987500D02*
X105425000Y-119512500D01*
G75*
G02*
X105662500Y-119275000I237500J0D01*
G01*
X106162500Y-119275000D01*
G75*
G02*
X106400000Y-119512500I0J-237500D01*
G01*
X106400000Y-119987500D01*
G75*
G02*
X106162500Y-120225000I-237500J0D01*
G01*
X105662500Y-120225000D01*
G75*
G02*
X105425000Y-119987500I0J237500D01*
G01*
G37*
G36*
G01*
X103600000Y-119987500D02*
X103600000Y-119512500D01*
G75*
G02*
X103837500Y-119275000I237500J0D01*
G01*
X104337500Y-119275000D01*
G75*
G02*
X104575000Y-119512500I0J-237500D01*
G01*
X104575000Y-119987500D01*
G75*
G02*
X104337500Y-120225000I-237500J0D01*
G01*
X103837500Y-120225000D01*
G75*
G02*
X103600000Y-119987500I0J237500D01*
G01*
G37*
G36*
G01*
X105425000Y-117987500D02*
X105425000Y-117512500D01*
G75*
G02*
X105662500Y-117275000I237500J0D01*
G01*
X106162500Y-117275000D01*
G75*
G02*
X106400000Y-117512500I0J-237500D01*
G01*
X106400000Y-117987500D01*
G75*
G02*
X106162500Y-118225000I-237500J0D01*
G01*
X105662500Y-118225000D01*
G75*
G02*
X105425000Y-117987500I0J237500D01*
G01*
G37*
G36*
G01*
X103600000Y-117987500D02*
X103600000Y-117512500D01*
G75*
G02*
X103837500Y-117275000I237500J0D01*
G01*
X104337500Y-117275000D01*
G75*
G02*
X104575000Y-117512500I0J-237500D01*
G01*
X104575000Y-117987500D01*
G75*
G02*
X104337500Y-118225000I-237500J0D01*
G01*
X103837500Y-118225000D01*
G75*
G02*
X103600000Y-117987500I0J237500D01*
G01*
G37*
G36*
G01*
X105425000Y-113987500D02*
X105425000Y-113512500D01*
G75*
G02*
X105662500Y-113275000I237500J0D01*
G01*
X106162500Y-113275000D01*
G75*
G02*
X106400000Y-113512500I0J-237500D01*
G01*
X106400000Y-113987500D01*
G75*
G02*
X106162500Y-114225000I-237500J0D01*
G01*
X105662500Y-114225000D01*
G75*
G02*
X105425000Y-113987500I0J237500D01*
G01*
G37*
G36*
G01*
X103600000Y-113987500D02*
X103600000Y-113512500D01*
G75*
G02*
X103837500Y-113275000I237500J0D01*
G01*
X104337500Y-113275000D01*
G75*
G02*
X104575000Y-113512500I0J-237500D01*
G01*
X104575000Y-113987500D01*
G75*
G02*
X104337500Y-114225000I-237500J0D01*
G01*
X103837500Y-114225000D01*
G75*
G02*
X103600000Y-113987500I0J237500D01*
G01*
G37*
G36*
G01*
X105425000Y-115987500D02*
X105425000Y-115512500D01*
G75*
G02*
X105662500Y-115275000I237500J0D01*
G01*
X106162500Y-115275000D01*
G75*
G02*
X106400000Y-115512500I0J-237500D01*
G01*
X106400000Y-115987500D01*
G75*
G02*
X106162500Y-116225000I-237500J0D01*
G01*
X105662500Y-116225000D01*
G75*
G02*
X105425000Y-115987500I0J237500D01*
G01*
G37*
G36*
G01*
X103600000Y-115987500D02*
X103600000Y-115512500D01*
G75*
G02*
X103837500Y-115275000I237500J0D01*
G01*
X104337500Y-115275000D01*
G75*
G02*
X104575000Y-115512500I0J-237500D01*
G01*
X104575000Y-115987500D01*
G75*
G02*
X104337500Y-116225000I-237500J0D01*
G01*
X103837500Y-116225000D01*
G75*
G02*
X103600000Y-115987500I0J237500D01*
G01*
G37*
G36*
G01*
X70237500Y-131075000D02*
X69762500Y-131075000D01*
G75*
G02*
X69525000Y-130837500I0J237500D01*
G01*
X69525000Y-130337500D01*
G75*
G02*
X69762500Y-130100000I237500J0D01*
G01*
X70237500Y-130100000D01*
G75*
G02*
X70475000Y-130337500I0J-237500D01*
G01*
X70475000Y-130837500D01*
G75*
G02*
X70237500Y-131075000I-237500J0D01*
G01*
G37*
G36*
G01*
X70237500Y-132900000D02*
X69762500Y-132900000D01*
G75*
G02*
X69525000Y-132662500I0J237500D01*
G01*
X69525000Y-132162500D01*
G75*
G02*
X69762500Y-131925000I237500J0D01*
G01*
X70237500Y-131925000D01*
G75*
G02*
X70475000Y-132162500I0J-237500D01*
G01*
X70475000Y-132662500D01*
G75*
G02*
X70237500Y-132900000I-237500J0D01*
G01*
G37*
G36*
G01*
X73987500Y-131075000D02*
X73512500Y-131075000D01*
G75*
G02*
X73275000Y-130837500I0J237500D01*
G01*
X73275000Y-130337500D01*
G75*
G02*
X73512500Y-130100000I237500J0D01*
G01*
X73987500Y-130100000D01*
G75*
G02*
X74225000Y-130337500I0J-237500D01*
G01*
X74225000Y-130837500D01*
G75*
G02*
X73987500Y-131075000I-237500J0D01*
G01*
G37*
G36*
G01*
X73987500Y-132900000D02*
X73512500Y-132900000D01*
G75*
G02*
X73275000Y-132662500I0J237500D01*
G01*
X73275000Y-132162500D01*
G75*
G02*
X73512500Y-131925000I237500J0D01*
G01*
X73987500Y-131925000D01*
G75*
G02*
X74225000Y-132162500I0J-237500D01*
G01*
X74225000Y-132662500D01*
G75*
G02*
X73987500Y-132900000I-237500J0D01*
G01*
G37*
G36*
G01*
X98325000Y-88262500D02*
X98325000Y-88737500D01*
G75*
G02*
X98087500Y-88975000I-237500J0D01*
G01*
X97587500Y-88975000D01*
G75*
G02*
X97350000Y-88737500I0J237500D01*
G01*
X97350000Y-88262500D01*
G75*
G02*
X97587500Y-88025000I237500J0D01*
G01*
X98087500Y-88025000D01*
G75*
G02*
X98325000Y-88262500I0J-237500D01*
G01*
G37*
G36*
G01*
X100150000Y-88262500D02*
X100150000Y-88737500D01*
G75*
G02*
X99912500Y-88975000I-237500J0D01*
G01*
X99412500Y-88975000D01*
G75*
G02*
X99175000Y-88737500I0J237500D01*
G01*
X99175000Y-88262500D01*
G75*
G02*
X99412500Y-88025000I237500J0D01*
G01*
X99912500Y-88025000D01*
G75*
G02*
X100150000Y-88262500I0J-237500D01*
G01*
G37*
G36*
G01*
X121075000Y-97012500D02*
X121075000Y-97487500D01*
G75*
G02*
X120837500Y-97725000I-237500J0D01*
G01*
X120337500Y-97725000D01*
G75*
G02*
X120100000Y-97487500I0J237500D01*
G01*
X120100000Y-97012500D01*
G75*
G02*
X120337500Y-96775000I237500J0D01*
G01*
X120837500Y-96775000D01*
G75*
G02*
X121075000Y-97012500I0J-237500D01*
G01*
G37*
G36*
G01*
X122900000Y-97012500D02*
X122900000Y-97487500D01*
G75*
G02*
X122662500Y-97725000I-237500J0D01*
G01*
X122162500Y-97725000D01*
G75*
G02*
X121925000Y-97487500I0J237500D01*
G01*
X121925000Y-97012500D01*
G75*
G02*
X122162500Y-96775000I237500J0D01*
G01*
X122662500Y-96775000D01*
G75*
G02*
X122900000Y-97012500I0J-237500D01*
G01*
G37*
G36*
G01*
X123762500Y-97675000D02*
X124237500Y-97675000D01*
G75*
G02*
X124475000Y-97912500I0J-237500D01*
G01*
X124475000Y-98412500D01*
G75*
G02*
X124237500Y-98650000I-237500J0D01*
G01*
X123762500Y-98650000D01*
G75*
G02*
X123525000Y-98412500I0J237500D01*
G01*
X123525000Y-97912500D01*
G75*
G02*
X123762500Y-97675000I237500J0D01*
G01*
G37*
G36*
G01*
X123762500Y-95850000D02*
X124237500Y-95850000D01*
G75*
G02*
X124475000Y-96087500I0J-237500D01*
G01*
X124475000Y-96587500D01*
G75*
G02*
X124237500Y-96825000I-237500J0D01*
G01*
X123762500Y-96825000D01*
G75*
G02*
X123525000Y-96587500I0J237500D01*
G01*
X123525000Y-96087500D01*
G75*
G02*
X123762500Y-95850000I237500J0D01*
G01*
G37*
G36*
G01*
X121075000Y-99012500D02*
X121075000Y-99487500D01*
G75*
G02*
X120837500Y-99725000I-237500J0D01*
G01*
X120337500Y-99725000D01*
G75*
G02*
X120100000Y-99487500I0J237500D01*
G01*
X120100000Y-99012500D01*
G75*
G02*
X120337500Y-98775000I237500J0D01*
G01*
X120837500Y-98775000D01*
G75*
G02*
X121075000Y-99012500I0J-237500D01*
G01*
G37*
G36*
G01*
X122900000Y-99012500D02*
X122900000Y-99487500D01*
G75*
G02*
X122662500Y-99725000I-237500J0D01*
G01*
X122162500Y-99725000D01*
G75*
G02*
X121925000Y-99487500I0J237500D01*
G01*
X121925000Y-99012500D01*
G75*
G02*
X122162500Y-98775000I237500J0D01*
G01*
X122662500Y-98775000D01*
G75*
G02*
X122900000Y-99012500I0J-237500D01*
G01*
G37*
G36*
G01*
X127737500Y-100825000D02*
X127262500Y-100825000D01*
G75*
G02*
X127025000Y-100587500I0J237500D01*
G01*
X127025000Y-100087500D01*
G75*
G02*
X127262500Y-99850000I237500J0D01*
G01*
X127737500Y-99850000D01*
G75*
G02*
X127975000Y-100087500I0J-237500D01*
G01*
X127975000Y-100587500D01*
G75*
G02*
X127737500Y-100825000I-237500J0D01*
G01*
G37*
G36*
G01*
X127737500Y-102650000D02*
X127262500Y-102650000D01*
G75*
G02*
X127025000Y-102412500I0J237500D01*
G01*
X127025000Y-101912500D01*
G75*
G02*
X127262500Y-101675000I237500J0D01*
G01*
X127737500Y-101675000D01*
G75*
G02*
X127975000Y-101912500I0J-237500D01*
G01*
X127975000Y-102412500D01*
G75*
G02*
X127737500Y-102650000I-237500J0D01*
G01*
G37*
G36*
G01*
X121075000Y-101012500D02*
X121075000Y-101487500D01*
G75*
G02*
X120837500Y-101725000I-237500J0D01*
G01*
X120337500Y-101725000D01*
G75*
G02*
X120100000Y-101487500I0J237500D01*
G01*
X120100000Y-101012500D01*
G75*
G02*
X120337500Y-100775000I237500J0D01*
G01*
X120837500Y-100775000D01*
G75*
G02*
X121075000Y-101012500I0J-237500D01*
G01*
G37*
G36*
G01*
X122900000Y-101012500D02*
X122900000Y-101487500D01*
G75*
G02*
X122662500Y-101725000I-237500J0D01*
G01*
X122162500Y-101725000D01*
G75*
G02*
X121925000Y-101487500I0J237500D01*
G01*
X121925000Y-101012500D01*
G75*
G02*
X122162500Y-100775000I237500J0D01*
G01*
X122662500Y-100775000D01*
G75*
G02*
X122900000Y-101012500I0J-237500D01*
G01*
G37*
G36*
G01*
X124575000Y-102012500D02*
X124575000Y-102487500D01*
G75*
G02*
X124337500Y-102725000I-237500J0D01*
G01*
X123837500Y-102725000D01*
G75*
G02*
X123600000Y-102487500I0J237500D01*
G01*
X123600000Y-102012500D01*
G75*
G02*
X123837500Y-101775000I237500J0D01*
G01*
X124337500Y-101775000D01*
G75*
G02*
X124575000Y-102012500I0J-237500D01*
G01*
G37*
G36*
G01*
X126400000Y-102012500D02*
X126400000Y-102487500D01*
G75*
G02*
X126162500Y-102725000I-237500J0D01*
G01*
X125662500Y-102725000D01*
G75*
G02*
X125425000Y-102487500I0J237500D01*
G01*
X125425000Y-102012500D01*
G75*
G02*
X125662500Y-101775000I237500J0D01*
G01*
X126162500Y-101775000D01*
G75*
G02*
X126400000Y-102012500I0J-237500D01*
G01*
G37*
G36*
G01*
X121075000Y-103012500D02*
X121075000Y-103487500D01*
G75*
G02*
X120837500Y-103725000I-237500J0D01*
G01*
X120337500Y-103725000D01*
G75*
G02*
X120100000Y-103487500I0J237500D01*
G01*
X120100000Y-103012500D01*
G75*
G02*
X120337500Y-102775000I237500J0D01*
G01*
X120837500Y-102775000D01*
G75*
G02*
X121075000Y-103012500I0J-237500D01*
G01*
G37*
G36*
G01*
X122900000Y-103012500D02*
X122900000Y-103487500D01*
G75*
G02*
X122662500Y-103725000I-237500J0D01*
G01*
X122162500Y-103725000D01*
G75*
G02*
X121925000Y-103487500I0J237500D01*
G01*
X121925000Y-103012500D01*
G75*
G02*
X122162500Y-102775000I237500J0D01*
G01*
X122662500Y-102775000D01*
G75*
G02*
X122900000Y-103012500I0J-237500D01*
G01*
G37*
G36*
G01*
X124575000Y-105512500D02*
X124575000Y-105987500D01*
G75*
G02*
X124337500Y-106225000I-237500J0D01*
G01*
X123837500Y-106225000D01*
G75*
G02*
X123600000Y-105987500I0J237500D01*
G01*
X123600000Y-105512500D01*
G75*
G02*
X123837500Y-105275000I237500J0D01*
G01*
X124337500Y-105275000D01*
G75*
G02*
X124575000Y-105512500I0J-237500D01*
G01*
G37*
G36*
G01*
X126400000Y-105512500D02*
X126400000Y-105987500D01*
G75*
G02*
X126162500Y-106225000I-237500J0D01*
G01*
X125662500Y-106225000D01*
G75*
G02*
X125425000Y-105987500I0J237500D01*
G01*
X125425000Y-105512500D01*
G75*
G02*
X125662500Y-105275000I237500J0D01*
G01*
X126162500Y-105275000D01*
G75*
G02*
X126400000Y-105512500I0J-237500D01*
G01*
G37*
G36*
G01*
X104075000Y-96012500D02*
X104075000Y-96487500D01*
G75*
G02*
X103837500Y-96725000I-237500J0D01*
G01*
X103337500Y-96725000D01*
G75*
G02*
X103100000Y-96487500I0J237500D01*
G01*
X103100000Y-96012500D01*
G75*
G02*
X103337500Y-95775000I237500J0D01*
G01*
X103837500Y-95775000D01*
G75*
G02*
X104075000Y-96012500I0J-237500D01*
G01*
G37*
G36*
G01*
X105900000Y-96012500D02*
X105900000Y-96487500D01*
G75*
G02*
X105662500Y-96725000I-237500J0D01*
G01*
X105162500Y-96725000D01*
G75*
G02*
X104925000Y-96487500I0J237500D01*
G01*
X104925000Y-96012500D01*
G75*
G02*
X105162500Y-95775000I237500J0D01*
G01*
X105662500Y-95775000D01*
G75*
G02*
X105900000Y-96012500I0J-237500D01*
G01*
G37*
G36*
G01*
X102825000Y-105512500D02*
X102825000Y-105987500D01*
G75*
G02*
X102587500Y-106225000I-237500J0D01*
G01*
X102087500Y-106225000D01*
G75*
G02*
X101850000Y-105987500I0J237500D01*
G01*
X101850000Y-105512500D01*
G75*
G02*
X102087500Y-105275000I237500J0D01*
G01*
X102587500Y-105275000D01*
G75*
G02*
X102825000Y-105512500I0J-237500D01*
G01*
G37*
G36*
G01*
X104650000Y-105512500D02*
X104650000Y-105987500D01*
G75*
G02*
X104412500Y-106225000I-237500J0D01*
G01*
X103912500Y-106225000D01*
G75*
G02*
X103675000Y-105987500I0J237500D01*
G01*
X103675000Y-105512500D01*
G75*
G02*
X103912500Y-105275000I237500J0D01*
G01*
X104412500Y-105275000D01*
G75*
G02*
X104650000Y-105512500I0J-237500D01*
G01*
G37*
G36*
G01*
X99737500Y-131575000D02*
X99262500Y-131575000D01*
G75*
G02*
X99025000Y-131337500I0J237500D01*
G01*
X99025000Y-130837500D01*
G75*
G02*
X99262500Y-130600000I237500J0D01*
G01*
X99737500Y-130600000D01*
G75*
G02*
X99975000Y-130837500I0J-237500D01*
G01*
X99975000Y-131337500D01*
G75*
G02*
X99737500Y-131575000I-237500J0D01*
G01*
G37*
G36*
G01*
X99737500Y-133400000D02*
X99262500Y-133400000D01*
G75*
G02*
X99025000Y-133162500I0J237500D01*
G01*
X99025000Y-132662500D01*
G75*
G02*
X99262500Y-132425000I237500J0D01*
G01*
X99737500Y-132425000D01*
G75*
G02*
X99975000Y-132662500I0J-237500D01*
G01*
X99975000Y-133162500D01*
G75*
G02*
X99737500Y-133400000I-237500J0D01*
G01*
G37*
G36*
G01*
X104737500Y-131662500D02*
X104262500Y-131662500D01*
G75*
G02*
X104025000Y-131425000I0J237500D01*
G01*
X104025000Y-130925000D01*
G75*
G02*
X104262500Y-130687500I237500J0D01*
G01*
X104737500Y-130687500D01*
G75*
G02*
X104975000Y-130925000I0J-237500D01*
G01*
X104975000Y-131425000D01*
G75*
G02*
X104737500Y-131662500I-237500J0D01*
G01*
G37*
G36*
G01*
X104737500Y-133487500D02*
X104262500Y-133487500D01*
G75*
G02*
X104025000Y-133250000I0J237500D01*
G01*
X104025000Y-132750000D01*
G75*
G02*
X104262500Y-132512500I237500J0D01*
G01*
X104737500Y-132512500D01*
G75*
G02*
X104975000Y-132750000I0J-237500D01*
G01*
X104975000Y-133250000D01*
G75*
G02*
X104737500Y-133487500I-237500J0D01*
G01*
G37*
G36*
G01*
X162100000Y-102965000D02*
X162100000Y-100035000D01*
G75*
G02*
X162335000Y-99800000I235000J0D01*
G01*
X164215000Y-99800000D01*
G75*
G02*
X164450000Y-100035000I0J-235000D01*
G01*
X164450000Y-102965000D01*
G75*
G02*
X164215000Y-103200000I-235000J0D01*
G01*
X162335000Y-103200000D01*
G75*
G02*
X162100000Y-102965000I0J235000D01*
G01*
G37*
G36*
G01*
X156050000Y-102965000D02*
X156050000Y-100035000D01*
G75*
G02*
X156285000Y-99800000I235000J0D01*
G01*
X158165000Y-99800000D01*
G75*
G02*
X158400000Y-100035000I0J-235000D01*
G01*
X158400000Y-102965000D01*
G75*
G02*
X158165000Y-103200000I-235000J0D01*
G01*
X156285000Y-103200000D01*
G75*
G02*
X156050000Y-102965000I0J235000D01*
G01*
G37*
G36*
G01*
X162100000Y-110465000D02*
X162100000Y-107535000D01*
G75*
G02*
X162335000Y-107300000I235000J0D01*
G01*
X164215000Y-107300000D01*
G75*
G02*
X164450000Y-107535000I0J-235000D01*
G01*
X164450000Y-110465000D01*
G75*
G02*
X164215000Y-110700000I-235000J0D01*
G01*
X162335000Y-110700000D01*
G75*
G02*
X162100000Y-110465000I0J235000D01*
G01*
G37*
G36*
G01*
X156050000Y-110465000D02*
X156050000Y-107535000D01*
G75*
G02*
X156285000Y-107300000I235000J0D01*
G01*
X158165000Y-107300000D01*
G75*
G02*
X158400000Y-107535000I0J-235000D01*
G01*
X158400000Y-110465000D01*
G75*
G02*
X158165000Y-110700000I-235000J0D01*
G01*
X156285000Y-110700000D01*
G75*
G02*
X156050000Y-110465000I0J235000D01*
G01*
G37*
G36*
G01*
X162100000Y-95215000D02*
X162100000Y-92285000D01*
G75*
G02*
X162335000Y-92050000I235000J0D01*
G01*
X164215000Y-92050000D01*
G75*
G02*
X164450000Y-92285000I0J-235000D01*
G01*
X164450000Y-95215000D01*
G75*
G02*
X164215000Y-95450000I-235000J0D01*
G01*
X162335000Y-95450000D01*
G75*
G02*
X162100000Y-95215000I0J235000D01*
G01*
G37*
G36*
G01*
X156050000Y-95215000D02*
X156050000Y-92285000D01*
G75*
G02*
X156285000Y-92050000I235000J0D01*
G01*
X158165000Y-92050000D01*
G75*
G02*
X158400000Y-92285000I0J-235000D01*
G01*
X158400000Y-95215000D01*
G75*
G02*
X158165000Y-95450000I-235000J0D01*
G01*
X156285000Y-95450000D01*
G75*
G02*
X156050000Y-95215000I0J235000D01*
G01*
G37*
G36*
G01*
X162100000Y-87715000D02*
X162100000Y-84785000D01*
G75*
G02*
X162335000Y-84550000I235000J0D01*
G01*
X164215000Y-84550000D01*
G75*
G02*
X164450000Y-84785000I0J-235000D01*
G01*
X164450000Y-87715000D01*
G75*
G02*
X164215000Y-87950000I-235000J0D01*
G01*
X162335000Y-87950000D01*
G75*
G02*
X162100000Y-87715000I0J235000D01*
G01*
G37*
G36*
G01*
X156050000Y-87715000D02*
X156050000Y-84785000D01*
G75*
G02*
X156285000Y-84550000I235000J0D01*
G01*
X158165000Y-84550000D01*
G75*
G02*
X158400000Y-84785000I0J-235000D01*
G01*
X158400000Y-87715000D01*
G75*
G02*
X158165000Y-87950000I-235000J0D01*
G01*
X156285000Y-87950000D01*
G75*
G02*
X156050000Y-87715000I0J235000D01*
G01*
G37*
G36*
G01*
X211215000Y-95400000D02*
X208285000Y-95400000D01*
G75*
G02*
X208050000Y-95165000I0J235000D01*
G01*
X208050000Y-93285000D01*
G75*
G02*
X208285000Y-93050000I235000J0D01*
G01*
X211215000Y-93050000D01*
G75*
G02*
X211450000Y-93285000I0J-235000D01*
G01*
X211450000Y-95165000D01*
G75*
G02*
X211215000Y-95400000I-235000J0D01*
G01*
G37*
G36*
G01*
X211215000Y-101450000D02*
X208285000Y-101450000D01*
G75*
G02*
X208050000Y-101215000I0J235000D01*
G01*
X208050000Y-99335000D01*
G75*
G02*
X208285000Y-99100000I235000J0D01*
G01*
X211215000Y-99100000D01*
G75*
G02*
X211450000Y-99335000I0J-235000D01*
G01*
X211450000Y-101215000D01*
G75*
G02*
X211215000Y-101450000I-235000J0D01*
G01*
G37*
G36*
G01*
X197535000Y-79600000D02*
X200465000Y-79600000D01*
G75*
G02*
X200700000Y-79835000I0J-235000D01*
G01*
X200700000Y-81715000D01*
G75*
G02*
X200465000Y-81950000I-235000J0D01*
G01*
X197535000Y-81950000D01*
G75*
G02*
X197300000Y-81715000I0J235000D01*
G01*
X197300000Y-79835000D01*
G75*
G02*
X197535000Y-79600000I235000J0D01*
G01*
G37*
G36*
G01*
X197535000Y-73550000D02*
X200465000Y-73550000D01*
G75*
G02*
X200700000Y-73785000I0J-235000D01*
G01*
X200700000Y-75665000D01*
G75*
G02*
X200465000Y-75900000I-235000J0D01*
G01*
X197535000Y-75900000D01*
G75*
G02*
X197300000Y-75665000I0J235000D01*
G01*
X197300000Y-73785000D01*
G75*
G02*
X197535000Y-73550000I235000J0D01*
G01*
G37*
D39*
X126500000Y-74500000D03*
D19*
X121730000Y-77210000D03*
D40*
X129000000Y-74500000D03*
D39*
X126500000Y-77700000D03*
X129000000Y-77700000D03*
D19*
X133770000Y-77210000D03*
G36*
G01*
X99900000Y-86262500D02*
X99900000Y-86737500D01*
G75*
G02*
X99662500Y-86975000I-237500J0D01*
G01*
X99087500Y-86975000D01*
G75*
G02*
X98850000Y-86737500I0J237500D01*
G01*
X98850000Y-86262500D01*
G75*
G02*
X99087500Y-86025000I237500J0D01*
G01*
X99662500Y-86025000D01*
G75*
G02*
X99900000Y-86262500I0J-237500D01*
G01*
G37*
G36*
G01*
X101650000Y-86262500D02*
X101650000Y-86737500D01*
G75*
G02*
X101412500Y-86975000I-237500J0D01*
G01*
X100837500Y-86975000D01*
G75*
G02*
X100600000Y-86737500I0J237500D01*
G01*
X100600000Y-86262500D01*
G75*
G02*
X100837500Y-86025000I237500J0D01*
G01*
X101412500Y-86025000D01*
G75*
G02*
X101650000Y-86262500I0J-237500D01*
G01*
G37*
G36*
G01*
X84175000Y-90512500D02*
X84175000Y-90987500D01*
G75*
G02*
X83937500Y-91225000I-237500J0D01*
G01*
X83337500Y-91225000D01*
G75*
G02*
X83100000Y-90987500I0J237500D01*
G01*
X83100000Y-90512500D01*
G75*
G02*
X83337500Y-90275000I237500J0D01*
G01*
X83937500Y-90275000D01*
G75*
G02*
X84175000Y-90512500I0J-237500D01*
G01*
G37*
G36*
G01*
X85900000Y-90512500D02*
X85900000Y-90987500D01*
G75*
G02*
X85662500Y-91225000I-237500J0D01*
G01*
X85062500Y-91225000D01*
G75*
G02*
X84825000Y-90987500I0J237500D01*
G01*
X84825000Y-90512500D01*
G75*
G02*
X85062500Y-90275000I237500J0D01*
G01*
X85662500Y-90275000D01*
G75*
G02*
X85900000Y-90512500I0J-237500D01*
G01*
G37*
G36*
G01*
X90325000Y-84737500D02*
X90325000Y-84262500D01*
G75*
G02*
X90562500Y-84025000I237500J0D01*
G01*
X91162500Y-84025000D01*
G75*
G02*
X91400000Y-84262500I0J-237500D01*
G01*
X91400000Y-84737500D01*
G75*
G02*
X91162500Y-84975000I-237500J0D01*
G01*
X90562500Y-84975000D01*
G75*
G02*
X90325000Y-84737500I0J237500D01*
G01*
G37*
G36*
G01*
X88600000Y-84737500D02*
X88600000Y-84262500D01*
G75*
G02*
X88837500Y-84025000I237500J0D01*
G01*
X89437500Y-84025000D01*
G75*
G02*
X89675000Y-84262500I0J-237500D01*
G01*
X89675000Y-84737500D01*
G75*
G02*
X89437500Y-84975000I-237500J0D01*
G01*
X88837500Y-84975000D01*
G75*
G02*
X88600000Y-84737500I0J237500D01*
G01*
G37*
G36*
G01*
X101400000Y-76262500D02*
X101400000Y-76737500D01*
G75*
G02*
X101162500Y-76975000I-237500J0D01*
G01*
X100562500Y-76975000D01*
G75*
G02*
X100325000Y-76737500I0J237500D01*
G01*
X100325000Y-76262500D01*
G75*
G02*
X100562500Y-76025000I237500J0D01*
G01*
X101162500Y-76025000D01*
G75*
G02*
X101400000Y-76262500I0J-237500D01*
G01*
G37*
G36*
G01*
X99675000Y-76262500D02*
X99675000Y-76737500D01*
G75*
G02*
X99437500Y-76975000I-237500J0D01*
G01*
X98837500Y-76975000D01*
G75*
G02*
X98600000Y-76737500I0J237500D01*
G01*
X98600000Y-76262500D01*
G75*
G02*
X98837500Y-76025000I237500J0D01*
G01*
X99437500Y-76025000D01*
G75*
G02*
X99675000Y-76262500I0J-237500D01*
G01*
G37*
G36*
G01*
X98600000Y-70237500D02*
X98600000Y-69762500D01*
G75*
G02*
X98837500Y-69525000I237500J0D01*
G01*
X99437500Y-69525000D01*
G75*
G02*
X99675000Y-69762500I0J-237500D01*
G01*
X99675000Y-70237500D01*
G75*
G02*
X99437500Y-70475000I-237500J0D01*
G01*
X98837500Y-70475000D01*
G75*
G02*
X98600000Y-70237500I0J237500D01*
G01*
G37*
G36*
G01*
X100325000Y-70237500D02*
X100325000Y-69762500D01*
G75*
G02*
X100562500Y-69525000I237500J0D01*
G01*
X101162500Y-69525000D01*
G75*
G02*
X101400000Y-69762500I0J-237500D01*
G01*
X101400000Y-70237500D01*
G75*
G02*
X101162500Y-70475000I-237500J0D01*
G01*
X100562500Y-70475000D01*
G75*
G02*
X100325000Y-70237500I0J237500D01*
G01*
G37*
G36*
G01*
X151825000Y-98737500D02*
X151825000Y-98262500D01*
G75*
G02*
X152062500Y-98025000I237500J0D01*
G01*
X152662500Y-98025000D01*
G75*
G02*
X152900000Y-98262500I0J-237500D01*
G01*
X152900000Y-98737500D01*
G75*
G02*
X152662500Y-98975000I-237500J0D01*
G01*
X152062500Y-98975000D01*
G75*
G02*
X151825000Y-98737500I0J237500D01*
G01*
G37*
G36*
G01*
X150100000Y-98737500D02*
X150100000Y-98262500D01*
G75*
G02*
X150337500Y-98025000I237500J0D01*
G01*
X150937500Y-98025000D01*
G75*
G02*
X151175000Y-98262500I0J-237500D01*
G01*
X151175000Y-98737500D01*
G75*
G02*
X150937500Y-98975000I-237500J0D01*
G01*
X150337500Y-98975000D01*
G75*
G02*
X150100000Y-98737500I0J237500D01*
G01*
G37*
G36*
G01*
X151825000Y-96987500D02*
X151825000Y-96512500D01*
G75*
G02*
X152062500Y-96275000I237500J0D01*
G01*
X152662500Y-96275000D01*
G75*
G02*
X152900000Y-96512500I0J-237500D01*
G01*
X152900000Y-96987500D01*
G75*
G02*
X152662500Y-97225000I-237500J0D01*
G01*
X152062500Y-97225000D01*
G75*
G02*
X151825000Y-96987500I0J237500D01*
G01*
G37*
G36*
G01*
X150100000Y-96987500D02*
X150100000Y-96512500D01*
G75*
G02*
X150337500Y-96275000I237500J0D01*
G01*
X150937500Y-96275000D01*
G75*
G02*
X151175000Y-96512500I0J-237500D01*
G01*
X151175000Y-96987500D01*
G75*
G02*
X150937500Y-97225000I-237500J0D01*
G01*
X150337500Y-97225000D01*
G75*
G02*
X150100000Y-96987500I0J237500D01*
G01*
G37*
G36*
G01*
X148811872Y-91147748D02*
X149147748Y-90811872D01*
G75*
G02*
X149483624Y-90811872I167938J-167938D01*
G01*
X149907888Y-91236136D01*
G75*
G02*
X149907888Y-91572012I-167938J-167938D01*
G01*
X149572012Y-91907888D01*
G75*
G02*
X149236136Y-91907888I-167938J167938D01*
G01*
X148811872Y-91483624D01*
G75*
G02*
X148811872Y-91147748I167938J167938D01*
G01*
G37*
G36*
G01*
X147592112Y-89927988D02*
X147927988Y-89592112D01*
G75*
G02*
X148263864Y-89592112I167938J-167938D01*
G01*
X148688128Y-90016376D01*
G75*
G02*
X148688128Y-90352252I-167938J-167938D01*
G01*
X148352252Y-90688128D01*
G75*
G02*
X148016376Y-90688128I-167938J167938D01*
G01*
X147592112Y-90263864D01*
G75*
G02*
X147592112Y-89927988I167938J167938D01*
G01*
G37*
D27*
X142250000Y-80500000D03*
D28*
X149750000Y-80500000D03*
G36*
G01*
X151061872Y-102647748D02*
X151397748Y-102311872D01*
G75*
G02*
X151733624Y-102311872I167938J-167938D01*
G01*
X152157888Y-102736136D01*
G75*
G02*
X152157888Y-103072012I-167938J-167938D01*
G01*
X151822012Y-103407888D01*
G75*
G02*
X151486136Y-103407888I-167938J167938D01*
G01*
X151061872Y-102983624D01*
G75*
G02*
X151061872Y-102647748I167938J167938D01*
G01*
G37*
G36*
G01*
X149842112Y-101427988D02*
X150177988Y-101092112D01*
G75*
G02*
X150513864Y-101092112I167938J-167938D01*
G01*
X150938128Y-101516376D01*
G75*
G02*
X150938128Y-101852252I-167938J-167938D01*
G01*
X150602252Y-102188128D01*
G75*
G02*
X150266376Y-102188128I-167938J167938D01*
G01*
X149842112Y-101763864D01*
G75*
G02*
X149842112Y-101427988I167938J167938D01*
G01*
G37*
G36*
G01*
X151397748Y-92938128D02*
X151061872Y-92602252D01*
G75*
G02*
X151061872Y-92266376I167938J167938D01*
G01*
X151486136Y-91842112D01*
G75*
G02*
X151822012Y-91842112I167938J-167938D01*
G01*
X152157888Y-92177988D01*
G75*
G02*
X152157888Y-92513864I-167938J-167938D01*
G01*
X151733624Y-92938128D01*
G75*
G02*
X151397748Y-92938128I-167938J167938D01*
G01*
G37*
G36*
G01*
X150177988Y-94157888D02*
X149842112Y-93822012D01*
G75*
G02*
X149842112Y-93486136I167938J167938D01*
G01*
X150266376Y-93061872D01*
G75*
G02*
X150602252Y-93061872I167938J-167938D01*
G01*
X150938128Y-93397748D01*
G75*
G02*
X150938128Y-93733624I-167938J-167938D01*
G01*
X150513864Y-94157888D01*
G75*
G02*
X150177988Y-94157888I-167938J167938D01*
G01*
G37*
G36*
G01*
X129275000Y-95700000D02*
X130225000Y-95700000D01*
G75*
G02*
X130475000Y-95950000I0J-250000D01*
G01*
X130475000Y-96625000D01*
G75*
G02*
X130225000Y-96875000I-250000J0D01*
G01*
X129275000Y-96875000D01*
G75*
G02*
X129025000Y-96625000I0J250000D01*
G01*
X129025000Y-95950000D01*
G75*
G02*
X129275000Y-95700000I250000J0D01*
G01*
G37*
G36*
G01*
X129275000Y-93625000D02*
X130225000Y-93625000D01*
G75*
G02*
X130475000Y-93875000I0J-250000D01*
G01*
X130475000Y-94550000D01*
G75*
G02*
X130225000Y-94800000I-250000J0D01*
G01*
X129275000Y-94800000D01*
G75*
G02*
X129025000Y-94550000I0J250000D01*
G01*
X129025000Y-93875000D01*
G75*
G02*
X129275000Y-93625000I250000J0D01*
G01*
G37*
G36*
G01*
X134725000Y-94800000D02*
X133775000Y-94800000D01*
G75*
G02*
X133525000Y-94550000I0J250000D01*
G01*
X133525000Y-93875000D01*
G75*
G02*
X133775000Y-93625000I250000J0D01*
G01*
X134725000Y-93625000D01*
G75*
G02*
X134975000Y-93875000I0J-250000D01*
G01*
X134975000Y-94550000D01*
G75*
G02*
X134725000Y-94800000I-250000J0D01*
G01*
G37*
G36*
G01*
X134725000Y-96875000D02*
X133775000Y-96875000D01*
G75*
G02*
X133525000Y-96625000I0J250000D01*
G01*
X133525000Y-95950000D01*
G75*
G02*
X133775000Y-95700000I250000J0D01*
G01*
X134725000Y-95700000D01*
G75*
G02*
X134975000Y-95950000I0J-250000D01*
G01*
X134975000Y-96625000D01*
G75*
G02*
X134725000Y-96875000I-250000J0D01*
G01*
G37*
G36*
G01*
X132475000Y-94800000D02*
X131525000Y-94800000D01*
G75*
G02*
X131275000Y-94550000I0J250000D01*
G01*
X131275000Y-93875000D01*
G75*
G02*
X131525000Y-93625000I250000J0D01*
G01*
X132475000Y-93625000D01*
G75*
G02*
X132725000Y-93875000I0J-250000D01*
G01*
X132725000Y-94550000D01*
G75*
G02*
X132475000Y-94800000I-250000J0D01*
G01*
G37*
G36*
G01*
X132475000Y-96875000D02*
X131525000Y-96875000D01*
G75*
G02*
X131275000Y-96625000I0J250000D01*
G01*
X131275000Y-95950000D01*
G75*
G02*
X131525000Y-95700000I250000J0D01*
G01*
X132475000Y-95700000D01*
G75*
G02*
X132725000Y-95950000I0J-250000D01*
G01*
X132725000Y-96625000D01*
G75*
G02*
X132475000Y-96875000I-250000J0D01*
G01*
G37*
G36*
G01*
X216650002Y-95600000D02*
X215349998Y-95600000D01*
G75*
G02*
X215100000Y-95350002I0J249998D01*
G01*
X215100000Y-94524998D01*
G75*
G02*
X215349998Y-94275000I249998J0D01*
G01*
X216650002Y-94275000D01*
G75*
G02*
X216900000Y-94524998I0J-249998D01*
G01*
X216900000Y-95350002D01*
G75*
G02*
X216650002Y-95600000I-249998J0D01*
G01*
G37*
G36*
G01*
X216650002Y-98725000D02*
X215349998Y-98725000D01*
G75*
G02*
X215100000Y-98475002I0J249998D01*
G01*
X215100000Y-97649998D01*
G75*
G02*
X215349998Y-97400000I249998J0D01*
G01*
X216650002Y-97400000D01*
G75*
G02*
X216900000Y-97649998I0J-249998D01*
G01*
X216900000Y-98475002D01*
G75*
G02*
X216650002Y-98725000I-249998J0D01*
G01*
G37*
G36*
G01*
X202100000Y-100849998D02*
X202100000Y-102150002D01*
G75*
G02*
X201850002Y-102400000I-249998J0D01*
G01*
X201024998Y-102400000D01*
G75*
G02*
X200775000Y-102150002I0J249998D01*
G01*
X200775000Y-100849998D01*
G75*
G02*
X201024998Y-100600000I249998J0D01*
G01*
X201850002Y-100600000D01*
G75*
G02*
X202100000Y-100849998I0J-249998D01*
G01*
G37*
G36*
G01*
X205225000Y-100849998D02*
X205225000Y-102150002D01*
G75*
G02*
X204975002Y-102400000I-249998J0D01*
G01*
X204149998Y-102400000D01*
G75*
G02*
X203900000Y-102150002I0J249998D01*
G01*
X203900000Y-100849998D01*
G75*
G02*
X204149998Y-100600000I249998J0D01*
G01*
X204975002Y-100600000D01*
G75*
G02*
X205225000Y-100849998I0J-249998D01*
G01*
G37*
G36*
G01*
X206650000Y-79650002D02*
X206650000Y-78349998D01*
G75*
G02*
X206899998Y-78100000I249998J0D01*
G01*
X207725002Y-78100000D01*
G75*
G02*
X207975000Y-78349998I0J-249998D01*
G01*
X207975000Y-79650002D01*
G75*
G02*
X207725002Y-79900000I-249998J0D01*
G01*
X206899998Y-79900000D01*
G75*
G02*
X206650000Y-79650002I0J249998D01*
G01*
G37*
G36*
G01*
X203525000Y-79650002D02*
X203525000Y-78349998D01*
G75*
G02*
X203774998Y-78100000I249998J0D01*
G01*
X204600002Y-78100000D01*
G75*
G02*
X204850000Y-78349998I0J-249998D01*
G01*
X204850000Y-79650002D01*
G75*
G02*
X204600002Y-79900000I-249998J0D01*
G01*
X203774998Y-79900000D01*
G75*
G02*
X203525000Y-79650002I0J249998D01*
G01*
G37*
G36*
G01*
X202100000Y-95349998D02*
X202100000Y-96650002D01*
G75*
G02*
X201850002Y-96900000I-249998J0D01*
G01*
X201024998Y-96900000D01*
G75*
G02*
X200775000Y-96650002I0J249998D01*
G01*
X200775000Y-95349998D01*
G75*
G02*
X201024998Y-95100000I249998J0D01*
G01*
X201850002Y-95100000D01*
G75*
G02*
X202100000Y-95349998I0J-249998D01*
G01*
G37*
G36*
G01*
X205225000Y-95349998D02*
X205225000Y-96650002D01*
G75*
G02*
X204975002Y-96900000I-249998J0D01*
G01*
X204149998Y-96900000D01*
G75*
G02*
X203900000Y-96650002I0J249998D01*
G01*
X203900000Y-95349998D01*
G75*
G02*
X204149998Y-95100000I249998J0D01*
G01*
X204975002Y-95100000D01*
G75*
G02*
X205225000Y-95349998I0J-249998D01*
G01*
G37*
G36*
G01*
X206650000Y-76900002D02*
X206650000Y-75599998D01*
G75*
G02*
X206899998Y-75350000I249998J0D01*
G01*
X207725002Y-75350000D01*
G75*
G02*
X207975000Y-75599998I0J-249998D01*
G01*
X207975000Y-76900002D01*
G75*
G02*
X207725002Y-77150000I-249998J0D01*
G01*
X206899998Y-77150000D01*
G75*
G02*
X206650000Y-76900002I0J249998D01*
G01*
G37*
G36*
G01*
X203525000Y-76900002D02*
X203525000Y-75599998D01*
G75*
G02*
X203774998Y-75350000I249998J0D01*
G01*
X204600002Y-75350000D01*
G75*
G02*
X204850000Y-75599998I0J-249998D01*
G01*
X204850000Y-76900002D01*
G75*
G02*
X204600002Y-77150000I-249998J0D01*
G01*
X203774998Y-77150000D01*
G75*
G02*
X203525000Y-76900002I0J249998D01*
G01*
G37*
G36*
G01*
X202100000Y-103599998D02*
X202100000Y-104900002D01*
G75*
G02*
X201850002Y-105150000I-249998J0D01*
G01*
X201024998Y-105150000D01*
G75*
G02*
X200775000Y-104900002I0J249998D01*
G01*
X200775000Y-103599998D01*
G75*
G02*
X201024998Y-103350000I249998J0D01*
G01*
X201850002Y-103350000D01*
G75*
G02*
X202100000Y-103599998I0J-249998D01*
G01*
G37*
G36*
G01*
X205225000Y-103599998D02*
X205225000Y-104900002D01*
G75*
G02*
X204975002Y-105150000I-249998J0D01*
G01*
X204149998Y-105150000D01*
G75*
G02*
X203900000Y-104900002I0J249998D01*
G01*
X203900000Y-103599998D01*
G75*
G02*
X204149998Y-103350000I249998J0D01*
G01*
X204975002Y-103350000D01*
G75*
G02*
X205225000Y-103599998I0J-249998D01*
G01*
G37*
G36*
G01*
X206650000Y-74150002D02*
X206650000Y-72849998D01*
G75*
G02*
X206899998Y-72600000I249998J0D01*
G01*
X207725002Y-72600000D01*
G75*
G02*
X207975000Y-72849998I0J-249998D01*
G01*
X207975000Y-74150002D01*
G75*
G02*
X207725002Y-74400000I-249998J0D01*
G01*
X206899998Y-74400000D01*
G75*
G02*
X206650000Y-74150002I0J249998D01*
G01*
G37*
G36*
G01*
X203525000Y-74150002D02*
X203525000Y-72849998D01*
G75*
G02*
X203774998Y-72600000I249998J0D01*
G01*
X204600002Y-72600000D01*
G75*
G02*
X204850000Y-72849998I0J-249998D01*
G01*
X204850000Y-74150002D01*
G75*
G02*
X204600002Y-74400000I-249998J0D01*
G01*
X203774998Y-74400000D01*
G75*
G02*
X203525000Y-74150002I0J249998D01*
G01*
G37*
G36*
G01*
X202100000Y-98099998D02*
X202100000Y-99400002D01*
G75*
G02*
X201850002Y-99650000I-249998J0D01*
G01*
X201024998Y-99650000D01*
G75*
G02*
X200775000Y-99400002I0J249998D01*
G01*
X200775000Y-98099998D01*
G75*
G02*
X201024998Y-97850000I249998J0D01*
G01*
X201850002Y-97850000D01*
G75*
G02*
X202100000Y-98099998I0J-249998D01*
G01*
G37*
G36*
G01*
X205225000Y-98099998D02*
X205225000Y-99400002D01*
G75*
G02*
X204975002Y-99650000I-249998J0D01*
G01*
X204149998Y-99650000D01*
G75*
G02*
X203900000Y-99400002I0J249998D01*
G01*
X203900000Y-98099998D01*
G75*
G02*
X204149998Y-97850000I249998J0D01*
G01*
X204975002Y-97850000D01*
G75*
G02*
X205225000Y-98099998I0J-249998D01*
G01*
G37*
G36*
G01*
X206650000Y-71400002D02*
X206650000Y-70099998D01*
G75*
G02*
X206899998Y-69850000I249998J0D01*
G01*
X207725002Y-69850000D01*
G75*
G02*
X207975000Y-70099998I0J-249998D01*
G01*
X207975000Y-71400002D01*
G75*
G02*
X207725002Y-71650000I-249998J0D01*
G01*
X206899998Y-71650000D01*
G75*
G02*
X206650000Y-71400002I0J249998D01*
G01*
G37*
G36*
G01*
X203525000Y-71400002D02*
X203525000Y-70099998D01*
G75*
G02*
X203774998Y-69850000I249998J0D01*
G01*
X204600002Y-69850000D01*
G75*
G02*
X204850000Y-70099998I0J-249998D01*
G01*
X204850000Y-71400002D01*
G75*
G02*
X204600002Y-71650000I-249998J0D01*
G01*
X203774998Y-71650000D01*
G75*
G02*
X203525000Y-71400002I0J249998D01*
G01*
G37*
G36*
G01*
X194175000Y-94512500D02*
X194175000Y-94987500D01*
G75*
G02*
X193937500Y-95225000I-237500J0D01*
G01*
X193337500Y-95225000D01*
G75*
G02*
X193100000Y-94987500I0J237500D01*
G01*
X193100000Y-94512500D01*
G75*
G02*
X193337500Y-94275000I237500J0D01*
G01*
X193937500Y-94275000D01*
G75*
G02*
X194175000Y-94512500I0J-237500D01*
G01*
G37*
G36*
G01*
X195900000Y-94512500D02*
X195900000Y-94987500D01*
G75*
G02*
X195662500Y-95225000I-237500J0D01*
G01*
X195062500Y-95225000D01*
G75*
G02*
X194825000Y-94987500I0J237500D01*
G01*
X194825000Y-94512500D01*
G75*
G02*
X195062500Y-94275000I237500J0D01*
G01*
X195662500Y-94275000D01*
G75*
G02*
X195900000Y-94512500I0J-237500D01*
G01*
G37*
G36*
G01*
X214575000Y-80487500D02*
X214575000Y-80012500D01*
G75*
G02*
X214812500Y-79775000I237500J0D01*
G01*
X215412500Y-79775000D01*
G75*
G02*
X215650000Y-80012500I0J-237500D01*
G01*
X215650000Y-80487500D01*
G75*
G02*
X215412500Y-80725000I-237500J0D01*
G01*
X214812500Y-80725000D01*
G75*
G02*
X214575000Y-80487500I0J237500D01*
G01*
G37*
G36*
G01*
X212850000Y-80487500D02*
X212850000Y-80012500D01*
G75*
G02*
X213087500Y-79775000I237500J0D01*
G01*
X213687500Y-79775000D01*
G75*
G02*
X213925000Y-80012500I0J-237500D01*
G01*
X213925000Y-80487500D01*
G75*
G02*
X213687500Y-80725000I-237500J0D01*
G01*
X213087500Y-80725000D01*
G75*
G02*
X212850000Y-80487500I0J237500D01*
G01*
G37*
G36*
G01*
X203650002Y-83850000D02*
X202349998Y-83850000D01*
G75*
G02*
X202100000Y-83600002I0J249998D01*
G01*
X202100000Y-82774998D01*
G75*
G02*
X202349998Y-82525000I249998J0D01*
G01*
X203650002Y-82525000D01*
G75*
G02*
X203900000Y-82774998I0J-249998D01*
G01*
X203900000Y-83600002D01*
G75*
G02*
X203650002Y-83850000I-249998J0D01*
G01*
G37*
G36*
G01*
X203650002Y-86975000D02*
X202349998Y-86975000D01*
G75*
G02*
X202100000Y-86725002I0J249998D01*
G01*
X202100000Y-85899998D01*
G75*
G02*
X202349998Y-85650000I249998J0D01*
G01*
X203650002Y-85650000D01*
G75*
G02*
X203900000Y-85899998I0J-249998D01*
G01*
X203900000Y-86725002D01*
G75*
G02*
X203650002Y-86975000I-249998J0D01*
G01*
G37*
G36*
G01*
X205099998Y-91150000D02*
X206400002Y-91150000D01*
G75*
G02*
X206650000Y-91399998I0J-249998D01*
G01*
X206650000Y-92225002D01*
G75*
G02*
X206400002Y-92475000I-249998J0D01*
G01*
X205099998Y-92475000D01*
G75*
G02*
X204850000Y-92225002I0J249998D01*
G01*
X204850000Y-91399998D01*
G75*
G02*
X205099998Y-91150000I249998J0D01*
G01*
G37*
G36*
G01*
X205099998Y-88025000D02*
X206400002Y-88025000D01*
G75*
G02*
X206650000Y-88274998I0J-249998D01*
G01*
X206650000Y-89100002D01*
G75*
G02*
X206400002Y-89350000I-249998J0D01*
G01*
X205099998Y-89350000D01*
G75*
G02*
X204850000Y-89100002I0J249998D01*
G01*
X204850000Y-88274998D01*
G75*
G02*
X205099998Y-88025000I249998J0D01*
G01*
G37*
G36*
G01*
X203262500Y-90575000D02*
X203737500Y-90575000D01*
G75*
G02*
X203975000Y-90812500I0J-237500D01*
G01*
X203975000Y-91412500D01*
G75*
G02*
X203737500Y-91650000I-237500J0D01*
G01*
X203262500Y-91650000D01*
G75*
G02*
X203025000Y-91412500I0J237500D01*
G01*
X203025000Y-90812500D01*
G75*
G02*
X203262500Y-90575000I237500J0D01*
G01*
G37*
G36*
G01*
X203262500Y-88850000D02*
X203737500Y-88850000D01*
G75*
G02*
X203975000Y-89087500I0J-237500D01*
G01*
X203975000Y-89687500D01*
G75*
G02*
X203737500Y-89925000I-237500J0D01*
G01*
X203262500Y-89925000D01*
G75*
G02*
X203025000Y-89687500I0J237500D01*
G01*
X203025000Y-89087500D01*
G75*
G02*
X203262500Y-88850000I237500J0D01*
G01*
G37*
G36*
G01*
X205487500Y-84425000D02*
X205012500Y-84425000D01*
G75*
G02*
X204775000Y-84187500I0J237500D01*
G01*
X204775000Y-83587500D01*
G75*
G02*
X205012500Y-83350000I237500J0D01*
G01*
X205487500Y-83350000D01*
G75*
G02*
X205725000Y-83587500I0J-237500D01*
G01*
X205725000Y-84187500D01*
G75*
G02*
X205487500Y-84425000I-237500J0D01*
G01*
G37*
G36*
G01*
X205487500Y-86150000D02*
X205012500Y-86150000D01*
G75*
G02*
X204775000Y-85912500I0J237500D01*
G01*
X204775000Y-85312500D01*
G75*
G02*
X205012500Y-85075000I237500J0D01*
G01*
X205487500Y-85075000D01*
G75*
G02*
X205725000Y-85312500I0J-237500D01*
G01*
X205725000Y-85912500D01*
G75*
G02*
X205487500Y-86150000I-237500J0D01*
G01*
G37*
G36*
G01*
X95150000Y-89150002D02*
X95150000Y-87849998D01*
G75*
G02*
X95399998Y-87600000I249998J0D01*
G01*
X96225002Y-87600000D01*
G75*
G02*
X96475000Y-87849998I0J-249998D01*
G01*
X96475000Y-89150002D01*
G75*
G02*
X96225002Y-89400000I-249998J0D01*
G01*
X95399998Y-89400000D01*
G75*
G02*
X95150000Y-89150002I0J249998D01*
G01*
G37*
G36*
G01*
X92025000Y-89150002D02*
X92025000Y-87849998D01*
G75*
G02*
X92274998Y-87600000I249998J0D01*
G01*
X93100002Y-87600000D01*
G75*
G02*
X93350000Y-87849998I0J-249998D01*
G01*
X93350000Y-89150002D01*
G75*
G02*
X93100002Y-89400000I-249998J0D01*
G01*
X92274998Y-89400000D01*
G75*
G02*
X92025000Y-89150002I0J249998D01*
G01*
G37*
G36*
G01*
X97850000Y-102849998D02*
X97850000Y-104150002D01*
G75*
G02*
X97600002Y-104400000I-249998J0D01*
G01*
X96774998Y-104400000D01*
G75*
G02*
X96525000Y-104150002I0J249998D01*
G01*
X96525000Y-102849998D01*
G75*
G02*
X96774998Y-102600000I249998J0D01*
G01*
X97600002Y-102600000D01*
G75*
G02*
X97850000Y-102849998I0J-249998D01*
G01*
G37*
G36*
G01*
X100975000Y-102849998D02*
X100975000Y-104150002D01*
G75*
G02*
X100725002Y-104400000I-249998J0D01*
G01*
X99899998Y-104400000D01*
G75*
G02*
X99650000Y-104150002I0J249998D01*
G01*
X99650000Y-102849998D01*
G75*
G02*
X99899998Y-102600000I249998J0D01*
G01*
X100725002Y-102600000D01*
G75*
G02*
X100975000Y-102849998I0J-249998D01*
G01*
G37*
G36*
G01*
X97850000Y-100349998D02*
X97850000Y-101650002D01*
G75*
G02*
X97600002Y-101900000I-249998J0D01*
G01*
X96774998Y-101900000D01*
G75*
G02*
X96525000Y-101650002I0J249998D01*
G01*
X96525000Y-100349998D01*
G75*
G02*
X96774998Y-100100000I249998J0D01*
G01*
X97600002Y-100100000D01*
G75*
G02*
X97850000Y-100349998I0J-249998D01*
G01*
G37*
G36*
G01*
X100975000Y-100349998D02*
X100975000Y-101650002D01*
G75*
G02*
X100725002Y-101900000I-249998J0D01*
G01*
X99899998Y-101900000D01*
G75*
G02*
X99650000Y-101650002I0J249998D01*
G01*
X99650000Y-100349998D01*
G75*
G02*
X99899998Y-100100000I249998J0D01*
G01*
X100725002Y-100100000D01*
G75*
G02*
X100975000Y-100349998I0J-249998D01*
G01*
G37*
G36*
G01*
X104825000Y-92987500D02*
X104825000Y-92512500D01*
G75*
G02*
X105062500Y-92275000I237500J0D01*
G01*
X105662500Y-92275000D01*
G75*
G02*
X105900000Y-92512500I0J-237500D01*
G01*
X105900000Y-92987500D01*
G75*
G02*
X105662500Y-93225000I-237500J0D01*
G01*
X105062500Y-93225000D01*
G75*
G02*
X104825000Y-92987500I0J237500D01*
G01*
G37*
G36*
G01*
X103100000Y-92987500D02*
X103100000Y-92512500D01*
G75*
G02*
X103337500Y-92275000I237500J0D01*
G01*
X103937500Y-92275000D01*
G75*
G02*
X104175000Y-92512500I0J-237500D01*
G01*
X104175000Y-92987500D01*
G75*
G02*
X103937500Y-93225000I-237500J0D01*
G01*
X103337500Y-93225000D01*
G75*
G02*
X103100000Y-92987500I0J237500D01*
G01*
G37*
G36*
G01*
X107675000Y-92512500D02*
X107675000Y-92987500D01*
G75*
G02*
X107437500Y-93225000I-237500J0D01*
G01*
X106837500Y-93225000D01*
G75*
G02*
X106600000Y-92987500I0J237500D01*
G01*
X106600000Y-92512500D01*
G75*
G02*
X106837500Y-92275000I237500J0D01*
G01*
X107437500Y-92275000D01*
G75*
G02*
X107675000Y-92512500I0J-237500D01*
G01*
G37*
G36*
G01*
X109400000Y-92512500D02*
X109400000Y-92987500D01*
G75*
G02*
X109162500Y-93225000I-237500J0D01*
G01*
X108562500Y-93225000D01*
G75*
G02*
X108325000Y-92987500I0J237500D01*
G01*
X108325000Y-92512500D01*
G75*
G02*
X108562500Y-92275000I237500J0D01*
G01*
X109162500Y-92275000D01*
G75*
G02*
X109400000Y-92512500I0J-237500D01*
G01*
G37*
G36*
G01*
X97600000Y-81099998D02*
X97600000Y-82400002D01*
G75*
G02*
X97350002Y-82650000I-249998J0D01*
G01*
X96524998Y-82650000D01*
G75*
G02*
X96275000Y-82400002I0J249998D01*
G01*
X96275000Y-81099998D01*
G75*
G02*
X96524998Y-80850000I249998J0D01*
G01*
X97350002Y-80850000D01*
G75*
G02*
X97600000Y-81099998I0J-249998D01*
G01*
G37*
G36*
G01*
X100725000Y-81099998D02*
X100725000Y-82400002D01*
G75*
G02*
X100475002Y-82650000I-249998J0D01*
G01*
X99649998Y-82650000D01*
G75*
G02*
X99400000Y-82400002I0J249998D01*
G01*
X99400000Y-81099998D01*
G75*
G02*
X99649998Y-80850000I249998J0D01*
G01*
X100475002Y-80850000D01*
G75*
G02*
X100725000Y-81099998I0J-249998D01*
G01*
G37*
G36*
G01*
X119262500Y-106825000D02*
X119737500Y-106825000D01*
G75*
G02*
X119975000Y-107062500I0J-237500D01*
G01*
X119975000Y-107662500D01*
G75*
G02*
X119737500Y-107900000I-237500J0D01*
G01*
X119262500Y-107900000D01*
G75*
G02*
X119025000Y-107662500I0J237500D01*
G01*
X119025000Y-107062500D01*
G75*
G02*
X119262500Y-106825000I237500J0D01*
G01*
G37*
G36*
G01*
X119262500Y-105100000D02*
X119737500Y-105100000D01*
G75*
G02*
X119975000Y-105337500I0J-237500D01*
G01*
X119975000Y-105937500D01*
G75*
G02*
X119737500Y-106175000I-237500J0D01*
G01*
X119262500Y-106175000D01*
G75*
G02*
X119025000Y-105937500I0J237500D01*
G01*
X119025000Y-105337500D01*
G75*
G02*
X119262500Y-105100000I237500J0D01*
G01*
G37*
G36*
G01*
X118575000Y-109487500D02*
X118575000Y-109012500D01*
G75*
G02*
X118812500Y-108775000I237500J0D01*
G01*
X119412500Y-108775000D01*
G75*
G02*
X119650000Y-109012500I0J-237500D01*
G01*
X119650000Y-109487500D01*
G75*
G02*
X119412500Y-109725000I-237500J0D01*
G01*
X118812500Y-109725000D01*
G75*
G02*
X118575000Y-109487500I0J237500D01*
G01*
G37*
G36*
G01*
X116850000Y-109487500D02*
X116850000Y-109012500D01*
G75*
G02*
X117087500Y-108775000I237500J0D01*
G01*
X117687500Y-108775000D01*
G75*
G02*
X117925000Y-109012500I0J-237500D01*
G01*
X117925000Y-109487500D01*
G75*
G02*
X117687500Y-109725000I-237500J0D01*
G01*
X117087500Y-109725000D01*
G75*
G02*
X116850000Y-109487500I0J237500D01*
G01*
G37*
G36*
G01*
X102487500Y-98925000D02*
X102012500Y-98925000D01*
G75*
G02*
X101775000Y-98687500I0J237500D01*
G01*
X101775000Y-98087500D01*
G75*
G02*
X102012500Y-97850000I237500J0D01*
G01*
X102487500Y-97850000D01*
G75*
G02*
X102725000Y-98087500I0J-237500D01*
G01*
X102725000Y-98687500D01*
G75*
G02*
X102487500Y-98925000I-237500J0D01*
G01*
G37*
G36*
G01*
X102487500Y-100650000D02*
X102012500Y-100650000D01*
G75*
G02*
X101775000Y-100412500I0J237500D01*
G01*
X101775000Y-99812500D01*
G75*
G02*
X102012500Y-99575000I237500J0D01*
G01*
X102487500Y-99575000D01*
G75*
G02*
X102725000Y-99812500I0J-237500D01*
G01*
X102725000Y-100412500D01*
G75*
G02*
X102487500Y-100650000I-237500J0D01*
G01*
G37*
G36*
G01*
X116825000Y-91237500D02*
X116825000Y-90762500D01*
G75*
G02*
X117062500Y-90525000I237500J0D01*
G01*
X117662500Y-90525000D01*
G75*
G02*
X117900000Y-90762500I0J-237500D01*
G01*
X117900000Y-91237500D01*
G75*
G02*
X117662500Y-91475000I-237500J0D01*
G01*
X117062500Y-91475000D01*
G75*
G02*
X116825000Y-91237500I0J237500D01*
G01*
G37*
G36*
G01*
X115100000Y-91237500D02*
X115100000Y-90762500D01*
G75*
G02*
X115337500Y-90525000I237500J0D01*
G01*
X115937500Y-90525000D01*
G75*
G02*
X116175000Y-90762500I0J-237500D01*
G01*
X116175000Y-91237500D01*
G75*
G02*
X115937500Y-91475000I-237500J0D01*
G01*
X115337500Y-91475000D01*
G75*
G02*
X115100000Y-91237500I0J237500D01*
G01*
G37*
G36*
G01*
X118575000Y-111237500D02*
X118575000Y-110762500D01*
G75*
G02*
X118812500Y-110525000I237500J0D01*
G01*
X119412500Y-110525000D01*
G75*
G02*
X119650000Y-110762500I0J-237500D01*
G01*
X119650000Y-111237500D01*
G75*
G02*
X119412500Y-111475000I-237500J0D01*
G01*
X118812500Y-111475000D01*
G75*
G02*
X118575000Y-111237500I0J237500D01*
G01*
G37*
G36*
G01*
X116850000Y-111237500D02*
X116850000Y-110762500D01*
G75*
G02*
X117087500Y-110525000I237500J0D01*
G01*
X117687500Y-110525000D01*
G75*
G02*
X117925000Y-110762500I0J-237500D01*
G01*
X117925000Y-111237500D01*
G75*
G02*
X117687500Y-111475000I-237500J0D01*
G01*
X117087500Y-111475000D01*
G75*
G02*
X116850000Y-111237500I0J237500D01*
G01*
G37*
G36*
G01*
X104237500Y-102537500D02*
X103762500Y-102537500D01*
G75*
G02*
X103525000Y-102300000I0J237500D01*
G01*
X103525000Y-101700000D01*
G75*
G02*
X103762500Y-101462500I237500J0D01*
G01*
X104237500Y-101462500D01*
G75*
G02*
X104475000Y-101700000I0J-237500D01*
G01*
X104475000Y-102300000D01*
G75*
G02*
X104237500Y-102537500I-237500J0D01*
G01*
G37*
G36*
G01*
X104237500Y-104262500D02*
X103762500Y-104262500D01*
G75*
G02*
X103525000Y-104025000I0J237500D01*
G01*
X103525000Y-103425000D01*
G75*
G02*
X103762500Y-103187500I237500J0D01*
G01*
X104237500Y-103187500D01*
G75*
G02*
X104475000Y-103425000I0J-237500D01*
G01*
X104475000Y-104025000D01*
G75*
G02*
X104237500Y-104262500I-237500J0D01*
G01*
G37*
G36*
G01*
X116825000Y-92987500D02*
X116825000Y-92512500D01*
G75*
G02*
X117062500Y-92275000I237500J0D01*
G01*
X117662500Y-92275000D01*
G75*
G02*
X117900000Y-92512500I0J-237500D01*
G01*
X117900000Y-92987500D01*
G75*
G02*
X117662500Y-93225000I-237500J0D01*
G01*
X117062500Y-93225000D01*
G75*
G02*
X116825000Y-92987500I0J237500D01*
G01*
G37*
G36*
G01*
X115100000Y-92987500D02*
X115100000Y-92512500D01*
G75*
G02*
X115337500Y-92275000I237500J0D01*
G01*
X115937500Y-92275000D01*
G75*
G02*
X116175000Y-92512500I0J-237500D01*
G01*
X116175000Y-92987500D01*
G75*
G02*
X115937500Y-93225000I-237500J0D01*
G01*
X115337500Y-93225000D01*
G75*
G02*
X115100000Y-92987500I0J237500D01*
G01*
G37*
G36*
G01*
X106425000Y-110012500D02*
X106425000Y-110487500D01*
G75*
G02*
X106187500Y-110725000I-237500J0D01*
G01*
X105587500Y-110725000D01*
G75*
G02*
X105350000Y-110487500I0J237500D01*
G01*
X105350000Y-110012500D01*
G75*
G02*
X105587500Y-109775000I237500J0D01*
G01*
X106187500Y-109775000D01*
G75*
G02*
X106425000Y-110012500I0J-237500D01*
G01*
G37*
G36*
G01*
X108150000Y-110012500D02*
X108150000Y-110487500D01*
G75*
G02*
X107912500Y-110725000I-237500J0D01*
G01*
X107312500Y-110725000D01*
G75*
G02*
X107075000Y-110487500I0J237500D01*
G01*
X107075000Y-110012500D01*
G75*
G02*
X107312500Y-109775000I237500J0D01*
G01*
X107912500Y-109775000D01*
G75*
G02*
X108150000Y-110012500I0J-237500D01*
G01*
G37*
G36*
G01*
X102925000Y-111762500D02*
X102925000Y-112237500D01*
G75*
G02*
X102687500Y-112475000I-237500J0D01*
G01*
X102087500Y-112475000D01*
G75*
G02*
X101850000Y-112237500I0J237500D01*
G01*
X101850000Y-111762500D01*
G75*
G02*
X102087500Y-111525000I237500J0D01*
G01*
X102687500Y-111525000D01*
G75*
G02*
X102925000Y-111762500I0J-237500D01*
G01*
G37*
G36*
G01*
X104650000Y-111762500D02*
X104650000Y-112237500D01*
G75*
G02*
X104412500Y-112475000I-237500J0D01*
G01*
X103812500Y-112475000D01*
G75*
G02*
X103575000Y-112237500I0J237500D01*
G01*
X103575000Y-111762500D01*
G75*
G02*
X103812500Y-111525000I237500J0D01*
G01*
X104412500Y-111525000D01*
G75*
G02*
X104650000Y-111762500I0J-237500D01*
G01*
G37*
G36*
G01*
X106425000Y-111762500D02*
X106425000Y-112237500D01*
G75*
G02*
X106187500Y-112475000I-237500J0D01*
G01*
X105587500Y-112475000D01*
G75*
G02*
X105350000Y-112237500I0J237500D01*
G01*
X105350000Y-111762500D01*
G75*
G02*
X105587500Y-111525000I237500J0D01*
G01*
X106187500Y-111525000D01*
G75*
G02*
X106425000Y-111762500I0J-237500D01*
G01*
G37*
G36*
G01*
X108150000Y-111762500D02*
X108150000Y-112237500D01*
G75*
G02*
X107912500Y-112475000I-237500J0D01*
G01*
X107312500Y-112475000D01*
G75*
G02*
X107075000Y-112237500I0J237500D01*
G01*
X107075000Y-111762500D01*
G75*
G02*
X107312500Y-111525000I237500J0D01*
G01*
X107912500Y-111525000D01*
G75*
G02*
X108150000Y-111762500I0J-237500D01*
G01*
G37*
G36*
G01*
X104825000Y-94737500D02*
X104825000Y-94262500D01*
G75*
G02*
X105062500Y-94025000I237500J0D01*
G01*
X105662500Y-94025000D01*
G75*
G02*
X105900000Y-94262500I0J-237500D01*
G01*
X105900000Y-94737500D01*
G75*
G02*
X105662500Y-94975000I-237500J0D01*
G01*
X105062500Y-94975000D01*
G75*
G02*
X104825000Y-94737500I0J237500D01*
G01*
G37*
G36*
G01*
X103100000Y-94737500D02*
X103100000Y-94262500D01*
G75*
G02*
X103337500Y-94025000I237500J0D01*
G01*
X103937500Y-94025000D01*
G75*
G02*
X104175000Y-94262500I0J-237500D01*
G01*
X104175000Y-94737500D01*
G75*
G02*
X103937500Y-94975000I-237500J0D01*
G01*
X103337500Y-94975000D01*
G75*
G02*
X103100000Y-94737500I0J237500D01*
G01*
G37*
G36*
G01*
X119487500Y-94287500D02*
X119012500Y-94287500D01*
G75*
G02*
X118775000Y-94050000I0J237500D01*
G01*
X118775000Y-93450000D01*
G75*
G02*
X119012500Y-93212500I237500J0D01*
G01*
X119487500Y-93212500D01*
G75*
G02*
X119725000Y-93450000I0J-237500D01*
G01*
X119725000Y-94050000D01*
G75*
G02*
X119487500Y-94287500I-237500J0D01*
G01*
G37*
G36*
G01*
X119487500Y-96012500D02*
X119012500Y-96012500D01*
G75*
G02*
X118775000Y-95775000I0J237500D01*
G01*
X118775000Y-95175000D01*
G75*
G02*
X119012500Y-94937500I237500J0D01*
G01*
X119487500Y-94937500D01*
G75*
G02*
X119725000Y-95175000I0J-237500D01*
G01*
X119725000Y-95775000D01*
G75*
G02*
X119487500Y-96012500I-237500J0D01*
G01*
G37*
G36*
G01*
X102487500Y-102537500D02*
X102012500Y-102537500D01*
G75*
G02*
X101775000Y-102300000I0J237500D01*
G01*
X101775000Y-101700000D01*
G75*
G02*
X102012500Y-101462500I237500J0D01*
G01*
X102487500Y-101462500D01*
G75*
G02*
X102725000Y-101700000I0J-237500D01*
G01*
X102725000Y-102300000D01*
G75*
G02*
X102487500Y-102537500I-237500J0D01*
G01*
G37*
G36*
G01*
X102487500Y-104262500D02*
X102012500Y-104262500D01*
G75*
G02*
X101775000Y-104025000I0J237500D01*
G01*
X101775000Y-103425000D01*
G75*
G02*
X102012500Y-103187500I237500J0D01*
G01*
X102487500Y-103187500D01*
G75*
G02*
X102725000Y-103425000I0J-237500D01*
G01*
X102725000Y-104025000D01*
G75*
G02*
X102487500Y-104262500I-237500J0D01*
G01*
G37*
G36*
G01*
X121012500Y-106825000D02*
X121487500Y-106825000D01*
G75*
G02*
X121725000Y-107062500I0J-237500D01*
G01*
X121725000Y-107662500D01*
G75*
G02*
X121487500Y-107900000I-237500J0D01*
G01*
X121012500Y-107900000D01*
G75*
G02*
X120775000Y-107662500I0J237500D01*
G01*
X120775000Y-107062500D01*
G75*
G02*
X121012500Y-106825000I237500J0D01*
G01*
G37*
G36*
G01*
X121012500Y-105100000D02*
X121487500Y-105100000D01*
G75*
G02*
X121725000Y-105337500I0J-237500D01*
G01*
X121725000Y-105937500D01*
G75*
G02*
X121487500Y-106175000I-237500J0D01*
G01*
X121012500Y-106175000D01*
G75*
G02*
X120775000Y-105937500I0J237500D01*
G01*
X120775000Y-105337500D01*
G75*
G02*
X121012500Y-105100000I237500J0D01*
G01*
G37*
G36*
G01*
X121237500Y-94287500D02*
X120762500Y-94287500D01*
G75*
G02*
X120525000Y-94050000I0J237500D01*
G01*
X120525000Y-93450000D01*
G75*
G02*
X120762500Y-93212500I237500J0D01*
G01*
X121237500Y-93212500D01*
G75*
G02*
X121475000Y-93450000I0J-237500D01*
G01*
X121475000Y-94050000D01*
G75*
G02*
X121237500Y-94287500I-237500J0D01*
G01*
G37*
G36*
G01*
X121237500Y-96012500D02*
X120762500Y-96012500D01*
G75*
G02*
X120525000Y-95775000I0J237500D01*
G01*
X120525000Y-95175000D01*
G75*
G02*
X120762500Y-94937500I237500J0D01*
G01*
X121237500Y-94937500D01*
G75*
G02*
X121475000Y-95175000I0J-237500D01*
G01*
X121475000Y-95775000D01*
G75*
G02*
X121237500Y-96012500I-237500J0D01*
G01*
G37*
G36*
G01*
X100737500Y-106425000D02*
X100262500Y-106425000D01*
G75*
G02*
X100025000Y-106187500I0J237500D01*
G01*
X100025000Y-105587500D01*
G75*
G02*
X100262500Y-105350000I237500J0D01*
G01*
X100737500Y-105350000D01*
G75*
G02*
X100975000Y-105587500I0J-237500D01*
G01*
X100975000Y-106187500D01*
G75*
G02*
X100737500Y-106425000I-237500J0D01*
G01*
G37*
G36*
G01*
X100737500Y-108150000D02*
X100262500Y-108150000D01*
G75*
G02*
X100025000Y-107912500I0J237500D01*
G01*
X100025000Y-107312500D01*
G75*
G02*
X100262500Y-107075000I237500J0D01*
G01*
X100737500Y-107075000D01*
G75*
G02*
X100975000Y-107312500I0J-237500D01*
G01*
X100975000Y-107912500D01*
G75*
G02*
X100737500Y-108150000I-237500J0D01*
G01*
G37*
G36*
G01*
X104237500Y-98925000D02*
X103762500Y-98925000D01*
G75*
G02*
X103525000Y-98687500I0J237500D01*
G01*
X103525000Y-98087500D01*
G75*
G02*
X103762500Y-97850000I237500J0D01*
G01*
X104237500Y-97850000D01*
G75*
G02*
X104475000Y-98087500I0J-237500D01*
G01*
X104475000Y-98687500D01*
G75*
G02*
X104237500Y-98925000I-237500J0D01*
G01*
G37*
G36*
G01*
X104237500Y-100650000D02*
X103762500Y-100650000D01*
G75*
G02*
X103525000Y-100412500I0J237500D01*
G01*
X103525000Y-99812500D01*
G75*
G02*
X103762500Y-99575000I237500J0D01*
G01*
X104237500Y-99575000D01*
G75*
G02*
X104475000Y-99812500I0J-237500D01*
G01*
X104475000Y-100412500D01*
G75*
G02*
X104237500Y-100650000I-237500J0D01*
G01*
G37*
G36*
G01*
X102925000Y-110012500D02*
X102925000Y-110487500D01*
G75*
G02*
X102687500Y-110725000I-237500J0D01*
G01*
X102087500Y-110725000D01*
G75*
G02*
X101850000Y-110487500I0J237500D01*
G01*
X101850000Y-110012500D01*
G75*
G02*
X102087500Y-109775000I237500J0D01*
G01*
X102687500Y-109775000D01*
G75*
G02*
X102925000Y-110012500I0J-237500D01*
G01*
G37*
G36*
G01*
X104650000Y-110012500D02*
X104650000Y-110487500D01*
G75*
G02*
X104412500Y-110725000I-237500J0D01*
G01*
X103812500Y-110725000D01*
G75*
G02*
X103575000Y-110487500I0J237500D01*
G01*
X103575000Y-110012500D01*
G75*
G02*
X103812500Y-109775000I237500J0D01*
G01*
X104412500Y-109775000D01*
G75*
G02*
X104650000Y-110012500I0J-237500D01*
G01*
G37*
G36*
G01*
X107675000Y-94262500D02*
X107675000Y-94737500D01*
G75*
G02*
X107437500Y-94975000I-237500J0D01*
G01*
X106837500Y-94975000D01*
G75*
G02*
X106600000Y-94737500I0J237500D01*
G01*
X106600000Y-94262500D01*
G75*
G02*
X106837500Y-94025000I237500J0D01*
G01*
X107437500Y-94025000D01*
G75*
G02*
X107675000Y-94262500I0J-237500D01*
G01*
G37*
G36*
G01*
X109400000Y-94262500D02*
X109400000Y-94737500D01*
G75*
G02*
X109162500Y-94975000I-237500J0D01*
G01*
X108562500Y-94975000D01*
G75*
G02*
X108325000Y-94737500I0J237500D01*
G01*
X108325000Y-94262500D01*
G75*
G02*
X108562500Y-94025000I237500J0D01*
G01*
X109162500Y-94025000D01*
G75*
G02*
X109400000Y-94262500I0J-237500D01*
G01*
G37*
G36*
G01*
X103575000Y-107987500D02*
X103575000Y-107512500D01*
G75*
G02*
X103812500Y-107275000I237500J0D01*
G01*
X104412500Y-107275000D01*
G75*
G02*
X104650000Y-107512500I0J-237500D01*
G01*
X104650000Y-107987500D01*
G75*
G02*
X104412500Y-108225000I-237500J0D01*
G01*
X103812500Y-108225000D01*
G75*
G02*
X103575000Y-107987500I0J237500D01*
G01*
G37*
G36*
G01*
X101850000Y-107987500D02*
X101850000Y-107512500D01*
G75*
G02*
X102087500Y-107275000I237500J0D01*
G01*
X102687500Y-107275000D01*
G75*
G02*
X102925000Y-107512500I0J-237500D01*
G01*
X102925000Y-107987500D01*
G75*
G02*
X102687500Y-108225000I-237500J0D01*
G01*
X102087500Y-108225000D01*
G75*
G02*
X101850000Y-107987500I0J237500D01*
G01*
G37*
G36*
G01*
X97600000Y-83599998D02*
X97600000Y-84900002D01*
G75*
G02*
X97350002Y-85150000I-249998J0D01*
G01*
X96524998Y-85150000D01*
G75*
G02*
X96275000Y-84900002I0J249998D01*
G01*
X96275000Y-83599998D01*
G75*
G02*
X96524998Y-83350000I249998J0D01*
G01*
X97350002Y-83350000D01*
G75*
G02*
X97600000Y-83599998I0J-249998D01*
G01*
G37*
G36*
G01*
X100725000Y-83599998D02*
X100725000Y-84900002D01*
G75*
G02*
X100475002Y-85150000I-249998J0D01*
G01*
X99649998Y-85150000D01*
G75*
G02*
X99400000Y-84900002I0J249998D01*
G01*
X99400000Y-83599998D01*
G75*
G02*
X99649998Y-83350000I249998J0D01*
G01*
X100475002Y-83350000D01*
G75*
G02*
X100725000Y-83599998I0J-249998D01*
G01*
G37*
M02*
